<svg width="54" height="54" fill="none" xmlns="http://www.w3.org/2000/svg"><g clip-path="url(#clip0_2001_38834)" fill="#AC2A21"><path d="M25.24 54c-.864-.28-1.793-.28-2.668-.518-7.57-2.117-12.366-6.977-13.932-14.678-1.706-8.434 2.56-16.675 10.282-20.38a18.083 18.083 0 017.484-1.803c5.497-.13 10.195 1.782 14.008 5.703 3.91 4.028 5.713 8.942 5.183 14.515-.702 7.333-4.557 12.571-11.253 15.66-1.717.799-3.564 1.231-5.454 1.404-.108.01-.216-.022-.28.108C27.463 54 26.351 54 25.24 54zM27 18.133c-9.504-.021-17.183 7.614-17.204 17.107-.022 9.515 7.646 17.237 17.14 17.248 9.481.01 17.182-7.657 17.203-17.129A17.117 17.117 0 0027 18.133zM27.292 0c.302.27.442.626.561 1.004.346 1.113.724 2.225 1.07 3.338.097.324.27.41.583.4 1.263-.022 2.516 0 3.78-.012.389 0 .723.065.874.476.163.432-.043.734-.377.972-.994.723-1.977 1.436-2.981 2.138-.346.238-.465.454-.303.886.41 1.134.756 2.29 1.134 3.434.13.4.195.788-.205 1.07-.389.28-.745.129-1.08-.13-1.004-.735-2.02-1.448-3.002-2.193-.292-.216-.465-.205-.745.011-.973.734-1.977 1.436-2.96 2.16-.356.26-.723.454-1.123.14-.41-.313-.313-.712-.173-1.123.378-1.145.735-2.29 1.134-3.434.13-.357.044-.562-.248-.767-.94-.659-1.869-1.34-2.808-2.009a9.6 9.6 0 01-.346-.259c-.291-.238-.42-.54-.27-.907.14-.346.41-.465.767-.465 1.274.011 2.56-.01 3.834.022.41.01.55-.151.659-.508.367-1.21.777-2.397 1.145-3.596.086-.28.313-.421.453-.648h.627zm-2.798 10.865c.044.032.076.065.12.108.485-.357.971-.713 1.468-1.059.875-.626.929-.626 1.782 0 .497.368 1.005.724 1.512 1.091-.119-.745-.335-1.425-.55-2.106-.217-.702-.152-.885.453-1.317.561-.4 1.112-.81 1.663-1.21-.745-.119-1.447-.119-2.138-.119-.735 0-.875-.119-1.102-.831-.216-.68-.454-1.361-.734-2.182-.26.8-.465 1.436-.67 2.063-.291.885-.389.95-1.307.95h-1.954c.561.551 1.155.983 1.75 1.404.41.281.54.627.377 1.113-.248.69-.454 1.393-.67 2.095zm-20.509-.303c.616 0 1.22-.021 1.836.011.378.011.573-.097.692-.497.334-1.155.734-2.29 1.101-3.445.13-.41.292-.799.81-.799.519 0 .691.356.821.778.378 1.177.767 2.354 1.134 3.542.097.313.26.421.572.41 1.264-.021 2.517 0 3.78-.01.443 0 .789.118.93.561.14.443-.141.713-.454.94-1.005.723-2.01 1.458-3.024 2.17-.281.195-.368.368-.249.713.41 1.167.767 2.355 1.167 3.532.14.41.183.778-.195 1.07-.389.302-.734.14-1.08-.109-.972-.713-1.955-1.415-2.905-2.149-.335-.26-.583-.28-.94-.01-.982.755-1.998 1.457-3.002 2.202-.324.238-.648.335-.983.087-.356-.26-.389-.605-.248-1.005.41-1.21.788-2.43 1.199-3.628.108-.303.064-.476-.206-.67-1.015-.713-2.008-1.447-3.013-2.17-.335-.25-.626-.508-.486-.973.14-.497.54-.561.983-.55.572.01 1.166 0 1.76 0zm.573 1.523c-.022.043-.033.097-.054.14.55.4 1.09.8 1.641 1.2.584.42.66.637.432 1.328-.216.68-.432 1.35-.658 2.03.648-.345 1.198-.745 1.76-1.155.626-.454.875-.443 1.49.01.53.39 1.07.767 1.62 1.167.108-.26.011-.421-.043-.594-.162-.497-.313-.994-.486-1.48-.205-.55-.086-.972.421-1.296.443-.28.854-.594 1.275-.907.14-.108.345-.173.356-.432H10.24c-.692 0-.908-.173-1.113-.842-.216-.68-.443-1.35-.713-2.171-.28.864-.529 1.577-.745 2.29-.162.518-.486.755-1.037.734-.68-.043-1.382-.022-2.073-.022zm36.536-1.523c.627 0 1.264-.021 1.89.011.324.011.475-.108.573-.421.367-1.188.756-2.365 1.123-3.542.13-.422.324-.778.831-.778.486.01.66.356.789.756.367 1.145.767 2.29 1.102 3.445.13.432.345.551.766.54 1.21-.021 2.409 0 3.618-.021.432 0 .789.097.918.561.13.443-.13.713-.453.94-1.005.723-1.998 1.469-3.024 2.17-.324.227-.346.422-.227.757.41 1.166.778 2.354 1.166 3.531.13.4.152.745-.205 1.026-.356.281-.691.184-1.037-.065-1.004-.745-2.04-1.468-3.045-2.235-.303-.227-.519-.227-.8 0-.993.745-1.998 1.469-2.991 2.203-.346.248-.691.41-1.08.108-.378-.302-.324-.67-.195-1.08.4-1.177.756-2.365 1.167-3.532.108-.313.065-.486-.205-.68a314.482 314.482 0 01-3.067-2.192c-.325-.227-.594-.497-.454-.94.13-.41.454-.572.875-.562.67.011 1.317 0 1.965 0zm4.46-1.339c-.043.011-.075.011-.118.022-.216.659-.443 1.328-.648 1.987-.227.702-.421.853-1.166.853h-2.02c.432.475.896.821 1.36 1.167.908.67.919.712.584 1.792-.184.584-.378 1.167-.562 1.74.648-.346 1.21-.735 1.75-1.135.648-.475.886-.475 1.544 0 .551.4 1.091.8 1.642 1.199-.108-.67-.303-1.274-.497-1.88-.313-.993-.28-1.068.572-1.695.497-.367 1.037-.67 1.545-1.177-.832 0-1.566-.01-2.3 0-.519.01-.832-.216-.983-.724-.216-.734-.465-1.436-.702-2.149z"/><path d="M26.968 19.764c8.597 0 15.541 6.955 15.541 15.563 0 8.564-6.998 15.54-15.573 15.53-8.532-.01-15.51-6.998-15.51-15.541 0-8.608 6.945-15.563 15.542-15.552zm-.022 1.512c-7.743.01-14.04 6.307-14.007 14.072.032 7.625 6.102 13.954 14.04 13.986 7.754.033 14.029-6.329 14.018-14.072-.01-7.711-6.318-13.997-14.05-13.986z"/><path d="M18.328 37.13c0-1.782-.022-3.564 0-5.346.021-1.706 1.425-2.754 2.991-2.3.508.151.897.475 1.156.918.238.41.594.238.907.27.303.032.378-.195.465-.421.604-1.48 1.22-2.96 1.836-4.44.702-1.651 2.646-2.051 3.963-.83 1.026.95 1.35 2.084 1.048 3.423-.13.572-.292 1.155-.497 1.706-.151.422-.108.562.378.551a80.812 80.812 0 013.618 0c1.76.032 3.1 1.663 2.754 3.38-.464 2.344-.95 4.677-1.447 7.02-.335 1.588-1.404 2.452-3.024 2.452h-9.342c-.27 0-.508 0-.702.28-.691.995-1.501 1.319-2.484 1.027-.961-.28-1.62-1.166-1.642-2.3 0-1.793.022-3.586.022-5.39zm9.59 4.871c1.534 0 3.057.01 4.59 0 .897 0 1.329-.367 1.512-1.22.465-2.247.94-4.504 1.393-6.75.238-1.178-.302-1.836-1.512-1.836h-4.59c-.96 0-1.242-.367-.95-1.285.302-.94.67-1.858.842-2.84.12-.681 0-1.297-.453-1.826-.583-.691-1.329-.572-1.685.26-.605 1.425-1.231 2.84-1.782 4.276-.356.95-.961 1.436-1.966 1.436-.345 0-.486.12-.486.508.022 2.927.022 5.864.011 8.791 0 .378.108.497.486.486 1.534-.01 3.057 0 4.59 0zm-6.577-4.903c-.01-1.404-.01-2.808-.01-4.212 0-.41.02-.832-.012-1.242-.032-.421-.248-.724-.702-.745-.442-.033-.648.259-.734.648-.043.194-.043.389-.043.594v9.99c0 .162-.011.324.021.486.076.41.216.81.724.799.497-.022.67-.421.756-.853.022-.14.01-.292.01-.432-.01-1.685-.01-3.36-.01-5.033z"/></g><defs><clipPath id="clip0_2001_38834"><path fill="#fff" transform="translate(1.188)" d="M0 0h51.559v54H0z"/></clipPath></defs></svg>