<svg width="54" height="54" fill="none" xmlns="http://www.w3.org/2000/svg"><g clip-path="url(#clip0_2001_450)"><g clip-path="url(#clip1_2001_450)" fill="#AC2A21"><path d="M25.91 27.364c3.747 0 7.495-.012 11.243.01.447 0 .637-.066.536-.581-.413-2.237.291-3.77 2.126-4.676 1.824-.906 4.06-.582 5.347 1.03 1.98 2.494 4.05 4.91 5.974 7.46 1.757 2.328 2.394 5.046 2.696 7.877.235 2.226.235 4.44-.559 6.566-1.88 5.046-5.549 7.943-10.84 8.782-2.103.336-4.24.078-6.366.112-1.566.022-3.132 0-4.698-.022-3.077-.067-4.923-3.121-3.49-5.784.19-.347.424-.671.715-.929.28-.246.291-.369.023-.637-1.634-1.634-1.645-3.95-.023-5.583.269-.268.302-.38 0-.67-1.297-1.243-1.566-3.133-.682-4.666.257-.436.179-.503-.29-.503-4.341.011-8.682.022-13.034.011-1.913 0-3.48-1.331-3.815-3.2-.447-2.46 1.421-4.575 4.072-4.575 3.681-.034 7.373-.022 11.064-.022zm.559 1.588H14.555c-1.04 0-1.891.627-2.204 1.589a2.335 2.335 0 00.861 2.629c.492.358 1.04.447 1.633.447 5.426-.011 10.852-.011 16.278-.011.67 0 .973.224.995.716.023.481-.268.772-.85.828-1.365.134-2.316 1.085-2.327 2.338-.011 1.342.828 2.215 2.294 2.383.57.067.895.492.749 1.007-.123.436-.47.514-.873.548-.928.09-1.633.548-1.99 1.41-.348.85-.258 1.677.335 2.416.447.56 1.04.816 1.745.872.694.056 1.018.604.705 1.164-.18.324-.481.369-.806.391-1.253.101-2.137 1.052-2.148 2.282-.01 1.253.817 2.227 2.07 2.35 1.544.145 3.088.078 4.643.067 2.181-.011 4.363.179 6.533-.078 4.754-.56 8.692-4.039 9.878-8.67.447-1.746.347-3.513.168-5.28-.258-2.619-.985-5.08-2.64-7.194-1.801-2.304-3.748-4.486-5.46-6.869-.235-.324-.548-.548-.895-.75-1.689-.95-4.083.068-4.161 1.936-.034.694.134 1.365.335 2.025.314 1.074.034 1.443-1.096 1.443-3.949.011-7.898.011-11.858.011z"/><path d="M13.2 48.015v-4.922c0-1.555-.738-2.562-2.203-3.066-6.019-2.025-8.245-9.486-4.318-14.465 1.074-1.364 2.438-2.338 4.06-2.942 1.88-.704 2.473-1.532 2.473-3.568v-1.063c-.011-.57.179-1.186-.705-1.365-.403-.078-.537-.57-.593-1.007-.123-.917-.817-1.208-1.566-.682-.772.548-1.298.503-1.969-.168-.302-.302-.615-.604-.906-.917-.492-.537-.515-1.13-.09-1.723.627-.862.392-1.466-.649-1.656-.794-.145-1.174-.582-1.197-1.376a29.13 29.13 0 010-1.398c.023-.727.426-1.175 1.13-1.31 1.12-.2 1.354-.782.694-1.722-.403-.56-.37-1.152.1-1.678.336-.37.694-.727 1.063-1.063.549-.503 1.175-.514 1.768-.067.783.593 1.466.302 1.622-.682.112-.75.582-1.164 1.32-1.186.481-.011.973-.011 1.454 0 .761.022 1.197.414 1.32 1.174.157 1.018.817 1.276 1.656.66.57-.425 1.208-.402 1.734.079.358.324.694.671 1.03 1.029.548.582.57 1.163.089 1.812-.56.761-.28 1.466.649 1.622.861.157 1.23.571 1.242 1.432 0 .426.01.862 0 1.287-.012.783-.425 1.253-1.186 1.376-1.007.168-1.264.828-.65 1.667.404.548.381 1.186-.077 1.689-.336.37-.694.727-1.063 1.074-.548.515-1.096.548-1.723.134-.95-.626-1.51-.38-1.712.727-.09.504-.369.884-.85 1.007-.335.09-.391.258-.391.548-.023 1.007.09 2.014-.068 3.01-.28 1.767-1.297 2.942-2.953 3.546-1.521.56-2.83 1.376-3.848 2.663-2.808 3.557-1.813 8.983 2.092 11.299.57.335 1.174.559 1.779.794 1.901.727 2.998 2.304 3.009 4.34.011 3.3 0 6.6.011 9.9 0 .393-.067.75-.425.974-.526.313-1.119-.067-1.119-.76-.033-1.667-.033-3.357-.033-5.057zm5.236-34.378c.347-.034.75-.705.582-.962-.817-1.242-.18-3.267 1.499-3.647.425-.1.302-.392.324-.649.023-.268 0-.447-.358-.56-1.588-.47-2.248-2.08-1.476-3.568.179-.336.056-.492-.157-.705-.213-.212-.37-.346-.716-.167-1.499.783-3.088.145-3.569-1.455-.111-.38-.324-.369-.615-.38-.302-.011-.503.022-.615.38-.526 1.622-2.047 2.238-3.569 1.443-.391-.201-.526.023-.75.213-.223.19-.279.335-.111.649a2.422 2.422 0 01-1.399 3.557c-.335.1-.48.213-.48.593 0 .392.1.57.503.694 1.499.48 2.17 2.17 1.387 3.524-.168.29-.157.447.09.649.234.19.369.447.794.212 1.41-.783 3.043-.1 3.535 1.454.112.358.28.448.626.437.347-.011.515-.079.616-.459.436-1.521 2.147-2.204 3.546-1.443.123.067.235.134.313.19z"/><path d="M0 33.863c.011-.436.201-.738.638-.805.458-.067.75.168.883.593.124.414.19.839.314 1.241 1.186 3.804 3.602 6.478 7.249 8.066.582.258.817.672.604 1.12-.19.424-.638.547-1.197.301-4.52-1.98-7.316-5.392-8.446-10.191-.023-.112-.034-.224-.045-.325zm9.744-15.08c0 .515-.38.682-.76.85A12.271 12.271 0 004.9 22.397c-1.712 1.767-2.841 3.848-3.334 6.264-.123.593-.47.918-.917.84-.503-.09-.75-.549-.593-1.175 1.13-4.81 3.95-8.2 8.48-10.18.649-.291 1.208.022 1.208.637zm8.648-10.281a4.448 4.448 0 01-4.509 4.385c-2.427-.022-4.396-2.058-4.374-4.52.034-2.438 2.103-4.452 4.52-4.396a4.463 4.463 0 014.363 4.531zm-4.442 2.842a2.92 2.92 0 002.931-2.898c.023-1.566-1.32-2.908-2.92-2.92a2.889 2.889 0 00-2.908 2.91 2.88 2.88 0 002.897 2.908z"/></g></g><defs><clipPath id="clip0_2001_450"><path fill="#fff" d="M0 0h54v54H0z"/></clipPath><clipPath id="clip1_2001_450"><path fill="#fff" d="M0 0h53.955v54H0z"/></clipPath></defs></svg>