<svg width="54" height="54" fill="none" xmlns="http://www.w3.org/2000/svg"><g clip-path="url(#clip0_2001_405)" fill="#AC2A21"><path d="M54 26.272c-.124 11.14-7.422 19.544-17.608 21.036-4.244.622-8.293-.041-12.136-1.962-.69-.346-.926-.913-.622-1.52.305-.609.885-.802 1.576-.443 1.963 1.009 4.064 1.603 6.247 1.88.954.11.954.096.954-.843 0-.415-.014-.83.014-1.244.041-.608.525-1.05 1.078-1.05a1.09 1.09 0 011.078 1.036c.028.511.041 1.009 0 1.52-.042.498.152.65.636.594 2.073-.234 4.063-.746 5.97-1.617a20.135 20.135 0 003.981-2.474c.387-.304.511-.539.055-.898-.331-.276-.635-.608-.926-.926-.525-.553-.552-1.203-.082-1.659.456-.456 1.091-.4 1.658.125.332.318.677.636.968.981.29.346.497.277.76-.041 2.418-2.93 3.787-6.289 4.174-10.049.041-.428-.056-.65-.54-.608-.483.042-.967.014-1.45 0-.705-.027-1.175-.47-1.161-1.105.013-.622.47-1.05 1.188-1.078.442-.014.885-.042 1.313 0 .567.055.705-.166.65-.705-.36-3.069-1.327-5.916-3.069-8.487-.345-.51-.746-.995-1.105-1.492-.235-.318-.443-.346-.719-.042-.29.332-.608.636-.912.94-.608.608-1.272.677-1.755.18-.457-.47-.401-1.106.18-1.7.234-.249.483-.484.732-.733.608-.608.608-.608-.042-1.133-2.184-1.728-4.602-2.944-7.325-3.566-.76-.166-1.534-.276-2.308-.415-.595-.11-.926.028-.83.733.056.4.028.83 0 1.244-.041.732-.47 1.175-1.091 1.175-.622-.014-1.065-.484-1.078-1.189-.014-.484-.028-.968 0-1.451.027-.429-.125-.567-.553-.525-2.06.193-4.036.69-5.916 1.548-.29.138-.58.29-.87.4-.65.25-1.19.042-1.452-.511s-.083-1.12.525-1.451a17.464 17.464 0 013.58-1.438c6.786-1.824 13.061-.663 18.576 3.732 5.128 4.077 7.533 9.564 7.657 15.231z"/><path d="M33.544 22.79c.47.027 1.01.055 1.493.276.525.235.843.055 1.203-.304 1.561-1.59 3.15-3.166 4.727-4.741.552-.54 1.05-.622 1.534-.29.608.428.65 1.16.041 1.782-1.354 1.383-2.723 2.737-4.091 4.105-.014.014-.028.028-.055.042-.816.608-1.05 1.258-.747 2.363.885 3.235-1.99 5.902-5.335 5.018-.76-.194-1.257-.152-1.783.456-.47.539-1.16.525-1.603.096-.47-.456-.47-1.147.097-1.644.553-.47.608-.885.373-1.59-.968-2.86 1.023-5.542 4.146-5.57zm-.069 6.274c1.3.014 2.184-.815 2.184-2.046 0-1.202-.843-2.031-2.1-2.059-1.3-.027-2.212.788-2.226 2.004-.028 1.23.843 2.087 2.142 2.101zm-21.589-3.151h10.505c.456 0 .884.041 1.174.428.456.595.18 1.465-.539 1.673-.262.083-.539.083-.815.083H1.27c-.774-.028-1.299-.498-1.285-1.148.028-.594.567-1.036 1.313-1.036h10.587zm4.009 6.496h7.878c.967 0 1.45.345 1.465 1.078.014.732-.456 1.106-1.424 1.106H7.588c-.664-.07-1.106-.512-1.106-1.106 0-.58.47-1.037 1.134-1.064.787-.028 1.561-.014 2.35-.014h5.929zm0-10.795H7.892c-.885 0-1.396-.4-1.41-1.078-.014-.636.567-1.105 1.382-1.12h16.02c.884 0 1.354.402 1.34 1.12-.014.691-.47 1.065-1.327 1.065-2.667.013-5.335.013-8.002.013zm4.008 19.461H14.25c-.747 0-1.175-.332-1.286-.899-.124-.704.415-1.257 1.258-1.271 1.866-.014 3.718 0 5.584 0h5.653c.843 0 1.299.373 1.313 1.078.014.663-.47 1.092-1.3 1.106-1.851-.014-3.704-.014-5.57-.014zm-.056-25.943H14.32c-.843 0-1.355-.387-1.369-1.036-.013-.678.512-1.148 1.355-1.148H25.5c.83 0 1.272.415 1.258 1.12-.014.705-.415 1.05-1.244 1.05-1.893.014-3.773.014-5.667.014z"/></g><defs><clipPath id="clip0_2001_405"><path fill="#fff" transform="translate(0 6.48)" d="M0 0h54v41.049H0z"/></clipPath></defs></svg>