<svg width="54" height="54" fill="none" xmlns="http://www.w3.org/2000/svg"><g clip-path="url(#clip0_2001_385)" fill="#AC2A21"><path d="M43.976 0c.398.269.635.635.807 1.087.732 1.948 1.496 3.874 2.217 5.822.688 1.861-.054 3.82-1.722 4.638-1.722.84-3.702.323-4.735-1.27-.624-.958-.796-2.023-.409-3.088.786-2.174 1.647-4.316 2.464-6.479.119-.323.41-.484.614-.72.258.01.516.01.764.01zm-.28 4.154h-.13c-.43 1.13-.87 2.26-1.301 3.39-.043.096-.075.204-.108.301-.183.656.033 1.302.538 1.668.56.398 1.292.398 1.851 0a1.435 1.435 0 00.538-1.668c-.43-1.238-.925-2.464-1.388-3.691zm-21.372 7.985c-.71.043-1.356.258-2.001.43a23.54 23.54 0 00-3.734 1.367c-.248.107-.377.237-.42.538-.312 2.357-2.497 3.734-4.789 3.045-.226-.064-.355-.032-.527.119-2.981 2.604-5.123 5.778-6.522 9.459-.064.161-.204.355-.064.495.14.14.334.01.506-.022.452-.086.914-.204 1.377-.258.624-.065 1.109.334 1.184.915.064.506-.29 1.011-.861 1.13-1.205.258-2.41.549-3.594.904-.904.269-1.593-.398-1.345-1.324.936-3.562 2.518-6.812 4.831-9.696.85-1.065 1.765-2.077 2.82-2.96.226-.182.237-.333.107-.591-.538-1.012-.527-2.056-.118-3.12.775-1.992 1.539-3.972 2.303-5.963.194-.495.473-.839 1.044-.85.592-.01.893.334 1.087.861.613 1.647 1.259 3.272 1.872 4.918.13.355.27.42.624.27A25.422 25.422 0 0123.25 9.75c.409-.054.592-.194.56-.635-.087-1.14.053-2.228.979-3.056 1.011-.894 2.173-1.098 3.4-.582 1.173.485 1.797 1.432 1.905 2.702.043.473-.15 1.076.14 1.399.29.333.904.204 1.377.3 5.618 1.066 10.482 3.584 14.474 7.706 3.089 3.185 5.09 6.984 6.263 11.245.13.463.086.861-.258 1.184-.344.323-.753.355-1.205.205-2.701-.883-5.478-1.26-8.308-1.206-.355.011-.775-.053-1.055.108-.365.215-.021.646-.01.968.01 2.056-1.41 3.66-3.455 3.82-1.83.14-3.551-1.28-3.799-3.206-.064-.517-.269-.721-.753-.84-1.496-.365-3.002-.667-4.552-.796-.495-.043-.602.119-.602.592.01 6.597-.022 13.193.032 19.8.021 2.228-1.388 3.843-3.035 4.327-2.582.764-5.294-1.162-5.38-3.82-.022-.775.344-1.238 1-1.27.657-.022 1.066.398 1.13 1.173.086 1.054.872 1.861 1.884 1.958.968.086 1.893-.549 2.173-1.485.076-.258.076-.527.076-.796 0-6.65 0-13.301.01-19.962 0-.495-.15-.603-.613-.57-2.098.16-4.165.494-6.166 1.15-.43.14-.829.173-1.26.022-.914-.322-1.861-.516-2.808-.742-.7-.162-1.044-.657-.915-1.28.108-.571.657-.905 1.324-.776.635.119 1.259.27 1.883.442.42.118.517 0 .549-.41.215-2.948.635-5.875 1.356-8.748.57-2.25 1.313-4.434 2.636-6.37.065.01.065-.044.097-.162zm4.638 14.764c2.303.032 4.596.302 6.834.915.312.086.527.118.473-.334-.452-3.637-1.054-7.231-2.4-10.664-.624-1.614-1.388-3.153-2.744-4.305-1.345-1.151-3.11-1.097-4.358.14-.936.926-1.539 2.066-2.023 3.272-1.453 3.626-2.002 7.457-2.367 11.31-.054.527.215.463.548.376 1.991-.462 3.993-.678 6.037-.71zm9.083-2.238c.043-.043.086-.054.097-.086.215-.528.42-1.066.624-1.604.194-.516.441-.947 1.087-.947.56 0 .86.259 1.14.958.453 1.173.915 2.335 1.335 3.519.15.409.333.549.775.506a25.74 25.74 0 018.114.592c.15.032.344.129.452-.022.097-.14-.011-.312-.065-.463-1.087-2.927-2.658-5.563-4.8-7.823-3.357-3.54-7.425-5.865-12.17-7.006-.248-.064-.506-.183-.829-.096 2.604 3.766 3.433 8.114 4.24 12.472zm1.84 1.334c-.506 1.324-.98 2.518-1.42 3.724-.27.742-.065 1.388.505 1.818.57.42 1.26.42 1.84-.01.55-.41.754-1.098.485-1.83-.441-1.194-.904-2.367-1.41-3.702zM12.628 9.933c-.613 1.291-1.205 2.55-1.57 3.885-.173.645.14 1.194.71 1.55.527.333 1.097.333 1.614-.022.57-.388.871-.969.656-1.625-.42-1.281-.925-2.53-1.41-3.788zm14.313-.388c1.151 0 1.151 0 1.098-1.076-.033-.646-.495-1.12-1.077-1.108-.57.01-1.011.462-1.043 1.087-.065 1.097-.065 1.097 1.022 1.097z"/><path d="M12.123 27.99a1.04 1.04 0 01-1.044 1.055c-.57-.011-1.066-.495-1.066-1.055 0-.56.506-1.055 1.066-1.055.57-.01 1.044.474 1.044 1.055z"/></g><defs><clipPath id="clip0_2001_385"><path fill="#fff" transform="translate(1.512)" d="M0 0h50.933v54H0z"/></clipPath></defs></svg>