<svg width="54" height="54" fill="none" xmlns="http://www.w3.org/2000/svg"><g clip-path="url(#clip0_2001_429)"><g clip-path="url(#clip1_2001_429)" fill="#AC2A21"><path d="M30.334 45.013H22.53c-.689 0-1.32.161-1.894.551-.333.218-.413.413-.08.7.264.218.493.471.734.723.46.494.448.942-.057 1.447-1.722 1.733-3.455 3.466-5.188 5.199-.517.505-.987.482-1.538-.07l-7.506-7.505-6.496-6.496c-.677-.677-.677-1.056 0-1.733 1.664-1.665 3.317-3.329 4.981-4.981.631-.62 1.033-.632 1.653 0a4962.04 4962.04 0 0110.995 10.995c.08.08.172.149.24.252.345.505.655.482 1.137.092.907-.734 1.997-.998 3.168-.987 4.912.011 9.836-.034 14.748.023 2.892.034 4.935-1.285 6.519-3.58 2.49-3.628 5.004-7.232 7.506-10.847.287-.413.494-.86.62-1.343.275-1.044-.058-1.974-.93-2.56-.86-.573-1.997-.584-2.777.104-.93.827-1.78 1.733-2.663 2.605-.953.942-1.894 1.894-2.846 2.835-.31.299-.655.46-1.09.253-.368-.184-.54-.46-.54-.872 0-.276.15-.47.321-.643 1.756-1.756 3.5-3.535 5.28-5.268 1.492-1.458 3.73-1.618 5.428-.436 1.619 1.125 2.158 3.248 1.332 5.176-.46 1.067-1.194 1.963-1.837 2.904-2.054 2.995-4.143 5.968-6.209 8.952-1.308 1.905-2.926 3.431-5.176 4.143a8.275 8.275 0 01-2.479.379c-2.502-.012-5.027-.012-7.552-.012zM6.266 34.673c-.08.057-.172.126-.252.206-1.182 1.17-2.353 2.353-3.535 3.524-.252.24-.184.401.034.608.62.597 1.217 1.216 1.825 1.825 3.535 3.523 7.059 7.058 10.582 10.582.207.206.356.447.689.114a161.997 161.997 0 013.432-3.454c.31-.31.287-.482-.012-.77-1.676-1.652-3.328-3.316-4.992-4.98l-7.3-7.3c-.126-.137-.23-.321-.47-.355zm20.9-9.493c-6.381 0-11.66-4.498-12.625-10.65-.47-3.041.127-5.888 1.733-8.527.39-.643.861-.792 1.366-.494.482.287.551.815.161 1.446-3.282 5.406-1.285 12.43 4.338 15.265 6.669 3.363 14.703-.941 15.563-8.356.517-4.395-1.618-8.585-5.474-10.73-3.765-2.09-8.528-1.676-11.96 1.044-.562.447-1.101.436-1.457-.035-.333-.447-.218-.964.321-1.388 7.621-6.015 18.857-1.63 20.35 7.942.906 5.819-2.468 11.603-8 13.703a11.6 11.6 0 01-2.319.632c-.723.103-1.446.183-1.997.149z"/><path d="M26.375 28.773c3.19 0 6.392-.011 9.583 0 2.628.012 4.648 2.123 4.568 4.729-.07 2.25-2.043 4.258-4.293 4.28-3.351.035-6.69.012-10.042.012-.643 0-.999-.355-.987-.93.011-.562.378-.883 1.044-.883 3.248 0 6.508 0 9.756-.012 1.033 0 1.86-.447 2.364-1.365.494-.907.482-1.837-.057-2.732-.586-.964-1.504-1.297-2.583-1.297-4.453 0-8.917-.011-13.37 0-1.929 0-3.857-.034-5.797.035-1.859.068-3.385.837-4.717 2.088-.183.173-.355.345-.55.505-.46.38-.907.368-1.274-.034-.356-.379-.356-.884.034-1.285 1.412-1.4 3.007-2.48 4.981-2.904a9.669 9.669 0 011.986-.23c3.11.023 6.232.023 9.354.023zM25.238 9.882c-.011.987.608 1.71 1.63 1.79.941.08 1.813.276 2.525.941 1.962 1.802 1.469 4.901-.976 5.98-.39.172-.562.367-.516.792.046.436.023.884 0 1.32-.023.55-.402.907-.907.907-.516 0-.872-.356-.907-.907a1.197 1.197 0 010-.287c.15-1.01-.057-1.733-1.147-2.227-1.033-.47-1.435-1.538-1.55-2.662-.057-.586.299-1.068.815-1.125.505-.058.93.333 1.01.941.16 1.148.838 1.779 1.883 1.733.883-.046 1.572-.689 1.652-1.538.092-.998-.436-1.779-1.354-1.974-.367-.08-.758-.069-1.136-.15-1.596-.344-2.698-1.583-2.87-3.236-.149-1.423.677-2.88 2.09-3.5.493-.218.653-.47.607-.976a8.43 8.43 0 010-1.205c.023-.55.39-.907.907-.907s.884.356.907.907c.023.494.023.999 0 1.492-.023.321.103.46.402.574 1.365.55 2.1 1.595 2.272 3.041.08.666-.23 1.137-.769 1.206-.585.068-.976-.299-1.044-1.01-.08-.815-.551-1.424-1.24-1.619a1.841 1.841 0 00-1.985.666c-.23.321-.299.666-.299 1.033z"/></g></g><defs><clipPath id="clip0_2001_429"><path fill="#fff" d="M0 0h54v54H0z"/></clipPath><clipPath id="clip1_2001_429"><path fill="#fff" d="M0 0h54v54H0z"/></clipPath></defs></svg>