<svg width="466" height="411" fill="none" xmlns="http://www.w3.org/2000/svg"><g clip-path="url(#clip0_2003_77813)"><mask id="mask0_2003_77813" style="mask-type:luminance" maskUnits="userSpaceOnUse" x="0" y="254" width="466" height="232"><path d="M466 485.471H0V264.302l16.852 15.596 35.504-12.382 20.64 21.833 43.267-19.092 9.941 13.705 26.983-18.431 23.48 16.918 27.362-21.266 27.646 27.788L264.243 254l17.8 30.529 28.024-13.705 24.9 12.949 18.841-17.297 34.746 26.276 24.711-36.956 27.835 26.653 24.9-18.147v221.169z" fill="#fff"/></mask><g mask="url(#mask0_2003_77813)"><path d="M11.74 264.775h23.764l-11.835 11.814-11.929-11.814z" fill="#F4F4F4"/></g><mask id="mask1_2003_77813" style="mask-type:luminance" maskUnits="userSpaceOnUse" x="0" y="254" width="466" height="232"><path d="M466 485.471H0V264.302l16.852 15.596 35.504-12.382 20.64 21.833 43.267-19.092 9.941 13.705 26.983-18.431 23.48 16.918 27.362-21.266 27.646 27.788L264.243 254l17.8 30.529 28.024-13.705 24.9 12.949 18.841-17.297 34.746 26.276 24.711-36.956 27.835 26.653 24.9-18.147v221.169z" fill="#fff"/></mask><g mask="url(#mask1_2003_77813)"><path d="M58.89 264.775h37.112l-18.556 18.431-18.557-18.431z" fill="#F4F4F4"/></g><mask id="mask2_2003_77813" style="mask-type:luminance" maskUnits="userSpaceOnUse" x="0" y="254" width="466" height="232"><path d="M466 485.471H0V264.302l16.852 15.596 35.504-12.382 20.64 21.833 43.267-19.092 9.941 13.705 26.983-18.431 23.48 16.918 27.362-21.266 27.646 27.788L264.243 254l17.8 30.529 28.024-13.705 24.9 12.949 18.841-17.297 34.746 26.276 24.711-36.956 27.835 26.653 24.9-18.147v221.169z" fill="#fff"/></mask><g mask="url(#mask2_2003_77813)"><path d="M143.057 264.775l-11.835 11.814-11.834-11.814h23.669z" fill="#F4F4F4"/></g><mask id="mask3_2003_77813" style="mask-type:luminance" maskUnits="userSpaceOnUse" x="0" y="254" width="466" height="232"><path d="M466 485.471H0V264.302l16.852 15.596 35.504-12.382 20.64 21.833 43.267-19.092 9.941 13.705 26.983-18.431 23.48 16.918 27.362-21.266 27.646 27.788L264.243 254l17.8 30.529 28.024-13.705 24.9 12.949 18.841-17.297 34.746 26.276 24.711-36.956 27.835 26.653 24.9-18.147v221.169z" fill="#fff"/></mask><g mask="url(#mask3_2003_77813)"><path d="M119.293 288.404l-41.847 41.871-41.942-41.871 11.74-11.626 30.202 30.151 30.202-30.151 11.645 11.626z" fill="#F4F4F4"/></g><mask id="mask4_2003_77813" style="mask-type:luminance" maskUnits="userSpaceOnUse" x="0" y="254" width="466" height="232"><path d="M466 485.471H0V264.302l16.852 15.596 35.504-12.382 20.64 21.833 43.267-19.092 9.941 13.705 26.983-18.431 23.48 16.918 27.362-21.266 27.646 27.788L264.243 254l17.8 30.529 28.024-13.705 24.9 12.949 18.841-17.297 34.746 26.276 24.711-36.956 27.835 26.653 24.9-18.147v221.169z" fill="#fff"/></mask><g mask="url(#mask4_2003_77813)"><path d="M167.199 264.775h23.764l-11.834 11.814-11.93-11.814z" fill="#F4F4F4"/></g><mask id="mask5_2003_77813" style="mask-type:luminance" maskUnits="userSpaceOnUse" x="0" y="254" width="466" height="232"><path d="M466 485.471H0V264.302l16.852 15.596 35.504-12.382 20.64 21.833 43.267-19.092 9.941 13.705 26.983-18.431 23.48 16.918 27.362-21.266 27.646 27.788L264.243 254l17.8 30.529 28.024-13.705 24.9 12.949 18.841-17.297 34.746 26.276 24.711-36.956 27.835 26.653 24.9-18.147v221.169z" fill="#fff"/></mask><g mask="url(#mask5_2003_77813)"><path d="M214.349 264.775h37.018l-18.462 18.431-18.556-18.431z" fill="#F4F4F4"/></g><mask id="mask6_2003_77813" style="mask-type:luminance" maskUnits="userSpaceOnUse" x="0" y="254" width="466" height="232"><path d="M466 485.471H0V264.302l16.852 15.596 35.504-12.382 20.64 21.833 43.267-19.092 9.941 13.705 26.983-18.431 23.48 16.918 27.362-21.266 27.646 27.788L264.243 254l17.8 30.529 28.024-13.705 24.9 12.949 18.841-17.297 34.746 26.276 24.711-36.956 27.835 26.653 24.9-18.147v221.169z" fill="#fff"/></mask><g mask="url(#mask6_2003_77813)"><path d="M298.516 264.775l-11.834 11.814-11.93-11.814h23.764z" fill="#F4F4F4"/></g><mask id="mask7_2003_77813" style="mask-type:luminance" maskUnits="userSpaceOnUse" x="0" y="254" width="466" height="232"><path d="M466 485.471H0V264.302l16.852 15.596 35.504-12.382 20.64 21.833 43.267-19.092 9.941 13.705 26.983-18.431 23.48 16.918 27.362-21.266 27.646 27.788L264.243 254l17.8 30.529 28.024-13.705 24.9 12.949 18.841-17.297 34.746 26.276 24.711-36.956 27.835 26.653 24.9-18.147v221.169z" fill="#fff"/></mask><g mask="url(#mask7_2003_77813)"><path d="M274.752 288.404l-41.847 41.871-41.942-41.871 11.74-11.626 30.202 30.151 30.202-30.151 11.645 11.626z" fill="#F4F4F4"/></g><mask id="mask8_2003_77813" style="mask-type:luminance" maskUnits="userSpaceOnUse" x="0" y="254" width="466" height="232"><path d="M466 485.471H0V264.302l16.852 15.596 35.504-12.382 20.64 21.833 43.267-19.092 9.941 13.705 26.983-18.431 23.48 16.918 27.362-21.266 27.646 27.788L264.243 254l17.8 30.529 28.024-13.705 24.9 12.949 18.841-17.297 34.746 26.276 24.711-36.956 27.835 26.653 24.9-18.147v221.169z" fill="#fff"/></mask><g mask="url(#mask8_2003_77813)"><path d="M322.659 264.775h23.764l-11.929 11.814-11.835-11.814z" fill="#F4F4F4"/></g><mask id="mask9_2003_77813" style="mask-type:luminance" maskUnits="userSpaceOnUse" x="0" y="254" width="466" height="232"><path d="M466 485.471H0V264.302l16.852 15.596 35.504-12.382 20.64 21.833 43.267-19.092 9.941 13.705 26.983-18.431 23.48 16.918 27.362-21.266 27.646 27.788L264.243 254l17.8 30.529 28.024-13.705 24.9 12.949 18.841-17.297 34.746 26.276 24.711-36.956 27.835 26.653 24.9-18.147v221.169z" fill="#fff"/></mask><g mask="url(#mask9_2003_77813)"><path d="M369.808 264.775h37.019l-18.557 18.431-18.462-18.431z" fill="#F4F4F4"/></g><mask id="mask10_2003_77813" style="mask-type:luminance" maskUnits="userSpaceOnUse" x="0" y="254" width="466" height="232"><path d="M466 485.471H0V264.302l16.852 15.596 35.504-12.382 20.64 21.833 43.267-19.092 9.941 13.705 26.983-18.431 23.48 16.918 27.362-21.266 27.646 27.788L264.243 254l17.8 30.529 28.024-13.705 24.9 12.949 18.841-17.297 34.746 26.276 24.711-36.956 27.835 26.653 24.9-18.147v221.169z" fill="#fff"/></mask><g mask="url(#mask10_2003_77813)"><path d="M453.976 264.775l-11.929 11.814-11.835-11.814h23.764z" fill="#F4F4F4"/></g><mask id="mask11_2003_77813" style="mask-type:luminance" maskUnits="userSpaceOnUse" x="0" y="254" width="466" height="232"><path d="M466 485.471H0V264.302l16.852 15.596 35.504-12.382 20.64 21.833 43.267-19.092 9.941 13.705 26.983-18.431 23.48 16.918 27.362-21.266 27.646 27.788L264.243 254l17.8 30.529 28.024-13.705 24.9 12.949 18.841-17.297 34.746 26.276 24.711-36.956 27.835 26.653 24.9-18.147v221.169z" fill="#fff"/></mask><g mask="url(#mask11_2003_77813)"><path d="M430.212 288.404l-41.942 41.871-41.847-41.871 11.645-11.626 30.202 30.151 30.297-30.151 11.645 11.626z" fill="#F4F4F4"/></g><mask id="mask12_2003_77813" style="mask-type:luminance" maskUnits="userSpaceOnUse" x="0" y="254" width="466" height="232"><path d="M466 485.471H0V264.302l16.852 15.596 35.504-12.382 20.64 21.833 43.267-19.092 9.941 13.705 26.983-18.431 23.48 16.918 27.362-21.266 27.646 27.788L264.243 254l17.8 30.529 28.024-13.705 24.9 12.949 18.841-17.297 34.746 26.276 24.711-36.956 27.835 26.653 24.9-18.147v221.169z" fill="#fff"/></mask><g mask="url(#mask12_2003_77813)"><path d="M143.057 419.876l-11.835 11.91-23.574-23.535-30.202 30.151-30.202-30.151-23.575 23.535-11.929-11.91 35.03-34.971 30.676 30.624 30.58-30.624 35.031 34.971z" fill="#F4F4F4"/></g><mask id="mask13_2003_77813" style="mask-type:luminance" maskUnits="userSpaceOnUse" x="0" y="254" width="466" height="232"><path d="M466 485.471H0V264.302l16.852 15.596 35.504-12.382 20.64 21.833 43.267-19.092 9.941 13.705 26.983-18.431 23.48 16.918 27.362-21.266 27.646 27.788L264.243 254l17.8 30.529 28.024-13.705 24.9 12.949 18.841-17.297 34.746 26.276 24.711-36.956 27.835 26.653 24.9-18.147v221.169z" fill="#fff"/></mask><g mask="url(#mask13_2003_77813)"><path d="M96.192 373.091l-11.835 11.814-6.911-6.805-6.912 6.805L58.7 373.091l18.746-18.715 18.746 18.715z" fill="#F4F4F4"/></g><mask id="mask14_2003_77813" style="mask-type:luminance" maskUnits="userSpaceOnUse" x="0" y="254" width="466" height="232"><path d="M466 485.471H0V264.302l16.852 15.596 35.504-12.382 20.64 21.833 43.267-19.092 9.941 13.705 26.983-18.431 23.48 16.918 27.362-21.266 27.646 27.788L264.243 254l17.8 30.529 28.024-13.705 24.9 12.949 18.841-17.297 34.746 26.276 24.711-36.956 27.835 26.653 24.9-18.147v221.169z" fill="#fff"/></mask><g mask="url(#mask14_2003_77813)"><path d="M298.516 419.876l-11.834 11.91-23.575-23.535-30.202 30.151-30.202-30.151-23.574 23.535-11.93-11.91 35.031-34.971 30.675 30.624 30.581-30.624 35.03 34.971z" fill="#F4F4F4"/></g><mask id="mask15_2003_77813" style="mask-type:luminance" maskUnits="userSpaceOnUse" x="0" y="254" width="466" height="232"><path d="M466 485.471H0V264.302l16.852 15.596 35.504-12.382 20.64 21.833 43.267-19.092 9.941 13.705 26.983-18.431 23.48 16.918 27.362-21.266 27.646 27.788L264.243 254l17.8 30.529 28.024-13.705 24.9 12.949 18.841-17.297 34.746 26.276 24.711-36.956 27.835 26.653 24.9-18.147v221.169z" fill="#fff"/></mask><g mask="url(#mask15_2003_77813)"><path d="M251.651 373.091l-11.929 11.814-6.817-6.805-6.911 6.805-11.835-11.814 18.746-18.715 18.746 18.715z" fill="#F4F4F4"/></g><mask id="mask16_2003_77813" style="mask-type:luminance" maskUnits="userSpaceOnUse" x="0" y="254" width="466" height="232"><path d="M466 485.471H0V264.302l16.852 15.596 35.504-12.382 20.64 21.833 43.267-19.092 9.941 13.705 26.983-18.431 23.48 16.918 27.362-21.266 27.646 27.788L264.243 254l17.8 30.529 28.024-13.705 24.9 12.949 18.841-17.297 34.746 26.276 24.711-36.956 27.835 26.653 24.9-18.147v221.169z" fill="#fff"/></mask><g mask="url(#mask16_2003_77813)"><path d="M453.976 419.876l-11.929 11.91-23.48-23.535-30.297 30.151-30.202-30.151-23.574 23.535-11.835-11.91 35.031-34.971 30.58 30.624 30.676-30.624 35.03 34.971z" fill="#F4F4F4"/></g><mask id="mask17_2003_77813" style="mask-type:luminance" maskUnits="userSpaceOnUse" x="0" y="254" width="466" height="232"><path d="M466 485.471H0V264.302l16.852 15.596 35.504-12.382 20.64 21.833 43.267-19.092 9.941 13.705 26.983-18.431 23.48 16.918 27.362-21.266 27.646 27.788L264.243 254l17.8 30.529 28.024-13.705 24.9 12.949 18.841-17.297 34.746 26.276 24.711-36.956 27.835 26.653 24.9-18.147v221.169z" fill="#fff"/></mask><g mask="url(#mask17_2003_77813)"><path d="M407.111 373.091l-11.929 11.814-6.912-6.805-6.816 6.805-11.93-11.814 18.746-18.715 18.841 18.715z" fill="#F4F4F4"/></g><mask id="mask18_2003_77813" style="mask-type:luminance" maskUnits="userSpaceOnUse" x="0" y="254" width="466" height="232"><path d="M466 485.471H0V264.302l16.852 15.596 35.504-12.382 20.64 21.833 43.267-19.092 9.941 13.705 26.983-18.431 23.48 16.918 27.362-21.266 27.646 27.788L264.243 254l17.8 30.529 28.024-13.705 24.9 12.949 18.841-17.297 34.746 26.276 24.711-36.956 27.835 26.653 24.9-18.147v221.169z" fill="#fff"/></mask><g mask="url(#mask18_2003_77813)"><path d="M65.327 342.373l-11.834 11.815-23.575-23.535-30.202 30.151v-22.873l30.58-30.529 35.031 34.971z" fill="#F4F4F4"/></g><mask id="mask19_2003_77813" style="mask-type:luminance" maskUnits="userSpaceOnUse" x="0" y="254" width="466" height="232"><path d="M466 485.471H0V264.302l16.852 15.596 35.504-12.382 20.64 21.833 43.267-19.092 9.941 13.705 26.983-18.431 23.48 16.918 27.362-21.266 27.646 27.788L264.243 254l17.8 30.529 28.024-13.705 24.9 12.949 18.841-17.297 34.746 26.276 24.711-36.956 27.835 26.653 24.9-18.147v221.169z" fill="#fff"/></mask><g mask="url(#mask19_2003_77813)"><path d="M41.658 366.002L-.284 407.873v-23.346l30.202-30.151 11.74 11.626z" fill="#F4F4F4"/></g><mask id="mask20_2003_77813" style="mask-type:luminance" maskUnits="userSpaceOnUse" x="0" y="254" width="466" height="232"><path d="M466 485.471H0V264.302l16.852 15.596 35.504-12.382 20.64 21.833 43.267-19.092 9.941 13.705 26.983-18.431 23.48 16.918 27.362-21.266 27.646 27.788L264.243 254l17.8 30.529 28.024-13.705 24.9 12.949 18.841-17.297 34.746 26.276 24.711-36.956 27.835 26.653 24.9-18.147v221.169z" fill="#fff"/></mask><g mask="url(#mask20_2003_77813)"><path d="M18.462 295.493L6.627 307.402l-6.91-6.9v-23.724l18.745 18.715z" fill="#F4F4F4"/></g><mask id="mask21_2003_77813" style="mask-type:luminance" maskUnits="userSpaceOnUse" x="0" y="254" width="466" height="232"><path d="M466 485.471H0V264.302l16.852 15.596 35.504-12.382 20.64 21.833 43.267-19.092 9.941 13.705 26.983-18.431 23.48 16.918 27.362-21.266 27.646 27.788L264.243 254l17.8 30.529 28.024-13.705 24.9 12.949 18.841-17.297 34.746 26.276 24.711-36.956 27.835 26.653 24.9-18.147v221.169z" fill="#fff"/></mask><g mask="url(#mask21_2003_77813)"><path d="M220.787 342.373l-11.835 11.815-23.574-23.535-30.202 30.151-30.202-30.151-23.575 23.535-11.93-11.815 35.031-34.971 30.676 30.529 30.58-30.529 35.031 34.971z" fill="#F4F4F4"/></g><mask id="mask22_2003_77813" style="mask-type:luminance" maskUnits="userSpaceOnUse" x="0" y="254" width="466" height="232"><path d="M466 485.471H0V264.302l16.852 15.596 35.504-12.382 20.64 21.833 43.267-19.092 9.941 13.705 26.983-18.431 23.48 16.918 27.362-21.266 27.646 27.788L264.243 254l17.8 30.529 28.024-13.705 24.9 12.949 18.841-17.297 34.746 26.276 24.711-36.956 27.835 26.653 24.9-18.147v221.169z" fill="#fff"/></mask><g mask="url(#mask22_2003_77813)"><path d="M197.023 366.002l-41.847 41.871-41.942-41.871 11.74-11.626 30.202 30.151 30.201-30.151 11.646 11.626z" fill="#F4F4F4"/></g><mask id="mask23_2003_77813" style="mask-type:luminance" maskUnits="userSpaceOnUse" x="0" y="254" width="466" height="232"><path d="M466 485.471H0V264.302l16.852 15.596 35.504-12.382 20.64 21.833 43.267-19.092 9.941 13.705 26.983-18.431 23.48 16.918 27.362-21.266 27.646 27.788L264.243 254l17.8 30.529 28.024-13.705 24.9 12.949 18.841-17.297 34.746 26.276 24.711-36.956 27.835 26.653 24.9-18.147v221.169z" fill="#fff"/></mask><g mask="url(#mask23_2003_77813)"><path d="M173.922 295.493l-11.93 11.909-6.817-6.9-6.911 6.9-11.835-11.909 18.746-18.715 18.747 18.715z" fill="#F4F4F4"/></g><mask id="mask24_2003_77813" style="mask-type:luminance" maskUnits="userSpaceOnUse" x="0" y="254" width="466" height="232"><path d="M466 485.471H0V264.302l16.852 15.596 35.504-12.382 20.64 21.833 43.267-19.092 9.941 13.705 26.983-18.431 23.48 16.918 27.362-21.266 27.646 27.788L264.243 254l17.8 30.529 28.024-13.705 24.9 12.949 18.841-17.297 34.746 26.276 24.711-36.956 27.835 26.653 24.9-18.147v221.169z" fill="#fff"/></mask><g mask="url(#mask24_2003_77813)"><path d="M376.246 342.373l-11.834 11.815-23.575-23.535-30.202 30.151-30.297-30.151-23.479 23.535-11.93-11.815 35.031-34.971 30.675 30.529 30.581-30.529 35.03 34.971z" fill="#F4F4F4"/></g><mask id="mask25_2003_77813" style="mask-type:luminance" maskUnits="userSpaceOnUse" x="0" y="254" width="466" height="232"><path d="M466 485.471H0V264.302l16.852 15.596 35.504-12.382 20.64 21.833 43.267-19.092 9.941 13.705 26.983-18.431 23.48 16.918 27.362-21.266 27.646 27.788L264.243 254l17.8 30.529 28.024-13.705 24.9 12.949 18.841-17.297 34.746 26.276 24.711-36.956 27.835 26.653 24.9-18.147v221.169z" fill="#fff"/></mask><g mask="url(#mask25_2003_77813)"><path d="M352.482 366.002l-41.847 41.871-41.942-41.871 11.646-11.626 30.296 30.151 30.202-30.151 11.645 11.626z" fill="#F4F4F4"/></g><mask id="mask26_2003_77813" style="mask-type:luminance" maskUnits="userSpaceOnUse" x="0" y="254" width="466" height="232"><path d="M466 485.471H0V264.302l16.852 15.596 35.504-12.382 20.64 21.833 43.267-19.092 9.941 13.705 26.983-18.431 23.48 16.918 27.362-21.266 27.646 27.788L264.243 254l17.8 30.529 28.024-13.705 24.9 12.949 18.841-17.297 34.746 26.276 24.711-36.956 27.835 26.653 24.9-18.147v221.169z" fill="#fff"/></mask><g mask="url(#mask26_2003_77813)"><path d="M329.381 295.493l-11.929 11.909-6.817-6.9-6.911 6.9-11.93-11.909 18.841-18.715 18.746 18.715z" fill="#F4F4F4"/></g><mask id="mask27_2003_77813" style="mask-type:luminance" maskUnits="userSpaceOnUse" x="0" y="254" width="466" height="232"><path d="M466 485.471H0V264.302l16.852 15.596 35.504-12.382 20.64 21.833 43.267-19.092 9.941 13.705 26.983-18.431 23.48 16.918 27.362-21.266 27.646 27.788L264.243 254l17.8 30.529 28.024-13.705 24.9 12.949 18.841-17.297 34.746 26.276 24.711-36.956 27.835 26.653 24.9-18.147v221.169z" fill="#fff"/></mask><g mask="url(#mask27_2003_77813)"><path d="M466 337.931v22.873l-30.202-30.151-23.575 23.535-11.834-11.815 35.03-34.971L466 337.931z" fill="#F4F4F4"/></g><mask id="mask28_2003_77813" style="mask-type:luminance" maskUnits="userSpaceOnUse" x="0" y="254" width="466" height="232"><path d="M466 485.471H0V264.302l16.852 15.596 35.504-12.382 20.64 21.833 43.267-19.092 9.941 13.705 26.983-18.431 23.48 16.918 27.362-21.266 27.646 27.788L264.243 254l17.8 30.529 28.024-13.705 24.9 12.949 18.841-17.297 34.746 26.276 24.711-36.956 27.835 26.653 24.9-18.147v221.169z" fill="#fff"/></mask><g mask="url(#mask28_2003_77813)"><path d="M466 384.527v23.346l-41.847-41.871 11.645-11.626L466 384.527z" fill="#F4F4F4"/></g><mask id="mask29_2003_77813" style="mask-type:luminance" maskUnits="userSpaceOnUse" x="0" y="254" width="466" height="232"><path d="M466 485.471H0V264.302l16.852 15.596 35.504-12.382 20.64 21.833 43.267-19.092 9.941 13.705 26.983-18.431 23.48 16.918 27.362-21.266 27.646 27.788L264.243 254l17.8 30.529 28.024-13.705 24.9 12.949 18.841-17.297 34.746 26.276 24.711-36.956 27.835 26.653 24.9-18.147v221.169z" fill="#fff"/></mask><g mask="url(#mask29_2003_77813)"><path d="M466 276.778v23.724l-6.817 6.9-11.929-11.909L466 276.778z" fill="#F4F4F4"/></g></g><g clip-path="url(#clip1_2003_77813)"><mask id="mask30_2003_77813" style="mask-type:luminance" maskUnits="userSpaceOnUse" x="0" y="99" width="466" height="232"><path d="M466 330.471H0V109.302l16.852 15.596 35.504-12.382 20.64 21.833 43.267-19.092 9.941 13.705 26.983-18.431 23.48 16.918 27.362-21.266 27.646 27.788L264.243 99l17.8 30.529 28.024-13.705 24.9 12.949 18.841-17.297 34.746 26.276 24.711-36.956 27.835 26.653 24.9-18.147v221.169z" fill="#fff"/></mask><g mask="url(#mask30_2003_77813)"><path d="M11.74 109.775h23.764l-11.835 11.814-11.929-11.814z" fill="#F4F4F4"/></g><mask id="mask31_2003_77813" style="mask-type:luminance" maskUnits="userSpaceOnUse" x="0" y="99" width="466" height="232"><path d="M466 330.471H0V109.302l16.852 15.596 35.504-12.382 20.64 21.833 43.267-19.092 9.941 13.705 26.983-18.431 23.48 16.918 27.362-21.266 27.646 27.788L264.243 99l17.8 30.529 28.024-13.705 24.9 12.949 18.841-17.297 34.746 26.276 24.711-36.956 27.835 26.653 24.9-18.147v221.169z" fill="#fff"/></mask><g mask="url(#mask31_2003_77813)"><path d="M58.89 109.775h37.112l-18.556 18.431-18.557-18.431z" fill="#F4F4F4"/></g><mask id="mask32_2003_77813" style="mask-type:luminance" maskUnits="userSpaceOnUse" x="0" y="99" width="466" height="232"><path d="M466 330.471H0V109.302l16.852 15.596 35.504-12.382 20.64 21.833 43.267-19.092 9.941 13.705 26.983-18.431 23.48 16.918 27.362-21.266 27.646 27.788L264.243 99l17.8 30.529 28.024-13.705 24.9 12.949 18.841-17.297 34.746 26.276 24.711-36.956 27.835 26.653 24.9-18.147v221.169z" fill="#fff"/></mask><g mask="url(#mask32_2003_77813)"><path d="M143.057 109.775l-11.835 11.814-11.834-11.814h23.669z" fill="#F4F4F4"/></g><mask id="mask33_2003_77813" style="mask-type:luminance" maskUnits="userSpaceOnUse" x="0" y="99" width="466" height="232"><path d="M466 330.471H0V109.302l16.852 15.596 35.504-12.382 20.64 21.833 43.267-19.092 9.941 13.705 26.983-18.431 23.48 16.918 27.362-21.266 27.646 27.788L264.243 99l17.8 30.529 28.024-13.705 24.9 12.949 18.841-17.297 34.746 26.276 24.711-36.956 27.835 26.653 24.9-18.147v221.169z" fill="#fff"/></mask><g mask="url(#mask33_2003_77813)"><path d="M119.293 133.404l-41.847 41.871-41.942-41.871 11.74-11.626 30.202 30.151 30.202-30.151 11.645 11.626z" fill="#F4F4F4"/></g><mask id="mask34_2003_77813" style="mask-type:luminance" maskUnits="userSpaceOnUse" x="0" y="99" width="466" height="232"><path d="M466 330.471H0V109.302l16.852 15.596 35.504-12.382 20.64 21.833 43.267-19.092 9.941 13.705 26.983-18.431 23.48 16.918 27.362-21.266 27.646 27.788L264.243 99l17.8 30.529 28.024-13.705 24.9 12.949 18.841-17.297 34.746 26.276 24.711-36.956 27.835 26.653 24.9-18.147v221.169z" fill="#fff"/></mask><g mask="url(#mask34_2003_77813)"><path d="M167.199 109.775h23.764l-11.834 11.814-11.93-11.814z" fill="#F4F4F4"/></g><mask id="mask35_2003_77813" style="mask-type:luminance" maskUnits="userSpaceOnUse" x="0" y="99" width="466" height="232"><path d="M466 330.471H0V109.302l16.852 15.596 35.504-12.382 20.64 21.833 43.267-19.092 9.941 13.705 26.983-18.431 23.48 16.918 27.362-21.266 27.646 27.788L264.243 99l17.8 30.529 28.024-13.705 24.9 12.949 18.841-17.297 34.746 26.276 24.711-36.956 27.835 26.653 24.9-18.147v221.169z" fill="#fff"/></mask><g mask="url(#mask35_2003_77813)"><path d="M214.349 109.775h37.018l-18.462 18.431-18.556-18.431z" fill="#F4F4F4"/></g><mask id="mask36_2003_77813" style="mask-type:luminance" maskUnits="userSpaceOnUse" x="0" y="99" width="466" height="232"><path d="M466 330.471H0V109.302l16.852 15.596 35.504-12.382 20.64 21.833 43.267-19.092 9.941 13.705 26.983-18.431 23.48 16.918 27.362-21.266 27.646 27.788L264.243 99l17.8 30.529 28.024-13.705 24.9 12.949 18.841-17.297 34.746 26.276 24.711-36.956 27.835 26.653 24.9-18.147v221.169z" fill="#fff"/></mask><g mask="url(#mask36_2003_77813)"><path d="M298.516 109.775l-11.834 11.814-11.93-11.814h23.764z" fill="#F4F4F4"/></g><mask id="mask37_2003_77813" style="mask-type:luminance" maskUnits="userSpaceOnUse" x="0" y="99" width="466" height="232"><path d="M466 330.471H0V109.302l16.852 15.596 35.504-12.382 20.64 21.833 43.267-19.092 9.941 13.705 26.983-18.431 23.48 16.918 27.362-21.266 27.646 27.788L264.243 99l17.8 30.529 28.024-13.705 24.9 12.949 18.841-17.297 34.746 26.276 24.711-36.956 27.835 26.653 24.9-18.147v221.169z" fill="#fff"/></mask><g mask="url(#mask37_2003_77813)"><path d="M274.752 133.404l-41.847 41.871-41.942-41.871 11.74-11.626 30.202 30.151 30.202-30.151 11.645 11.626z" fill="#F4F4F4"/></g><mask id="mask38_2003_77813" style="mask-type:luminance" maskUnits="userSpaceOnUse" x="0" y="99" width="466" height="232"><path d="M466 330.471H0V109.302l16.852 15.596 35.504-12.382 20.64 21.833 43.267-19.092 9.941 13.705 26.983-18.431 23.48 16.918 27.362-21.266 27.646 27.788L264.243 99l17.8 30.529 28.024-13.705 24.9 12.949 18.841-17.297 34.746 26.276 24.711-36.956 27.835 26.653 24.9-18.147v221.169z" fill="#fff"/></mask><g mask="url(#mask38_2003_77813)"><path d="M322.659 109.775h23.764l-11.929 11.814-11.835-11.814z" fill="#F4F4F4"/></g><mask id="mask39_2003_77813" style="mask-type:luminance" maskUnits="userSpaceOnUse" x="0" y="99" width="466" height="232"><path d="M466 330.471H0V109.302l16.852 15.596 35.504-12.382 20.64 21.833 43.267-19.092 9.941 13.705 26.983-18.431 23.48 16.918 27.362-21.266 27.646 27.788L264.243 99l17.8 30.529 28.024-13.705 24.9 12.949 18.841-17.297 34.746 26.276 24.711-36.956 27.835 26.653 24.9-18.147v221.169z" fill="#fff"/></mask><g mask="url(#mask39_2003_77813)"><path d="M369.808 109.775h37.019l-18.557 18.431-18.462-18.431z" fill="#F4F4F4"/></g><mask id="mask40_2003_77813" style="mask-type:luminance" maskUnits="userSpaceOnUse" x="0" y="99" width="466" height="232"><path d="M466 330.471H0V109.302l16.852 15.596 35.504-12.382 20.64 21.833 43.267-19.092 9.941 13.705 26.983-18.431 23.48 16.918 27.362-21.266 27.646 27.788L264.243 99l17.8 30.529 28.024-13.705 24.9 12.949 18.841-17.297 34.746 26.276 24.711-36.956 27.835 26.653 24.9-18.147v221.169z" fill="#fff"/></mask><g mask="url(#mask40_2003_77813)"><path d="M453.976 109.775l-11.929 11.814-11.835-11.814h23.764z" fill="#F4F4F4"/></g><mask id="mask41_2003_77813" style="mask-type:luminance" maskUnits="userSpaceOnUse" x="0" y="99" width="466" height="232"><path d="M466 330.471H0V109.302l16.852 15.596 35.504-12.382 20.64 21.833 43.267-19.092 9.941 13.705 26.983-18.431 23.48 16.918 27.362-21.266 27.646 27.788L264.243 99l17.8 30.529 28.024-13.705 24.9 12.949 18.841-17.297 34.746 26.276 24.711-36.956 27.835 26.653 24.9-18.147v221.169z" fill="#fff"/></mask><g mask="url(#mask41_2003_77813)"><path d="M430.212 133.404l-41.942 41.871-41.847-41.871 11.645-11.626 30.202 30.151 30.297-30.151 11.645 11.626z" fill="#F4F4F4"/></g><mask id="mask42_2003_77813" style="mask-type:luminance" maskUnits="userSpaceOnUse" x="0" y="99" width="466" height="232"><path d="M466 330.471H0V109.302l16.852 15.596 35.504-12.382 20.64 21.833 43.267-19.092 9.941 13.705 26.983-18.431 23.48 16.918 27.362-21.266 27.646 27.788L264.243 99l17.8 30.529 28.024-13.705 24.9 12.949 18.841-17.297 34.746 26.276 24.711-36.956 27.835 26.653 24.9-18.147v221.169z" fill="#fff"/></mask><g mask="url(#mask42_2003_77813)"><path d="M143.057 264.876l-11.835 11.91-23.574-23.535-30.202 30.151-30.202-30.151-23.575 23.535-11.929-11.91 35.03-34.971 30.676 30.624 30.58-30.624 35.031 34.971z" fill="#F4F4F4"/></g><mask id="mask43_2003_77813" style="mask-type:luminance" maskUnits="userSpaceOnUse" x="0" y="99" width="466" height="232"><path d="M466 330.471H0V109.302l16.852 15.596 35.504-12.382 20.64 21.833 43.267-19.092 9.941 13.705 26.983-18.431 23.48 16.918 27.362-21.266 27.646 27.788L264.243 99l17.8 30.529 28.024-13.705 24.9 12.949 18.841-17.297 34.746 26.276 24.711-36.956 27.835 26.653 24.9-18.147v221.169z" fill="#fff"/></mask><g mask="url(#mask43_2003_77813)"><path d="M119.293 288.6l-41.847 41.871L35.504 288.6l11.74-11.625 30.202 30.15 30.202-30.15 11.645 11.625z" fill="#F4F4F4"/></g><mask id="mask44_2003_77813" style="mask-type:luminance" maskUnits="userSpaceOnUse" x="0" y="99" width="466" height="232"><path d="M466 330.471H0V109.302l16.852 15.596 35.504-12.382 20.64 21.833 43.267-19.092 9.941 13.705 26.983-18.431 23.48 16.918 27.362-21.266 27.646 27.788L264.243 99l17.8 30.529 28.024-13.705 24.9 12.949 18.841-17.297 34.746 26.276 24.711-36.956 27.835 26.653 24.9-18.147v221.169z" fill="#fff"/></mask><g mask="url(#mask44_2003_77813)"><path d="M96.192 218.091l-11.835 11.814-6.911-6.805-6.912 6.805L58.7 218.091l18.746-18.715 18.746 18.715z" fill="#F4F4F4"/></g><mask id="mask45_2003_77813" style="mask-type:luminance" maskUnits="userSpaceOnUse" x="0" y="99" width="466" height="232"><path d="M466 330.471H0V109.302l16.852 15.596 35.504-12.382 20.64 21.833 43.267-19.092 9.941 13.705 26.983-18.431 23.48 16.918 27.362-21.266 27.646 27.788L264.243 99l17.8 30.529 28.024-13.705 24.9 12.949 18.841-17.297 34.746 26.276 24.711-36.956 27.835 26.653 24.9-18.147v221.169z" fill="#fff"/></mask><g mask="url(#mask45_2003_77813)"><path d="M298.516 264.876l-11.834 11.91-23.575-23.535-30.202 30.151-30.202-30.151-23.574 23.535-11.93-11.91 35.031-34.971 30.675 30.624 30.581-30.624 35.03 34.971z" fill="#F4F4F4"/></g><mask id="mask46_2003_77813" style="mask-type:luminance" maskUnits="userSpaceOnUse" x="0" y="99" width="466" height="232"><path d="M466 330.471H0V109.302l16.852 15.596 35.504-12.382 20.64 21.833 43.267-19.092 9.941 13.705 26.983-18.431 23.48 16.918 27.362-21.266 27.646 27.788L264.243 99l17.8 30.529 28.024-13.705 24.9 12.949 18.841-17.297 34.746 26.276 24.711-36.956 27.835 26.653 24.9-18.147v221.169z" fill="#fff"/></mask><g mask="url(#mask46_2003_77813)"><path d="M274.752 288.6l-41.847 41.871-41.942-41.871 11.74-11.625 30.202 30.15 30.202-30.15 11.645 11.625z" fill="#F4F4F4"/></g><mask id="mask47_2003_77813" style="mask-type:luminance" maskUnits="userSpaceOnUse" x="0" y="99" width="466" height="232"><path d="M466 330.471H0V109.302l16.852 15.596 35.504-12.382 20.64 21.833 43.267-19.092 9.941 13.705 26.983-18.431 23.48 16.918 27.362-21.266 27.646 27.788L264.243 99l17.8 30.529 28.024-13.705 24.9 12.949 18.841-17.297 34.746 26.276 24.711-36.956 27.835 26.653 24.9-18.147v221.169z" fill="#fff"/></mask><g mask="url(#mask47_2003_77813)"><path d="M251.651 218.091l-11.929 11.814-6.817-6.805-6.911 6.805-11.835-11.814 18.746-18.715 18.746 18.715z" fill="#F4F4F4"/></g><mask id="mask48_2003_77813" style="mask-type:luminance" maskUnits="userSpaceOnUse" x="0" y="99" width="466" height="232"><path d="M466 330.471H0V109.302l16.852 15.596 35.504-12.382 20.64 21.833 43.267-19.092 9.941 13.705 26.983-18.431 23.48 16.918 27.362-21.266 27.646 27.788L264.243 99l17.8 30.529 28.024-13.705 24.9 12.949 18.841-17.297 34.746 26.276 24.711-36.956 27.835 26.653 24.9-18.147v221.169z" fill="#fff"/></mask><g mask="url(#mask48_2003_77813)"><path d="M453.976 264.876l-11.929 11.91-23.48-23.535-30.297 30.151-30.202-30.151-23.574 23.535-11.835-11.91 35.031-34.971 30.58 30.624 30.676-30.624 35.03 34.971z" fill="#F4F4F4"/></g><mask id="mask49_2003_77813" style="mask-type:luminance" maskUnits="userSpaceOnUse" x="0" y="99" width="466" height="232"><path d="M466 330.471H0V109.302l16.852 15.596 35.504-12.382 20.64 21.833 43.267-19.092 9.941 13.705 26.983-18.431 23.48 16.918 27.362-21.266 27.646 27.788L264.243 99l17.8 30.529 28.024-13.705 24.9 12.949 18.841-17.297 34.746 26.276 24.711-36.956 27.835 26.653 24.9-18.147v221.169z" fill="#fff"/></mask><g mask="url(#mask49_2003_77813)"><path d="M430.212 288.6l-41.942 41.871-41.847-41.871 11.645-11.625 30.202 30.15 30.297-30.15 11.645 11.625z" fill="#F4F4F4"/></g><mask id="mask50_2003_77813" style="mask-type:luminance" maskUnits="userSpaceOnUse" x="0" y="99" width="466" height="232"><path d="M466 330.471H0V109.302l16.852 15.596 35.504-12.382 20.64 21.833 43.267-19.092 9.941 13.705 26.983-18.431 23.48 16.918 27.362-21.266 27.646 27.788L264.243 99l17.8 30.529 28.024-13.705 24.9 12.949 18.841-17.297 34.746 26.276 24.711-36.956 27.835 26.653 24.9-18.147v221.169z" fill="#fff"/></mask><g mask="url(#mask50_2003_77813)"><path d="M407.111 218.091l-11.929 11.814-6.912-6.805-6.816 6.805-11.93-11.814 18.746-18.715 18.841 18.715z" fill="#F4F4F4"/></g><mask id="mask51_2003_77813" style="mask-type:luminance" maskUnits="userSpaceOnUse" x="0" y="99" width="466" height="232"><path d="M466 330.471H0V109.302l16.852 15.596 35.504-12.382 20.64 21.833 43.267-19.092 9.941 13.705 26.983-18.431 23.48 16.918 27.362-21.266 27.646 27.788L264.243 99l17.8 30.529 28.024-13.705 24.9 12.949 18.841-17.297 34.746 26.276 24.711-36.956 27.835 26.653 24.9-18.147v221.169z" fill="#fff"/></mask><g mask="url(#mask51_2003_77813)"><path d="M65.327 187.373l-11.834 11.815-23.575-23.535-30.202 30.151v-22.873l30.58-30.529 35.031 34.971z" fill="#F4F4F4"/></g><mask id="mask52_2003_77813" style="mask-type:luminance" maskUnits="userSpaceOnUse" x="0" y="99" width="466" height="232"><path d="M466 330.471H0V109.302l16.852 15.596 35.504-12.382 20.64 21.833 43.267-19.092 9.941 13.705 26.983-18.431 23.48 16.918 27.362-21.266 27.646 27.788L264.243 99l17.8 30.529 28.024-13.705 24.9 12.949 18.841-17.297 34.746 26.276 24.711-36.956 27.835 26.653 24.9-18.147v221.169z" fill="#fff"/></mask><g mask="url(#mask52_2003_77813)"><path d="M41.658 211.002L-.284 252.873v-23.346l30.202-30.151 11.74 11.626z" fill="#F4F4F4"/></g><mask id="mask53_2003_77813" style="mask-type:luminance" maskUnits="userSpaceOnUse" x="0" y="99" width="466" height="232"><path d="M466 330.471H0V109.302l16.852 15.596 35.504-12.382 20.64 21.833 43.267-19.092 9.941 13.705 26.983-18.431 23.48 16.918 27.362-21.266 27.646 27.788L264.243 99l17.8 30.529 28.024-13.705 24.9 12.949 18.841-17.297 34.746 26.276 24.711-36.956 27.835 26.653 24.9-18.147v221.169z" fill="#fff"/></mask><g mask="url(#mask53_2003_77813)"><path d="M18.462 140.493L6.627 152.402l-6.91-6.9v-23.724l18.745 18.715z" fill="#F4F4F4"/></g><mask id="mask54_2003_77813" style="mask-type:luminance" maskUnits="userSpaceOnUse" x="0" y="99" width="466" height="232"><path d="M466 330.471H0V109.302l16.852 15.596 35.504-12.382 20.64 21.833 43.267-19.092 9.941 13.705 26.983-18.431 23.48 16.918 27.362-21.266 27.646 27.788L264.243 99l17.8 30.529 28.024-13.705 24.9 12.949 18.841-17.297 34.746 26.276 24.711-36.956 27.835 26.653 24.9-18.147v221.169z" fill="#fff"/></mask><g mask="url(#mask54_2003_77813)"><path d="M220.787 187.373l-11.835 11.815-23.574-23.535-30.202 30.151-30.202-30.151-23.575 23.535-11.93-11.815 35.031-34.971 30.676 30.529 30.58-30.529 35.031 34.971z" fill="#F4F4F4"/></g><mask id="mask55_2003_77813" style="mask-type:luminance" maskUnits="userSpaceOnUse" x="0" y="99" width="466" height="232"><path d="M466 330.471H0V109.302l16.852 15.596 35.504-12.382 20.64 21.833 43.267-19.092 9.941 13.705 26.983-18.431 23.48 16.918 27.362-21.266 27.646 27.788L264.243 99l17.8 30.529 28.024-13.705 24.9 12.949 18.841-17.297 34.746 26.276 24.711-36.956 27.835 26.653 24.9-18.147v221.169z" fill="#fff"/></mask><g mask="url(#mask55_2003_77813)"><path d="M197.023 211.002l-41.847 41.871-41.942-41.871 11.74-11.626 30.202 30.151 30.201-30.151 11.646 11.626z" fill="#F4F4F4"/></g><mask id="mask56_2003_77813" style="mask-type:luminance" maskUnits="userSpaceOnUse" x="0" y="99" width="466" height="232"><path d="M466 330.471H0V109.302l16.852 15.596 35.504-12.382 20.64 21.833 43.267-19.092 9.941 13.705 26.983-18.431 23.48 16.918 27.362-21.266 27.646 27.788L264.243 99l17.8 30.529 28.024-13.705 24.9 12.949 18.841-17.297 34.746 26.276 24.711-36.956 27.835 26.653 24.9-18.147v221.169z" fill="#fff"/></mask><g mask="url(#mask56_2003_77813)"><path d="M173.922 140.493l-11.93 11.909-6.817-6.9-6.911 6.9-11.835-11.909 18.746-18.715 18.747 18.715z" fill="#F4F4F4"/></g><mask id="mask57_2003_77813" style="mask-type:luminance" maskUnits="userSpaceOnUse" x="0" y="99" width="466" height="232"><path d="M466 330.471H0V109.302l16.852 15.596 35.504-12.382 20.64 21.833 43.267-19.092 9.941 13.705 26.983-18.431 23.48 16.918 27.362-21.266 27.646 27.788L264.243 99l17.8 30.529 28.024-13.705 24.9 12.949 18.841-17.297 34.746 26.276 24.711-36.956 27.835 26.653 24.9-18.147v221.169z" fill="#fff"/></mask><g mask="url(#mask57_2003_77813)"><path d="M376.246 187.373l-11.834 11.815-23.575-23.535-30.202 30.151-30.297-30.151-23.479 23.535-11.93-11.815 35.031-34.971 30.675 30.529 30.581-30.529 35.03 34.971z" fill="#F4F4F4"/></g><mask id="mask58_2003_77813" style="mask-type:luminance" maskUnits="userSpaceOnUse" x="0" y="99" width="466" height="232"><path d="M466 330.471H0V109.302l16.852 15.596 35.504-12.382 20.64 21.833 43.267-19.092 9.941 13.705 26.983-18.431 23.48 16.918 27.362-21.266 27.646 27.788L264.243 99l17.8 30.529 28.024-13.705 24.9 12.949 18.841-17.297 34.746 26.276 24.711-36.956 27.835 26.653 24.9-18.147v221.169z" fill="#fff"/></mask><g mask="url(#mask58_2003_77813)"><path d="M352.482 211.002l-41.847 41.871-41.942-41.871 11.646-11.626 30.296 30.151 30.202-30.151 11.645 11.626z" fill="#F4F4F4"/></g><mask id="mask59_2003_77813" style="mask-type:luminance" maskUnits="userSpaceOnUse" x="0" y="99" width="466" height="232"><path d="M466 330.471H0V109.302l16.852 15.596 35.504-12.382 20.64 21.833 43.267-19.092 9.941 13.705 26.983-18.431 23.48 16.918 27.362-21.266 27.646 27.788L264.243 99l17.8 30.529 28.024-13.705 24.9 12.949 18.841-17.297 34.746 26.276 24.711-36.956 27.835 26.653 24.9-18.147v221.169z" fill="#fff"/></mask><g mask="url(#mask59_2003_77813)"><path d="M329.381 140.493l-11.929 11.909-6.817-6.9-6.911 6.9-11.93-11.909 18.841-18.715 18.746 18.715z" fill="#F4F4F4"/></g><mask id="mask60_2003_77813" style="mask-type:luminance" maskUnits="userSpaceOnUse" x="0" y="99" width="466" height="232"><path d="M466 330.471H0V109.302l16.852 15.596 35.504-12.382 20.64 21.833 43.267-19.092 9.941 13.705 26.983-18.431 23.48 16.918 27.362-21.266 27.646 27.788L264.243 99l17.8 30.529 28.024-13.705 24.9 12.949 18.841-17.297 34.746 26.276 24.711-36.956 27.835 26.653 24.9-18.147v221.169z" fill="#fff"/></mask><g mask="url(#mask60_2003_77813)"><path d="M65.327 342.475l-11.834 11.909-23.575-23.535L-.284 361v-22.873l30.58-30.624 35.031 34.972z" fill="#F4F4F4"/></g><mask id="mask61_2003_77813" style="mask-type:luminance" maskUnits="userSpaceOnUse" x="0" y="99" width="466" height="232"><path d="M466 330.471H0V109.302l16.852 15.596 35.504-12.382 20.64 21.833 43.267-19.092 9.941 13.705 26.983-18.431 23.48 16.918 27.362-21.266 27.646 27.788L264.243 99l17.8 30.529 28.024-13.705 24.9 12.949 18.841-17.297 34.746 26.276 24.711-36.956 27.835 26.653 24.9-18.147v221.169z" fill="#fff"/></mask><g mask="url(#mask61_2003_77813)"><path d="M18.462 295.689L6.627 307.503l-6.91-6.805v-23.723l18.745 18.714z" fill="#F4F4F4"/></g><mask id="mask62_2003_77813" style="mask-type:luminance" maskUnits="userSpaceOnUse" x="0" y="99" width="466" height="232"><path d="M466 330.471H0V109.302l16.852 15.596 35.504-12.382 20.64 21.833 43.267-19.092 9.941 13.705 26.983-18.431 23.48 16.918 27.362-21.266 27.646 27.788L264.243 99l17.8 30.529 28.024-13.705 24.9 12.949 18.841-17.297 34.746 26.276 24.711-36.956 27.835 26.653 24.9-18.147v221.169z" fill="#fff"/></mask><g mask="url(#mask62_2003_77813)"><path d="M220.787 342.475l-11.835 11.909-23.574-23.535L155.176 361l-30.202-30.151-23.575 23.535-11.93-11.909 35.031-34.972 30.676 30.624 30.58-30.624 35.031 34.972z" fill="#F4F4F4"/></g><mask id="mask63_2003_77813" style="mask-type:luminance" maskUnits="userSpaceOnUse" x="0" y="99" width="466" height="232"><path d="M466 330.471H0V109.302l16.852 15.596 35.504-12.382 20.64 21.833 43.267-19.092 9.941 13.705 26.983-18.431 23.48 16.918 27.362-21.266 27.646 27.788L264.243 99l17.8 30.529 28.024-13.705 24.9 12.949 18.841-17.297 34.746 26.276 24.711-36.956 27.835 26.653 24.9-18.147v221.169z" fill="#fff"/></mask><g mask="url(#mask63_2003_77813)"><path d="M173.922 295.689l-11.93 11.814-6.817-6.805-6.911 6.805-11.835-11.814 18.746-18.714 18.747 18.714z" fill="#F4F4F4"/></g><mask id="mask64_2003_77813" style="mask-type:luminance" maskUnits="userSpaceOnUse" x="0" y="99" width="466" height="232"><path d="M466 330.471H0V109.302l16.852 15.596 35.504-12.382 20.64 21.833 43.267-19.092 9.941 13.705 26.983-18.431 23.48 16.918 27.362-21.266 27.646 27.788L264.243 99l17.8 30.529 28.024-13.705 24.9 12.949 18.841-17.297 34.746 26.276 24.711-36.956 27.835 26.653 24.9-18.147v221.169z" fill="#fff"/></mask><g mask="url(#mask64_2003_77813)"><path d="M376.246 342.475l-11.834 11.909-23.575-23.535L310.635 361l-30.297-30.151-23.479 23.535-11.93-11.909 35.031-34.972 30.675 30.624 30.581-30.624 35.03 34.972z" fill="#F4F4F4"/></g><mask id="mask65_2003_77813" style="mask-type:luminance" maskUnits="userSpaceOnUse" x="0" y="99" width="466" height="232"><path d="M466 330.471H0V109.302l16.852 15.596 35.504-12.382 20.64 21.833 43.267-19.092 9.941 13.705 26.983-18.431 23.48 16.918 27.362-21.266 27.646 27.788L264.243 99l17.8 30.529 28.024-13.705 24.9 12.949 18.841-17.297 34.746 26.276 24.711-36.956 27.835 26.653 24.9-18.147v221.169z" fill="#fff"/></mask><g mask="url(#mask65_2003_77813)"><path d="M329.381 295.689l-11.929 11.814-6.817-6.805-6.911 6.805-11.93-11.814 18.841-18.714 18.746 18.714z" fill="#F4F4F4"/></g><mask id="mask66_2003_77813" style="mask-type:luminance" maskUnits="userSpaceOnUse" x="0" y="99" width="466" height="232"><path d="M466 330.471H0V109.302l16.852 15.596 35.504-12.382 20.64 21.833 43.267-19.092 9.941 13.705 26.983-18.431 23.48 16.918 27.362-21.266 27.646 27.788L264.243 99l17.8 30.529 28.024-13.705 24.9 12.949 18.841-17.297 34.746 26.276 24.711-36.956 27.835 26.653 24.9-18.147v221.169z" fill="#fff"/></mask><g mask="url(#mask66_2003_77813)"><path d="M466 182.931v22.873l-30.202-30.151-23.575 23.535-11.834-11.815 35.03-34.971L466 182.931z" fill="#F4F4F4"/></g><mask id="mask67_2003_77813" style="mask-type:luminance" maskUnits="userSpaceOnUse" x="0" y="99" width="466" height="232"><path d="M466 330.471H0V109.302l16.852 15.596 35.504-12.382 20.64 21.833 43.267-19.092 9.941 13.705 26.983-18.431 23.48 16.918 27.362-21.266 27.646 27.788L264.243 99l17.8 30.529 28.024-13.705 24.9 12.949 18.841-17.297 34.746 26.276 24.711-36.956 27.835 26.653 24.9-18.147v221.169z" fill="#fff"/></mask><g mask="url(#mask67_2003_77813)"><path d="M466 229.527v23.346l-41.847-41.871 11.645-11.626L466 229.527z" fill="#F4F4F4"/></g><mask id="mask68_2003_77813" style="mask-type:luminance" maskUnits="userSpaceOnUse" x="0" y="99" width="466" height="232"><path d="M466 330.471H0V109.302l16.852 15.596 35.504-12.382 20.64 21.833 43.267-19.092 9.941 13.705 26.983-18.431 23.48 16.918 27.362-21.266 27.646 27.788L264.243 99l17.8 30.529 28.024-13.705 24.9 12.949 18.841-17.297 34.746 26.276 24.711-36.956 27.835 26.653 24.9-18.147v221.169z" fill="#fff"/></mask><g mask="url(#mask68_2003_77813)"><path d="M466 121.778v23.724l-6.817 6.9-11.929-11.909L466 121.778z" fill="#F4F4F4"/></g><mask id="mask69_2003_77813" style="mask-type:luminance" maskUnits="userSpaceOnUse" x="0" y="99" width="466" height="232"><path d="M466 330.471H0V109.302l16.852 15.596 35.504-12.382 20.64 21.833 43.267-19.092 9.941 13.705 26.983-18.431 23.48 16.918 27.362-21.266 27.646 27.788L264.243 99l17.8 30.529 28.024-13.705 24.9 12.949 18.841-17.297 34.746 26.276 24.711-36.956 27.835 26.653 24.9-18.147v221.169z" fill="#fff"/></mask><g mask="url(#mask69_2003_77813)"><path d="M466 338.127V361l-30.202-30.151-23.575 23.535-11.834-11.909 35.03-34.972L466 338.127z" fill="#F4F4F4"/></g><mask id="mask70_2003_77813" style="mask-type:luminance" maskUnits="userSpaceOnUse" x="0" y="99" width="466" height="232"><path d="M466 330.471H0V109.302l16.852 15.596 35.504-12.382 20.64 21.833 43.267-19.092 9.941 13.705 26.983-18.431 23.48 16.918 27.362-21.266 27.646 27.788L264.243 99l17.8 30.529 28.024-13.705 24.9 12.949 18.841-17.297 34.746 26.276 24.711-36.956 27.835 26.653 24.9-18.147v221.169z" fill="#fff"/></mask><g mask="url(#mask70_2003_77813)"><path d="M466 276.975v23.723l-6.817 6.805-11.929-11.814L466 276.975z" fill="#F4F4F4"/></g></g><g clip-path="url(#clip2_2003_77813)"><mask id="mask71_2003_77813" style="mask-type:luminance" maskUnits="userSpaceOnUse" x="0" y="-56" width="466" height="232"><path d="M466 175.471H0V-45.698l16.852 15.596 35.504-12.382 20.64 21.833 43.267-19.092 9.941 13.705 26.983-18.431 23.48 16.919 27.362-21.267 27.646 27.788L264.243-56l17.8 30.529 28.024-13.705 24.9 12.949 18.841-17.297 34.746 26.276 24.711-36.956L441.1-27.55 466-45.698v221.169z" fill="#fff"/></mask><g mask="url(#mask71_2003_77813)"><path d="M119.293-21.596l-41.847 41.87-41.942-41.87 11.74-11.626L77.446-3.07l30.202-30.15 11.645 11.625z" fill="#F4F4F4"/></g><mask id="mask72_2003_77813" style="mask-type:luminance" maskUnits="userSpaceOnUse" x="0" y="-56" width="466" height="232"><path d="M466 175.471H0V-45.698l16.852 15.596 35.504-12.382 20.64 21.833 43.267-19.092 9.941 13.705 26.983-18.431 23.48 16.919 27.362-21.267 27.646 27.788L264.243-56l17.8 30.529 28.024-13.705 24.9 12.949 18.841-17.297 34.746 26.276 24.711-36.956L441.1-27.55 466-45.698v221.169z" fill="#fff"/></mask><g mask="url(#mask72_2003_77813)"><path d="M274.752-21.596l-41.847 41.87-41.942-41.87 11.74-11.626L232.905-3.07l30.202-30.15 11.645 11.625z" fill="#F4F4F4"/></g><mask id="mask73_2003_77813" style="mask-type:luminance" maskUnits="userSpaceOnUse" x="0" y="-56" width="466" height="232"><path d="M466 175.471H0V-45.698l16.852 15.596 35.504-12.382 20.64 21.833 43.267-19.092 9.941 13.705 26.983-18.431 23.48 16.919 27.362-21.267 27.646 27.788L264.243-56l17.8 30.529 28.024-13.705 24.9 12.949 18.841-17.297 34.746 26.276 24.711-36.956L441.1-27.55 466-45.698v221.169z" fill="#fff"/></mask><g mask="url(#mask73_2003_77813)"><path d="M430.212-21.596l-41.942 41.87-41.847-41.87 11.645-11.626L388.27-3.07l30.297-30.15 11.645 11.625z" fill="#F4F4F4"/></g><mask id="mask74_2003_77813" style="mask-type:luminance" maskUnits="userSpaceOnUse" x="0" y="-56" width="466" height="232"><path d="M466 175.471H0V-45.698l16.852 15.596 35.504-12.382 20.64 21.833 43.267-19.092 9.941 13.705 26.983-18.431 23.48 16.919 27.362-21.267 27.646 27.788L264.243-56l17.8 30.529 28.024-13.705 24.9 12.949 18.841-17.297 34.746 26.276 24.711-36.956L441.1-27.55 466-45.698v221.169z" fill="#fff"/></mask><g mask="url(#mask74_2003_77813)"><path d="M143.057 109.876l-11.835 11.91-23.574-23.535-30.202 30.151-30.202-30.151-23.575 23.535-11.929-11.91 35.03-34.97 30.676 30.623 30.58-30.624 35.031 34.971z" fill="#F4F4F4"/></g><mask id="mask75_2003_77813" style="mask-type:luminance" maskUnits="userSpaceOnUse" x="0" y="-56" width="466" height="232"><path d="M466 175.471H0V-45.698l16.852 15.596 35.504-12.382 20.64 21.833 43.267-19.092 9.941 13.705 26.983-18.431 23.48 16.919 27.362-21.267 27.646 27.788L264.243-56l17.8 30.529 28.024-13.705 24.9 12.949 18.841-17.297 34.746 26.276 24.711-36.956L441.1-27.55 466-45.698v221.169z" fill="#fff"/></mask><g mask="url(#mask75_2003_77813)"><path d="M119.293 133.6l-41.847 41.871L35.504 133.6l11.74-11.625 30.202 30.15 30.202-30.15 11.645 11.625z" fill="#F4F4F4"/></g><mask id="mask76_2003_77813" style="mask-type:luminance" maskUnits="userSpaceOnUse" x="0" y="-56" width="466" height="232"><path d="M466 175.471H0V-45.698l16.852 15.596 35.504-12.382 20.64 21.833 43.267-19.092 9.941 13.705 26.983-18.431 23.48 16.919 27.362-21.267 27.646 27.788L264.243-56l17.8 30.529 28.024-13.705 24.9 12.949 18.841-17.297 34.746 26.276 24.711-36.956L441.1-27.55 466-45.698v221.169z" fill="#fff"/></mask><g mask="url(#mask76_2003_77813)"><path d="M96.192 63.09L84.357 74.906 77.446 68.1l-6.912 6.805L58.7 63.091l18.746-18.715 18.746 18.715z" fill="#F4F4F4"/></g><mask id="mask77_2003_77813" style="mask-type:luminance" maskUnits="userSpaceOnUse" x="0" y="-56" width="466" height="232"><path d="M466 175.471H0V-45.698l16.852 15.596 35.504-12.382 20.64 21.833 43.267-19.092 9.941 13.705 26.983-18.431 23.48 16.919 27.362-21.267 27.646 27.788L264.243-56l17.8 30.529 28.024-13.705 24.9 12.949 18.841-17.297 34.746 26.276 24.711-36.956L441.1-27.55 466-45.698v221.169z" fill="#fff"/></mask><g mask="url(#mask77_2003_77813)"><path d="M298.516 109.876l-11.834 11.91-23.575-23.535-30.202 30.151-30.202-30.151-23.574 23.535-11.93-11.91 35.031-34.97 30.675 30.623 30.581-30.624 35.03 34.971z" fill="#F4F4F4"/></g><mask id="mask78_2003_77813" style="mask-type:luminance" maskUnits="userSpaceOnUse" x="0" y="-56" width="466" height="232"><path d="M466 175.471H0V-45.698l16.852 15.596 35.504-12.382 20.64 21.833 43.267-19.092 9.941 13.705 26.983-18.431 23.48 16.919 27.362-21.267 27.646 27.788L264.243-56l17.8 30.529 28.024-13.705 24.9 12.949 18.841-17.297 34.746 26.276 24.711-36.956L441.1-27.55 466-45.698v221.169z" fill="#fff"/></mask><g mask="url(#mask78_2003_77813)"><path d="M274.752 133.6l-41.847 41.871-41.942-41.871 11.74-11.625 30.202 30.15 30.202-30.15 11.645 11.625z" fill="#F4F4F4"/></g><mask id="mask79_2003_77813" style="mask-type:luminance" maskUnits="userSpaceOnUse" x="0" y="-56" width="466" height="232"><path d="M466 175.471H0V-45.698l16.852 15.596 35.504-12.382 20.64 21.833 43.267-19.092 9.941 13.705 26.983-18.431 23.48 16.919 27.362-21.267 27.646 27.788L264.243-56l17.8 30.529 28.024-13.705 24.9 12.949 18.841-17.297 34.746 26.276 24.711-36.956L441.1-27.55 466-45.698v221.169z" fill="#fff"/></mask><g mask="url(#mask79_2003_77813)"><path d="M251.651 63.09l-11.929 11.815-6.817-6.805-6.911 6.805-11.835-11.814 18.746-18.715 18.746 18.715z" fill="#F4F4F4"/></g><mask id="mask80_2003_77813" style="mask-type:luminance" maskUnits="userSpaceOnUse" x="0" y="-56" width="466" height="232"><path d="M466 175.471H0V-45.698l16.852 15.596 35.504-12.382 20.64 21.833 43.267-19.092 9.941 13.705 26.983-18.431 23.48 16.919 27.362-21.267 27.646 27.788L264.243-56l17.8 30.529 28.024-13.705 24.9 12.949 18.841-17.297 34.746 26.276 24.711-36.956L441.1-27.55 466-45.698v221.169z" fill="#fff"/></mask><g mask="url(#mask80_2003_77813)"><path d="M453.976 109.876l-11.929 11.91-23.48-23.535-30.297 30.151-30.202-30.151-23.574 23.535-11.835-11.91 35.031-34.97 30.58 30.623 30.676-30.624 35.03 34.971z" fill="#F4F4F4"/></g><mask id="mask81_2003_77813" style="mask-type:luminance" maskUnits="userSpaceOnUse" x="0" y="-56" width="466" height="232"><path d="M466 175.471H0V-45.698l16.852 15.596 35.504-12.382 20.64 21.833 43.267-19.092 9.941 13.705 26.983-18.431 23.48 16.919 27.362-21.267 27.646 27.788L264.243-56l17.8 30.529 28.024-13.705 24.9 12.949 18.841-17.297 34.746 26.276 24.711-36.956L441.1-27.55 466-45.698v221.169z" fill="#fff"/></mask><g mask="url(#mask81_2003_77813)"><path d="M430.212 133.6l-41.942 41.871-41.847-41.871 11.645-11.625 30.202 30.15 30.297-30.15 11.645 11.625z" fill="#F4F4F4"/></g><mask id="mask82_2003_77813" style="mask-type:luminance" maskUnits="userSpaceOnUse" x="0" y="-56" width="466" height="232"><path d="M466 175.471H0V-45.698l16.852 15.596 35.504-12.382 20.64 21.833 43.267-19.092 9.941 13.705 26.983-18.431 23.48 16.919 27.362-21.267 27.646 27.788L264.243-56l17.8 30.529 28.024-13.705 24.9 12.949 18.841-17.297 34.746 26.276 24.711-36.956L441.1-27.55 466-45.698v221.169z" fill="#fff"/></mask><g mask="url(#mask82_2003_77813)"><path d="M407.111 63.09l-11.929 11.815-6.912-6.805-6.816 6.805-11.93-11.814 18.746-18.715 18.841 18.715z" fill="#F4F4F4"/></g><mask id="mask83_2003_77813" style="mask-type:luminance" maskUnits="userSpaceOnUse" x="0" y="-56" width="466" height="232"><path d="M466 175.471H0V-45.698l16.852 15.596 35.504-12.382 20.64 21.833 43.267-19.092 9.941 13.705 26.983-18.431 23.48 16.919 27.362-21.267 27.646 27.788L264.243-56l17.8 30.529 28.024-13.705 24.9 12.949 18.841-17.297 34.746 26.276 24.711-36.956L441.1-27.55 466-45.698v221.169z" fill="#fff"/></mask><g mask="url(#mask83_2003_77813)"><path d="M65.327 32.373L53.493 44.188 29.918 20.653-.284 50.803V27.932L30.296-2.6l35.031 34.972z" fill="#F4F4F4"/></g><mask id="mask84_2003_77813" style="mask-type:luminance" maskUnits="userSpaceOnUse" x="0" y="-56" width="466" height="232"><path d="M466 175.471H0V-45.698l16.852 15.596 35.504-12.382 20.64 21.833 43.267-19.092 9.941 13.705 26.983-18.431 23.48 16.919 27.362-21.267 27.646 27.788L264.243-56l17.8 30.529 28.024-13.705 24.9 12.949 18.841-17.297 34.746 26.276 24.711-36.956L441.1-27.55 466-45.698v221.169z" fill="#fff"/></mask><g mask="url(#mask84_2003_77813)"><path d="M41.658 56.002L-.284 97.872V74.528l30.202-30.15 11.74 11.625z" fill="#F4F4F4"/></g><mask id="mask85_2003_77813" style="mask-type:luminance" maskUnits="userSpaceOnUse" x="0" y="-56" width="466" height="232"><path d="M466 175.471H0V-45.698l16.852 15.596 35.504-12.382 20.64 21.833 43.267-19.092 9.941 13.705 26.983-18.431 23.48 16.919 27.362-21.267 27.646 27.788L264.243-56l17.8 30.529 28.024-13.705 24.9 12.949 18.841-17.297 34.746 26.276 24.711-36.956L441.1-27.55 466-45.698v221.169z" fill="#fff"/></mask><g mask="url(#mask85_2003_77813)"><path d="M220.787 32.373l-11.835 11.815-23.574-23.535-30.202 30.15-30.202-30.15-23.575 23.535-11.93-11.815L124.5-2.598l30.676 30.529 30.58-30.53 35.031 34.972z" fill="#F4F4F4"/></g><mask id="mask86_2003_77813" style="mask-type:luminance" maskUnits="userSpaceOnUse" x="0" y="-56" width="466" height="232"><path d="M466 175.471H0V-45.698l16.852 15.596 35.504-12.382 20.64 21.833 43.267-19.092 9.941 13.705 26.983-18.431 23.48 16.919 27.362-21.267 27.646 27.788L264.243-56l17.8 30.529 28.024-13.705 24.9 12.949 18.841-17.297 34.746 26.276 24.711-36.956L441.1-27.55 466-45.698v221.169z" fill="#fff"/></mask><g mask="url(#mask86_2003_77813)"><path d="M197.023 56.002l-41.847 41.87-41.942-41.87 11.74-11.626 30.202 30.151 30.201-30.15 11.646 11.625z" fill="#F4F4F4"/></g><mask id="mask87_2003_77813" style="mask-type:luminance" maskUnits="userSpaceOnUse" x="0" y="-56" width="466" height="232"><path d="M466 175.471H0V-45.698l16.852 15.596 35.504-12.382 20.64 21.833 43.267-19.092 9.941 13.705 26.983-18.431 23.48 16.919 27.362-21.267 27.646 27.788L264.243-56l17.8 30.529 28.024-13.705 24.9 12.949 18.841-17.297 34.746 26.276 24.711-36.956L441.1-27.55 466-45.698v221.169z" fill="#fff"/></mask><g mask="url(#mask87_2003_77813)"><path d="M376.246 32.373l-11.834 11.815-23.575-23.535-30.202 30.15-30.297-30.15-23.479 23.535-11.93-11.815L279.96-2.598l30.675 30.529L341.216-2.6l35.03 34.972z" fill="#F4F4F4"/></g><mask id="mask88_2003_77813" style="mask-type:luminance" maskUnits="userSpaceOnUse" x="0" y="-56" width="466" height="232"><path d="M466 175.471H0V-45.698l16.852 15.596 35.504-12.382 20.64 21.833 43.267-19.092 9.941 13.705 26.983-18.431 23.48 16.919 27.362-21.267 27.646 27.788L264.243-56l17.8 30.529 28.024-13.705 24.9 12.949 18.841-17.297 34.746 26.276 24.711-36.956L441.1-27.55 466-45.698v221.169z" fill="#fff"/></mask><g mask="url(#mask88_2003_77813)"><path d="M352.482 56.002l-41.847 41.87-41.942-41.87 11.646-11.626 30.296 30.151 30.202-30.15 11.645 11.625z" fill="#F4F4F4"/></g><mask id="mask89_2003_77813" style="mask-type:luminance" maskUnits="userSpaceOnUse" x="0" y="-56" width="466" height="232"><path d="M466 175.471H0V-45.698l16.852 15.596 35.504-12.382 20.64 21.833 43.267-19.092 9.941 13.705 26.983-18.431 23.48 16.919 27.362-21.267 27.646 27.788L264.243-56l17.8 30.529 28.024-13.705 24.9 12.949 18.841-17.297 34.746 26.276 24.711-36.956L441.1-27.55 466-45.698v221.169z" fill="#fff"/></mask><g mask="url(#mask89_2003_77813)"><path d="M65.327 187.475l-11.834 11.909-23.575-23.535L-.284 206v-22.873l30.58-30.624 35.031 34.972z" fill="#F4F4F4"/></g><mask id="mask90_2003_77813" style="mask-type:luminance" maskUnits="userSpaceOnUse" x="0" y="-56" width="466" height="232"><path d="M466 175.471H0V-45.698l16.852 15.596 35.504-12.382 20.64 21.833 43.267-19.092 9.941 13.705 26.983-18.431 23.48 16.919 27.362-21.267 27.646 27.788L264.243-56l17.8 30.529 28.024-13.705 24.9 12.949 18.841-17.297 34.746 26.276 24.711-36.956L441.1-27.55 466-45.698v221.169z" fill="#fff"/></mask><g mask="url(#mask90_2003_77813)"><path d="M18.462 140.689L6.627 152.503l-6.91-6.805v-23.723l18.745 18.714z" fill="#F4F4F4"/></g><mask id="mask91_2003_77813" style="mask-type:luminance" maskUnits="userSpaceOnUse" x="0" y="-56" width="466" height="232"><path d="M466 175.471H0V-45.698l16.852 15.596 35.504-12.382 20.64 21.833 43.267-19.092 9.941 13.705 26.983-18.431 23.48 16.919 27.362-21.267 27.646 27.788L264.243-56l17.8 30.529 28.024-13.705 24.9 12.949 18.841-17.297 34.746 26.276 24.711-36.956L441.1-27.55 466-45.698v221.169z" fill="#fff"/></mask><g mask="url(#mask91_2003_77813)"><path d="M220.787 187.475l-11.835 11.909-23.574-23.535L155.176 206l-30.202-30.151-23.575 23.535-11.93-11.909 35.031-34.972 30.676 30.624 30.58-30.624 35.031 34.972z" fill="#F4F4F4"/></g><mask id="mask92_2003_77813" style="mask-type:luminance" maskUnits="userSpaceOnUse" x="0" y="-56" width="466" height="232"><path d="M466 175.471H0V-45.698l16.852 15.596 35.504-12.382 20.64 21.833 43.267-19.092 9.941 13.705 26.983-18.431 23.48 16.919 27.362-21.267 27.646 27.788L264.243-56l17.8 30.529 28.024-13.705 24.9 12.949 18.841-17.297 34.746 26.276 24.711-36.956L441.1-27.55 466-45.698v221.169z" fill="#fff"/></mask><g mask="url(#mask92_2003_77813)"><path d="M173.922 140.689l-11.93 11.814-6.817-6.805-6.911 6.805-11.835-11.814 18.746-18.714 18.747 18.714z" fill="#F4F4F4"/></g><mask id="mask93_2003_77813" style="mask-type:luminance" maskUnits="userSpaceOnUse" x="0" y="-56" width="466" height="232"><path d="M466 175.471H0V-45.698l16.852 15.596 35.504-12.382 20.64 21.833 43.267-19.092 9.941 13.705 26.983-18.431 23.48 16.919 27.362-21.267 27.646 27.788L264.243-56l17.8 30.529 28.024-13.705 24.9 12.949 18.841-17.297 34.746 26.276 24.711-36.956L441.1-27.55 466-45.698v221.169z" fill="#fff"/></mask><g mask="url(#mask93_2003_77813)"><path d="M376.246 187.475l-11.834 11.909-23.575-23.535L310.635 206l-30.297-30.151-23.479 23.535-11.93-11.909 35.031-34.972 30.675 30.624 30.581-30.624 35.03 34.972z" fill="#F4F4F4"/></g><mask id="mask94_2003_77813" style="mask-type:luminance" maskUnits="userSpaceOnUse" x="0" y="-56" width="466" height="232"><path d="M466 175.471H0V-45.698l16.852 15.596 35.504-12.382 20.64 21.833 43.267-19.092 9.941 13.705 26.983-18.431 23.48 16.919 27.362-21.267 27.646 27.788L264.243-56l17.8 30.529 28.024-13.705 24.9 12.949 18.841-17.297 34.746 26.276 24.711-36.956L441.1-27.55 466-45.698v221.169z" fill="#fff"/></mask><g mask="url(#mask94_2003_77813)"><path d="M329.381 140.689l-11.929 11.814-6.817-6.805-6.911 6.805-11.93-11.814 18.841-18.714 18.746 18.714z" fill="#F4F4F4"/></g><mask id="mask95_2003_77813" style="mask-type:luminance" maskUnits="userSpaceOnUse" x="0" y="-56" width="466" height="232"><path d="M466 175.471H0V-45.698l16.852 15.596 35.504-12.382 20.64 21.833 43.267-19.092 9.941 13.705 26.983-18.431 23.48 16.919 27.362-21.267 27.646 27.788L264.243-56l17.8 30.529 28.024-13.705 24.9 12.949 18.841-17.297 34.746 26.276 24.711-36.956L441.1-27.55 466-45.698v221.169z" fill="#fff"/></mask><g mask="url(#mask95_2003_77813)"><path d="M466 27.93v22.874l-30.202-30.151-23.575 23.535-11.834-11.815 35.03-34.971L466 27.93z" fill="#F4F4F4"/></g><mask id="mask96_2003_77813" style="mask-type:luminance" maskUnits="userSpaceOnUse" x="0" y="-56" width="466" height="232"><path d="M466 175.471H0V-45.698l16.852 15.596 35.504-12.382 20.64 21.833 43.267-19.092 9.941 13.705 26.983-18.431 23.48 16.919 27.362-21.267 27.646 27.788L264.243-56l17.8 30.529 28.024-13.705 24.9 12.949 18.841-17.297 34.746 26.276 24.711-36.956L441.1-27.55 466-45.698v221.169z" fill="#fff"/></mask><g mask="url(#mask96_2003_77813)"><path d="M466 74.527v23.346l-41.847-41.871 11.645-11.626L466 74.528z" fill="#F4F4F4"/></g><mask id="mask97_2003_77813" style="mask-type:luminance" maskUnits="userSpaceOnUse" x="0" y="-56" width="466" height="232"><path d="M466 175.471H0V-45.698l16.852 15.596 35.504-12.382 20.64 21.833 43.267-19.092 9.941 13.705 26.983-18.431 23.48 16.919 27.362-21.267 27.646 27.788L264.243-56l17.8 30.529 28.024-13.705 24.9 12.949 18.841-17.297 34.746 26.276 24.711-36.956L441.1-27.55 466-45.698v221.169z" fill="#fff"/></mask><g mask="url(#mask97_2003_77813)"><path d="M466 183.127V206l-30.202-30.151-23.575 23.535-11.834-11.909 35.03-34.972L466 183.127z" fill="#F4F4F4"/></g><mask id="mask98_2003_77813" style="mask-type:luminance" maskUnits="userSpaceOnUse" x="0" y="-56" width="466" height="232"><path d="M466 175.471H0V-45.698l16.852 15.596 35.504-12.382 20.64 21.833 43.267-19.092 9.941 13.705 26.983-18.431 23.48 16.919 27.362-21.267 27.646 27.788L264.243-56l17.8 30.529 28.024-13.705 24.9 12.949 18.841-17.297 34.746 26.276 24.711-36.956L441.1-27.55 466-45.698v221.169z" fill="#fff"/></mask><g mask="url(#mask98_2003_77813)"><path d="M466 121.975v23.723l-6.817 6.805-11.929-11.814L466 121.975z" fill="#F4F4F4"/></g></g><defs><clipPath id="clip0_2003_77813"><path fill="#fff" transform="translate(0 254)" d="M0 0h466v262H0z"/></clipPath><clipPath id="clip1_2003_77813"><path fill="#fff" transform="translate(0 99)" d="M0 0h466v262H0z"/></clipPath><clipPath id="clip2_2003_77813"><path fill="#fff" transform="translate(0 -56)" d="M0 0h466v262H0z"/></clipPath></defs></svg>