<svg width="466" height="293" fill="none" xmlns="http://www.w3.org/2000/svg"><g opacity=".04"><g clip-path="url(#clip0_2003_79825)"><mask id="mask0_2003_79825" style="mask-type:luminance" maskUnits="userSpaceOnUse" x="0" y="153" width="466" height="232"><path d="M466 384.471H0V163.302l16.852 15.596 35.504-12.382 20.64 21.833 43.267-19.092 9.941 13.705 26.983-18.431 23.48 16.918 27.362-21.266 27.646 27.788L264.243 153l17.8 30.529 28.024-13.705 24.9 12.949 18.841-17.297 34.746 26.276 24.711-36.956 27.835 26.653 24.9-18.147v221.169z" fill="#fff"/></mask><g mask="url(#mask0_2003_79825)"><path d="M11.74 163.775h23.764l-11.835 11.814-11.929-11.814z" fill="#fff"/></g><mask id="mask1_2003_79825" style="mask-type:luminance" maskUnits="userSpaceOnUse" x="0" y="153" width="466" height="232"><path d="M466 384.471H0V163.302l16.852 15.596 35.504-12.382 20.64 21.833 43.267-19.092 9.941 13.705 26.983-18.431 23.48 16.918 27.362-21.266 27.646 27.788L264.243 153l17.8 30.529 28.024-13.705 24.9 12.949 18.841-17.297 34.746 26.276 24.711-36.956 27.835 26.653 24.9-18.147v221.169z" fill="#fff"/></mask><g mask="url(#mask1_2003_79825)"><path d="M58.89 163.775h37.112l-18.556 18.431-18.557-18.431z" fill="#fff"/></g><mask id="mask2_2003_79825" style="mask-type:luminance" maskUnits="userSpaceOnUse" x="0" y="153" width="466" height="232"><path d="M466 384.471H0V163.302l16.852 15.596 35.504-12.382 20.64 21.833 43.267-19.092 9.941 13.705 26.983-18.431 23.48 16.918 27.362-21.266 27.646 27.788L264.243 153l17.8 30.529 28.024-13.705 24.9 12.949 18.841-17.297 34.746 26.276 24.711-36.956 27.835 26.653 24.9-18.147v221.169z" fill="#fff"/></mask><g mask="url(#mask2_2003_79825)"><path d="M143.057 163.775l-11.835 11.814-11.834-11.814h23.669z" fill="#fff"/></g><mask id="mask3_2003_79825" style="mask-type:luminance" maskUnits="userSpaceOnUse" x="0" y="153" width="466" height="232"><path d="M466 384.471H0V163.302l16.852 15.596 35.504-12.382 20.64 21.833 43.267-19.092 9.941 13.705 26.983-18.431 23.48 16.918 27.362-21.266 27.646 27.788L264.243 153l17.8 30.529 28.024-13.705 24.9 12.949 18.841-17.297 34.746 26.276 24.711-36.956 27.835 26.653 24.9-18.147v221.169z" fill="#fff"/></mask><g mask="url(#mask3_2003_79825)"><path d="M119.293 187.404l-41.847 41.871-41.942-41.871 11.74-11.626 30.202 30.151 30.202-30.151 11.645 11.626z" fill="#fff"/></g><mask id="mask4_2003_79825" style="mask-type:luminance" maskUnits="userSpaceOnUse" x="0" y="153" width="466" height="232"><path d="M466 384.471H0V163.302l16.852 15.596 35.504-12.382 20.64 21.833 43.267-19.092 9.941 13.705 26.983-18.431 23.48 16.918 27.362-21.266 27.646 27.788L264.243 153l17.8 30.529 28.024-13.705 24.9 12.949 18.841-17.297 34.746 26.276 24.711-36.956 27.835 26.653 24.9-18.147v221.169z" fill="#fff"/></mask><g mask="url(#mask4_2003_79825)"><path d="M167.199 163.775h23.764l-11.834 11.814-11.93-11.814z" fill="#fff"/></g><mask id="mask5_2003_79825" style="mask-type:luminance" maskUnits="userSpaceOnUse" x="0" y="153" width="466" height="232"><path d="M466 384.471H0V163.302l16.852 15.596 35.504-12.382 20.64 21.833 43.267-19.092 9.941 13.705 26.983-18.431 23.48 16.918 27.362-21.266 27.646 27.788L264.243 153l17.8 30.529 28.024-13.705 24.9 12.949 18.841-17.297 34.746 26.276 24.711-36.956 27.835 26.653 24.9-18.147v221.169z" fill="#fff"/></mask><g mask="url(#mask5_2003_79825)"><path d="M214.349 163.775h37.018l-18.462 18.431-18.556-18.431z" fill="#fff"/></g><mask id="mask6_2003_79825" style="mask-type:luminance" maskUnits="userSpaceOnUse" x="0" y="153" width="466" height="232"><path d="M466 384.471H0V163.302l16.852 15.596 35.504-12.382 20.64 21.833 43.267-19.092 9.941 13.705 26.983-18.431 23.48 16.918 27.362-21.266 27.646 27.788L264.243 153l17.8 30.529 28.024-13.705 24.9 12.949 18.841-17.297 34.746 26.276 24.711-36.956 27.835 26.653 24.9-18.147v221.169z" fill="#fff"/></mask><g mask="url(#mask6_2003_79825)"><path d="M298.516 163.775l-11.834 11.814-11.93-11.814h23.764z" fill="#fff"/></g><mask id="mask7_2003_79825" style="mask-type:luminance" maskUnits="userSpaceOnUse" x="0" y="153" width="466" height="232"><path d="M466 384.471H0V163.302l16.852 15.596 35.504-12.382 20.64 21.833 43.267-19.092 9.941 13.705 26.983-18.431 23.48 16.918 27.362-21.266 27.646 27.788L264.243 153l17.8 30.529 28.024-13.705 24.9 12.949 18.841-17.297 34.746 26.276 24.711-36.956 27.835 26.653 24.9-18.147v221.169z" fill="#fff"/></mask><g mask="url(#mask7_2003_79825)"><path d="M274.752 187.404l-41.847 41.871-41.942-41.871 11.74-11.626 30.202 30.151 30.202-30.151 11.645 11.626z" fill="#fff"/></g><mask id="mask8_2003_79825" style="mask-type:luminance" maskUnits="userSpaceOnUse" x="0" y="153" width="466" height="232"><path d="M466 384.471H0V163.302l16.852 15.596 35.504-12.382 20.64 21.833 43.267-19.092 9.941 13.705 26.983-18.431 23.48 16.918 27.362-21.266 27.646 27.788L264.243 153l17.8 30.529 28.024-13.705 24.9 12.949 18.841-17.297 34.746 26.276 24.711-36.956 27.835 26.653 24.9-18.147v221.169z" fill="#fff"/></mask><g mask="url(#mask8_2003_79825)"><path d="M322.659 163.775h23.764l-11.929 11.814-11.835-11.814z" fill="#fff"/></g><mask id="mask9_2003_79825" style="mask-type:luminance" maskUnits="userSpaceOnUse" x="0" y="153" width="466" height="232"><path d="M466 384.471H0V163.302l16.852 15.596 35.504-12.382 20.64 21.833 43.267-19.092 9.941 13.705 26.983-18.431 23.48 16.918 27.362-21.266 27.646 27.788L264.243 153l17.8 30.529 28.024-13.705 24.9 12.949 18.841-17.297 34.746 26.276 24.711-36.956 27.835 26.653 24.9-18.147v221.169z" fill="#fff"/></mask><g mask="url(#mask9_2003_79825)"><path d="M369.808 163.775h37.019l-18.557 18.431-18.462-18.431z" fill="#fff"/></g><mask id="mask10_2003_79825" style="mask-type:luminance" maskUnits="userSpaceOnUse" x="0" y="153" width="466" height="232"><path d="M466 384.471H0V163.302l16.852 15.596 35.504-12.382 20.64 21.833 43.267-19.092 9.941 13.705 26.983-18.431 23.48 16.918 27.362-21.266 27.646 27.788L264.243 153l17.8 30.529 28.024-13.705 24.9 12.949 18.841-17.297 34.746 26.276 24.711-36.956 27.835 26.653 24.9-18.147v221.169z" fill="#fff"/></mask><g mask="url(#mask10_2003_79825)"><path d="M453.976 163.775l-11.929 11.814-11.835-11.814h23.764z" fill="#fff"/></g><mask id="mask11_2003_79825" style="mask-type:luminance" maskUnits="userSpaceOnUse" x="0" y="153" width="466" height="232"><path d="M466 384.471H0V163.302l16.852 15.596 35.504-12.382 20.64 21.833 43.267-19.092 9.941 13.705 26.983-18.431 23.48 16.918 27.362-21.266 27.646 27.788L264.243 153l17.8 30.529 28.024-13.705 24.9 12.949 18.841-17.297 34.746 26.276 24.711-36.956 27.835 26.653 24.9-18.147v221.169z" fill="#fff"/></mask><g mask="url(#mask11_2003_79825)"><path d="M430.212 187.404l-41.942 41.871-41.847-41.871 11.645-11.626 30.202 30.151 30.297-30.151 11.645 11.626z" fill="#fff"/></g><mask id="mask12_2003_79825" style="mask-type:luminance" maskUnits="userSpaceOnUse" x="0" y="153" width="466" height="232"><path d="M466 384.471H0V163.302l16.852 15.596 35.504-12.382 20.64 21.833 43.267-19.092 9.941 13.705 26.983-18.431 23.48 16.918 27.362-21.266 27.646 27.788L264.243 153l17.8 30.529 28.024-13.705 24.9 12.949 18.841-17.297 34.746 26.276 24.711-36.956 27.835 26.653 24.9-18.147v221.169z" fill="#fff"/></mask><g mask="url(#mask12_2003_79825)"><path d="M143.057 318.876l-11.835 11.91-23.574-23.535-30.202 30.151-30.202-30.151-23.575 23.535-11.929-11.91 35.03-34.971 30.676 30.624 30.58-30.624 35.031 34.971z" fill="#fff"/></g><mask id="mask13_2003_79825" style="mask-type:luminance" maskUnits="userSpaceOnUse" x="0" y="153" width="466" height="232"><path d="M466 384.471H0V163.302l16.852 15.596 35.504-12.382 20.64 21.833 43.267-19.092 9.941 13.705 26.983-18.431 23.48 16.918 27.362-21.266 27.646 27.788L264.243 153l17.8 30.529 28.024-13.705 24.9 12.949 18.841-17.297 34.746 26.276 24.711-36.956 27.835 26.653 24.9-18.147v221.169z" fill="#fff"/></mask><g mask="url(#mask13_2003_79825)"><path d="M96.192 272.091l-11.835 11.814-6.911-6.805-6.912 6.805L58.7 272.091l18.746-18.715 18.746 18.715z" fill="#fff"/></g><mask id="mask14_2003_79825" style="mask-type:luminance" maskUnits="userSpaceOnUse" x="0" y="153" width="466" height="232"><path d="M466 384.471H0V163.302l16.852 15.596 35.504-12.382 20.64 21.833 43.267-19.092 9.941 13.705 26.983-18.431 23.48 16.918 27.362-21.266 27.646 27.788L264.243 153l17.8 30.529 28.024-13.705 24.9 12.949 18.841-17.297 34.746 26.276 24.711-36.956 27.835 26.653 24.9-18.147v221.169z" fill="#fff"/></mask><g mask="url(#mask14_2003_79825)"><path d="M298.516 318.876l-11.834 11.91-23.575-23.535-30.202 30.151-30.202-30.151-23.574 23.535-11.93-11.91 35.031-34.971 30.675 30.624 30.581-30.624 35.03 34.971z" fill="#fff"/></g><mask id="mask15_2003_79825" style="mask-type:luminance" maskUnits="userSpaceOnUse" x="0" y="153" width="466" height="232"><path d="M466 384.471H0V163.302l16.852 15.596 35.504-12.382 20.64 21.833 43.267-19.092 9.941 13.705 26.983-18.431 23.48 16.918 27.362-21.266 27.646 27.788L264.243 153l17.8 30.529 28.024-13.705 24.9 12.949 18.841-17.297 34.746 26.276 24.711-36.956 27.835 26.653 24.9-18.147v221.169z" fill="#fff"/></mask><g mask="url(#mask15_2003_79825)"><path d="M251.651 272.091l-11.929 11.814-6.817-6.805-6.911 6.805-11.835-11.814 18.746-18.715 18.746 18.715z" fill="#fff"/></g><mask id="mask16_2003_79825" style="mask-type:luminance" maskUnits="userSpaceOnUse" x="0" y="153" width="466" height="232"><path d="M466 384.471H0V163.302l16.852 15.596 35.504-12.382 20.64 21.833 43.267-19.092 9.941 13.705 26.983-18.431 23.48 16.918 27.362-21.266 27.646 27.788L264.243 153l17.8 30.529 28.024-13.705 24.9 12.949 18.841-17.297 34.746 26.276 24.711-36.956 27.835 26.653 24.9-18.147v221.169z" fill="#fff"/></mask><g mask="url(#mask16_2003_79825)"><path d="M453.976 318.876l-11.929 11.91-23.48-23.535-30.297 30.151-30.202-30.151-23.574 23.535-11.835-11.91 35.031-34.971 30.58 30.624 30.676-30.624 35.03 34.971z" fill="#fff"/></g><mask id="mask17_2003_79825" style="mask-type:luminance" maskUnits="userSpaceOnUse" x="0" y="153" width="466" height="232"><path d="M466 384.471H0V163.302l16.852 15.596 35.504-12.382 20.64 21.833 43.267-19.092 9.941 13.705 26.983-18.431 23.48 16.918 27.362-21.266 27.646 27.788L264.243 153l17.8 30.529 28.024-13.705 24.9 12.949 18.841-17.297 34.746 26.276 24.711-36.956 27.835 26.653 24.9-18.147v221.169z" fill="#fff"/></mask><g mask="url(#mask17_2003_79825)"><path d="M407.111 272.091l-11.929 11.814-6.912-6.805-6.816 6.805-11.93-11.814 18.746-18.715 18.841 18.715z" fill="#fff"/></g><mask id="mask18_2003_79825" style="mask-type:luminance" maskUnits="userSpaceOnUse" x="0" y="153" width="466" height="232"><path d="M466 384.471H0V163.302l16.852 15.596 35.504-12.382 20.64 21.833 43.267-19.092 9.941 13.705 26.983-18.431 23.48 16.918 27.362-21.266 27.646 27.788L264.243 153l17.8 30.529 28.024-13.705 24.9 12.949 18.841-17.297 34.746 26.276 24.711-36.956 27.835 26.653 24.9-18.147v221.169z" fill="#fff"/></mask><g mask="url(#mask18_2003_79825)"><path d="M65.327 241.373l-11.834 11.815-23.575-23.535-30.202 30.151v-22.873l30.58-30.529 35.031 34.971z" fill="#fff"/></g><mask id="mask19_2003_79825" style="mask-type:luminance" maskUnits="userSpaceOnUse" x="0" y="153" width="466" height="232"><path d="M466 384.471H0V163.302l16.852 15.596 35.504-12.382 20.64 21.833 43.267-19.092 9.941 13.705 26.983-18.431 23.48 16.918 27.362-21.266 27.646 27.788L264.243 153l17.8 30.529 28.024-13.705 24.9 12.949 18.841-17.297 34.746 26.276 24.711-36.956 27.835 26.653 24.9-18.147v221.169z" fill="#fff"/></mask><g mask="url(#mask19_2003_79825)"><path d="M41.658 265.002L-.284 306.873v-23.346l30.202-30.151 11.74 11.626z" fill="#fff"/></g><mask id="mask20_2003_79825" style="mask-type:luminance" maskUnits="userSpaceOnUse" x="0" y="153" width="466" height="232"><path d="M466 384.471H0V163.302l16.852 15.596 35.504-12.382 20.64 21.833 43.267-19.092 9.941 13.705 26.983-18.431 23.48 16.918 27.362-21.266 27.646 27.788L264.243 153l17.8 30.529 28.024-13.705 24.9 12.949 18.841-17.297 34.746 26.276 24.711-36.956 27.835 26.653 24.9-18.147v221.169z" fill="#fff"/></mask><g mask="url(#mask20_2003_79825)"><path d="M18.462 194.493L6.627 206.402l-6.91-6.9v-23.724l18.745 18.715z" fill="#fff"/></g><mask id="mask21_2003_79825" style="mask-type:luminance" maskUnits="userSpaceOnUse" x="0" y="153" width="466" height="232"><path d="M466 384.471H0V163.302l16.852 15.596 35.504-12.382 20.64 21.833 43.267-19.092 9.941 13.705 26.983-18.431 23.48 16.918 27.362-21.266 27.646 27.788L264.243 153l17.8 30.529 28.024-13.705 24.9 12.949 18.841-17.297 34.746 26.276 24.711-36.956 27.835 26.653 24.9-18.147v221.169z" fill="#fff"/></mask><g mask="url(#mask21_2003_79825)"><path d="M220.787 241.373l-11.835 11.815-23.574-23.535-30.202 30.151-30.202-30.151-23.575 23.535-11.93-11.815 35.031-34.971 30.676 30.529 30.58-30.529 35.031 34.971z" fill="#fff"/></g><mask id="mask22_2003_79825" style="mask-type:luminance" maskUnits="userSpaceOnUse" x="0" y="153" width="466" height="232"><path d="M466 384.471H0V163.302l16.852 15.596 35.504-12.382 20.64 21.833 43.267-19.092 9.941 13.705 26.983-18.431 23.48 16.918 27.362-21.266 27.646 27.788L264.243 153l17.8 30.529 28.024-13.705 24.9 12.949 18.841-17.297 34.746 26.276 24.711-36.956 27.835 26.653 24.9-18.147v221.169z" fill="#fff"/></mask><g mask="url(#mask22_2003_79825)"><path d="M197.023 265.002l-41.847 41.871-41.942-41.871 11.74-11.626 30.202 30.151 30.201-30.151 11.646 11.626z" fill="#fff"/></g><mask id="mask23_2003_79825" style="mask-type:luminance" maskUnits="userSpaceOnUse" x="0" y="153" width="466" height="232"><path d="M466 384.471H0V163.302l16.852 15.596 35.504-12.382 20.64 21.833 43.267-19.092 9.941 13.705 26.983-18.431 23.48 16.918 27.362-21.266 27.646 27.788L264.243 153l17.8 30.529 28.024-13.705 24.9 12.949 18.841-17.297 34.746 26.276 24.711-36.956 27.835 26.653 24.9-18.147v221.169z" fill="#fff"/></mask><g mask="url(#mask23_2003_79825)"><path d="M173.922 194.493l-11.93 11.909-6.817-6.9-6.911 6.9-11.835-11.909 18.746-18.715 18.747 18.715z" fill="#fff"/></g><mask id="mask24_2003_79825" style="mask-type:luminance" maskUnits="userSpaceOnUse" x="0" y="153" width="466" height="232"><path d="M466 384.471H0V163.302l16.852 15.596 35.504-12.382 20.64 21.833 43.267-19.092 9.941 13.705 26.983-18.431 23.48 16.918 27.362-21.266 27.646 27.788L264.243 153l17.8 30.529 28.024-13.705 24.9 12.949 18.841-17.297 34.746 26.276 24.711-36.956 27.835 26.653 24.9-18.147v221.169z" fill="#fff"/></mask><g mask="url(#mask24_2003_79825)"><path d="M376.246 241.373l-11.834 11.815-23.575-23.535-30.202 30.151-30.297-30.151-23.479 23.535-11.93-11.815 35.031-34.971 30.675 30.529 30.581-30.529 35.03 34.971z" fill="#fff"/></g><mask id="mask25_2003_79825" style="mask-type:luminance" maskUnits="userSpaceOnUse" x="0" y="153" width="466" height="232"><path d="M466 384.471H0V163.302l16.852 15.596 35.504-12.382 20.64 21.833 43.267-19.092 9.941 13.705 26.983-18.431 23.48 16.918 27.362-21.266 27.646 27.788L264.243 153l17.8 30.529 28.024-13.705 24.9 12.949 18.841-17.297 34.746 26.276 24.711-36.956 27.835 26.653 24.9-18.147v221.169z" fill="#fff"/></mask><g mask="url(#mask25_2003_79825)"><path d="M352.482 265.002l-41.847 41.871-41.942-41.871 11.646-11.626 30.296 30.151 30.202-30.151 11.645 11.626z" fill="#fff"/></g><mask id="mask26_2003_79825" style="mask-type:luminance" maskUnits="userSpaceOnUse" x="0" y="153" width="466" height="232"><path d="M466 384.471H0V163.302l16.852 15.596 35.504-12.382 20.64 21.833 43.267-19.092 9.941 13.705 26.983-18.431 23.48 16.918 27.362-21.266 27.646 27.788L264.243 153l17.8 30.529 28.024-13.705 24.9 12.949 18.841-17.297 34.746 26.276 24.711-36.956 27.835 26.653 24.9-18.147v221.169z" fill="#fff"/></mask><g mask="url(#mask26_2003_79825)"><path d="M329.381 194.493l-11.929 11.909-6.817-6.9-6.911 6.9-11.93-11.909 18.841-18.715 18.746 18.715z" fill="#fff"/></g><mask id="mask27_2003_79825" style="mask-type:luminance" maskUnits="userSpaceOnUse" x="0" y="153" width="466" height="232"><path d="M466 384.471H0V163.302l16.852 15.596 35.504-12.382 20.64 21.833 43.267-19.092 9.941 13.705 26.983-18.431 23.48 16.918 27.362-21.266 27.646 27.788L264.243 153l17.8 30.529 28.024-13.705 24.9 12.949 18.841-17.297 34.746 26.276 24.711-36.956 27.835 26.653 24.9-18.147v221.169z" fill="#fff"/></mask><g mask="url(#mask27_2003_79825)"><path d="M466 236.931v22.873l-30.202-30.151-23.575 23.535-11.834-11.815 35.03-34.971L466 236.931z" fill="#fff"/></g><mask id="mask28_2003_79825" style="mask-type:luminance" maskUnits="userSpaceOnUse" x="0" y="153" width="466" height="232"><path d="M466 384.471H0V163.302l16.852 15.596 35.504-12.382 20.64 21.833 43.267-19.092 9.941 13.705 26.983-18.431 23.48 16.918 27.362-21.266 27.646 27.788L264.243 153l17.8 30.529 28.024-13.705 24.9 12.949 18.841-17.297 34.746 26.276 24.711-36.956 27.835 26.653 24.9-18.147v221.169z" fill="#fff"/></mask><g mask="url(#mask28_2003_79825)"><path d="M466 283.527v23.346l-41.847-41.871 11.645-11.626L466 283.527z" fill="#fff"/></g><mask id="mask29_2003_79825" style="mask-type:luminance" maskUnits="userSpaceOnUse" x="0" y="153" width="466" height="232"><path d="M466 384.471H0V163.302l16.852 15.596 35.504-12.382 20.64 21.833 43.267-19.092 9.941 13.705 26.983-18.431 23.48 16.918 27.362-21.266 27.646 27.788L264.243 153l17.8 30.529 28.024-13.705 24.9 12.949 18.841-17.297 34.746 26.276 24.711-36.956 27.835 26.653 24.9-18.147v221.169z" fill="#fff"/></mask><g mask="url(#mask29_2003_79825)"><path d="M466 175.778v23.724l-6.817 6.9-11.929-11.909L466 175.778z" fill="#fff"/></g></g><g clip-path="url(#clip1_2003_79825)"><mask id="mask30_2003_79825" style="mask-type:luminance" maskUnits="userSpaceOnUse" x="0" y="-2" width="466" height="232"><path d="M466 229.471H0V8.302l16.852 15.596 35.504-12.382 20.64 21.833 43.267-19.092 9.941 13.705L153.187 9.53l23.48 16.919 27.362-21.267 27.646 27.788L264.243-2l17.8 30.529 28.024-13.705 24.9 12.949 18.841-17.297 34.746 26.276L413.265-.204 441.1 26.45 466 8.302v221.169z" fill="#fff"/></mask><g mask="url(#mask30_2003_79825)"><path d="M11.74 8.775h23.764L23.669 20.59 11.74 8.775z" fill="#fff"/></g><mask id="mask31_2003_79825" style="mask-type:luminance" maskUnits="userSpaceOnUse" x="0" y="-2" width="466" height="232"><path d="M466 229.471H0V8.302l16.852 15.596 35.504-12.382 20.64 21.833 43.267-19.092 9.941 13.705L153.187 9.53l23.48 16.919 27.362-21.267 27.646 27.788L264.243-2l17.8 30.529 28.024-13.705 24.9 12.949 18.841-17.297 34.746 26.276L413.265-.204 441.1 26.45 466 8.302v221.169z" fill="#fff"/></mask><g mask="url(#mask31_2003_79825)"><path d="M58.89 8.775h37.112l-18.556 18.43-18.557-18.43z" fill="#fff"/></g><mask id="mask32_2003_79825" style="mask-type:luminance" maskUnits="userSpaceOnUse" x="0" y="-2" width="466" height="232"><path d="M466 229.471H0V8.302l16.852 15.596 35.504-12.382 20.64 21.833 43.267-19.092 9.941 13.705L153.187 9.53l23.48 16.919 27.362-21.267 27.646 27.788L264.243-2l17.8 30.529 28.024-13.705 24.9 12.949 18.841-17.297 34.746 26.276L413.265-.204 441.1 26.45 466 8.302v221.169z" fill="#fff"/></mask><g mask="url(#mask32_2003_79825)"><path d="M143.057 8.775L131.222 20.59 119.388 8.775h23.669z" fill="#fff"/></g><mask id="mask33_2003_79825" style="mask-type:luminance" maskUnits="userSpaceOnUse" x="0" y="-2" width="466" height="232"><path d="M466 229.471H0V8.302l16.852 15.596 35.504-12.382 20.64 21.833 43.267-19.092 9.941 13.705L153.187 9.53l23.48 16.919 27.362-21.267 27.646 27.788L264.243-2l17.8 30.529 28.024-13.705 24.9 12.949 18.841-17.297 34.746 26.276L413.265-.204 441.1 26.45 466 8.302v221.169z" fill="#fff"/></mask><g mask="url(#mask33_2003_79825)"><path d="M119.293 32.404l-41.847 41.87-41.942-41.87 11.74-11.626L77.446 50.93l30.202-30.15 11.645 11.625z" fill="#fff"/></g><mask id="mask34_2003_79825" style="mask-type:luminance" maskUnits="userSpaceOnUse" x="0" y="-2" width="466" height="232"><path d="M466 229.471H0V8.302l16.852 15.596 35.504-12.382 20.64 21.833 43.267-19.092 9.941 13.705L153.187 9.53l23.48 16.919 27.362-21.267 27.646 27.788L264.243-2l17.8 30.529 28.024-13.705 24.9 12.949 18.841-17.297 34.746 26.276L413.265-.204 441.1 26.45 466 8.302v221.169z" fill="#fff"/></mask><g mask="url(#mask34_2003_79825)"><path d="M167.199 8.775h23.764L179.129 20.59l-11.93-11.815z" fill="#fff"/></g><mask id="mask35_2003_79825" style="mask-type:luminance" maskUnits="userSpaceOnUse" x="0" y="-2" width="466" height="232"><path d="M466 229.471H0V8.302l16.852 15.596 35.504-12.382 20.64 21.833 43.267-19.092 9.941 13.705L153.187 9.53l23.48 16.919 27.362-21.267 27.646 27.788L264.243-2l17.8 30.529 28.024-13.705 24.9 12.949 18.841-17.297 34.746 26.276L413.265-.204 441.1 26.45 466 8.302v221.169z" fill="#fff"/></mask><g mask="url(#mask35_2003_79825)"><path d="M214.349 8.775h37.018l-18.462 18.43-18.556-18.43z" fill="#fff"/></g><mask id="mask36_2003_79825" style="mask-type:luminance" maskUnits="userSpaceOnUse" x="0" y="-2" width="466" height="232"><path d="M466 229.471H0V8.302l16.852 15.596 35.504-12.382 20.64 21.833 43.267-19.092 9.941 13.705L153.187 9.53l23.48 16.919 27.362-21.267 27.646 27.788L264.243-2l17.8 30.529 28.024-13.705 24.9 12.949 18.841-17.297 34.746 26.276L413.265-.204 441.1 26.45 466 8.302v221.169z" fill="#fff"/></mask><g mask="url(#mask36_2003_79825)"><path d="M298.516 8.775L286.682 20.59l-11.93-11.815h23.764z" fill="#fff"/></g><mask id="mask37_2003_79825" style="mask-type:luminance" maskUnits="userSpaceOnUse" x="0" y="-2" width="466" height="232"><path d="M466 229.471H0V8.302l16.852 15.596 35.504-12.382 20.64 21.833 43.267-19.092 9.941 13.705L153.187 9.53l23.48 16.919 27.362-21.267 27.646 27.788L264.243-2l17.8 30.529 28.024-13.705 24.9 12.949 18.841-17.297 34.746 26.276L413.265-.204 441.1 26.45 466 8.302v221.169z" fill="#fff"/></mask><g mask="url(#mask37_2003_79825)"><path d="M274.752 32.404l-41.847 41.87-41.942-41.87 11.74-11.626 30.202 30.151 30.202-30.15 11.645 11.625z" fill="#fff"/></g><mask id="mask38_2003_79825" style="mask-type:luminance" maskUnits="userSpaceOnUse" x="0" y="-2" width="466" height="232"><path d="M466 229.471H0V8.302l16.852 15.596 35.504-12.382 20.64 21.833 43.267-19.092 9.941 13.705L153.187 9.53l23.48 16.919 27.362-21.267 27.646 27.788L264.243-2l17.8 30.529 28.024-13.705 24.9 12.949 18.841-17.297 34.746 26.276L413.265-.204 441.1 26.45 466 8.302v221.169z" fill="#fff"/></mask><g mask="url(#mask38_2003_79825)"><path d="M322.659 8.775h23.764L334.494 20.59 322.659 8.775z" fill="#fff"/></g><mask id="mask39_2003_79825" style="mask-type:luminance" maskUnits="userSpaceOnUse" x="0" y="-2" width="466" height="232"><path d="M466 229.471H0V8.302l16.852 15.596 35.504-12.382 20.64 21.833 43.267-19.092 9.941 13.705L153.187 9.53l23.48 16.919 27.362-21.267 27.646 27.788L264.243-2l17.8 30.529 28.024-13.705 24.9 12.949 18.841-17.297 34.746 26.276L413.265-.204 441.1 26.45 466 8.302v221.169z" fill="#fff"/></mask><g mask="url(#mask39_2003_79825)"><path d="M369.808 8.775h37.019l-18.557 18.43-18.462-18.43z" fill="#fff"/></g><mask id="mask40_2003_79825" style="mask-type:luminance" maskUnits="userSpaceOnUse" x="0" y="-2" width="466" height="232"><path d="M466 229.471H0V8.302l16.852 15.596 35.504-12.382 20.64 21.833 43.267-19.092 9.941 13.705L153.187 9.53l23.48 16.919 27.362-21.267 27.646 27.788L264.243-2l17.8 30.529 28.024-13.705 24.9 12.949 18.841-17.297 34.746 26.276L413.265-.204 441.1 26.45 466 8.302v221.169z" fill="#fff"/></mask><g mask="url(#mask40_2003_79825)"><path d="M453.976 8.775L442.047 20.59 430.212 8.775h23.764z" fill="#fff"/></g><mask id="mask41_2003_79825" style="mask-type:luminance" maskUnits="userSpaceOnUse" x="0" y="-2" width="466" height="232"><path d="M466 229.471H0V8.302l16.852 15.596 35.504-12.382 20.64 21.833 43.267-19.092 9.941 13.705L153.187 9.53l23.48 16.919 27.362-21.267 27.646 27.788L264.243-2l17.8 30.529 28.024-13.705 24.9 12.949 18.841-17.297 34.746 26.276L413.265-.204 441.1 26.45 466 8.302v221.169z" fill="#fff"/></mask><g mask="url(#mask41_2003_79825)"><path d="M430.212 32.404l-41.942 41.87-41.847-41.87 11.645-11.626L388.27 50.93l30.297-30.15 11.645 11.625z" fill="#fff"/></g><mask id="mask42_2003_79825" style="mask-type:luminance" maskUnits="userSpaceOnUse" x="0" y="-2" width="466" height="232"><path d="M466 229.471H0V8.302l16.852 15.596 35.504-12.382 20.64 21.833 43.267-19.092 9.941 13.705L153.187 9.53l23.48 16.919 27.362-21.267 27.646 27.788L264.243-2l17.8 30.529 28.024-13.705 24.9 12.949 18.841-17.297 34.746 26.276L413.265-.204 441.1 26.45 466 8.302v221.169z" fill="#fff"/></mask><g mask="url(#mask42_2003_79825)"><path d="M143.057 163.876l-11.835 11.91-23.574-23.535-30.202 30.151-30.202-30.151-23.575 23.535-11.929-11.91 35.03-34.971 30.676 30.624 30.58-30.624 35.031 34.971z" fill="#fff"/></g><mask id="mask43_2003_79825" style="mask-type:luminance" maskUnits="userSpaceOnUse" x="0" y="-2" width="466" height="232"><path d="M466 229.471H0V8.302l16.852 15.596 35.504-12.382 20.64 21.833 43.267-19.092 9.941 13.705L153.187 9.53l23.48 16.919 27.362-21.267 27.646 27.788L264.243-2l17.8 30.529 28.024-13.705 24.9 12.949 18.841-17.297 34.746 26.276L413.265-.204 441.1 26.45 466 8.302v221.169z" fill="#fff"/></mask><g mask="url(#mask43_2003_79825)"><path d="M119.293 187.6l-41.847 41.871L35.504 187.6l11.74-11.625 30.202 30.15 30.202-30.15 11.645 11.625z" fill="#fff"/></g><mask id="mask44_2003_79825" style="mask-type:luminance" maskUnits="userSpaceOnUse" x="0" y="-2" width="466" height="232"><path d="M466 229.471H0V8.302l16.852 15.596 35.504-12.382 20.64 21.833 43.267-19.092 9.941 13.705L153.187 9.53l23.48 16.919 27.362-21.267 27.646 27.788L264.243-2l17.8 30.529 28.024-13.705 24.9 12.949 18.841-17.297 34.746 26.276L413.265-.204 441.1 26.45 466 8.302v221.169z" fill="#fff"/></mask><g mask="url(#mask44_2003_79825)"><path d="M96.192 117.091l-11.835 11.814-6.911-6.805-6.912 6.805L58.7 117.091l18.746-18.715 18.746 18.715z" fill="#fff"/></g><mask id="mask45_2003_79825" style="mask-type:luminance" maskUnits="userSpaceOnUse" x="0" y="-2" width="466" height="232"><path d="M466 229.471H0V8.302l16.852 15.596 35.504-12.382 20.64 21.833 43.267-19.092 9.941 13.705L153.187 9.53l23.48 16.919 27.362-21.267 27.646 27.788L264.243-2l17.8 30.529 28.024-13.705 24.9 12.949 18.841-17.297 34.746 26.276L413.265-.204 441.1 26.45 466 8.302v221.169z" fill="#fff"/></mask><g mask="url(#mask45_2003_79825)"><path d="M298.516 163.876l-11.834 11.91-23.575-23.535-30.202 30.151-30.202-30.151-23.574 23.535-11.93-11.91 35.031-34.971 30.675 30.624 30.581-30.624 35.03 34.971z" fill="#fff"/></g><mask id="mask46_2003_79825" style="mask-type:luminance" maskUnits="userSpaceOnUse" x="0" y="-2" width="466" height="232"><path d="M466 229.471H0V8.302l16.852 15.596 35.504-12.382 20.64 21.833 43.267-19.092 9.941 13.705L153.187 9.53l23.48 16.919 27.362-21.267 27.646 27.788L264.243-2l17.8 30.529 28.024-13.705 24.9 12.949 18.841-17.297 34.746 26.276L413.265-.204 441.1 26.45 466 8.302v221.169z" fill="#fff"/></mask><g mask="url(#mask46_2003_79825)"><path d="M274.752 187.6l-41.847 41.871-41.942-41.871 11.74-11.625 30.202 30.15 30.202-30.15 11.645 11.625z" fill="#fff"/></g><mask id="mask47_2003_79825" style="mask-type:luminance" maskUnits="userSpaceOnUse" x="0" y="-2" width="466" height="232"><path d="M466 229.471H0V8.302l16.852 15.596 35.504-12.382 20.64 21.833 43.267-19.092 9.941 13.705L153.187 9.53l23.48 16.919 27.362-21.267 27.646 27.788L264.243-2l17.8 30.529 28.024-13.705 24.9 12.949 18.841-17.297 34.746 26.276L413.265-.204 441.1 26.45 466 8.302v221.169z" fill="#fff"/></mask><g mask="url(#mask47_2003_79825)"><path d="M251.651 117.091l-11.929 11.814-6.817-6.805-6.911 6.805-11.835-11.814 18.746-18.715 18.746 18.715z" fill="#fff"/></g><mask id="mask48_2003_79825" style="mask-type:luminance" maskUnits="userSpaceOnUse" x="0" y="-2" width="466" height="232"><path d="M466 229.471H0V8.302l16.852 15.596 35.504-12.382 20.64 21.833 43.267-19.092 9.941 13.705L153.187 9.53l23.48 16.919 27.362-21.267 27.646 27.788L264.243-2l17.8 30.529 28.024-13.705 24.9 12.949 18.841-17.297 34.746 26.276L413.265-.204 441.1 26.45 466 8.302v221.169z" fill="#fff"/></mask><g mask="url(#mask48_2003_79825)"><path d="M453.976 163.876l-11.929 11.91-23.48-23.535-30.297 30.151-30.202-30.151-23.574 23.535-11.835-11.91 35.031-34.971 30.58 30.624 30.676-30.624 35.03 34.971z" fill="#fff"/></g><mask id="mask49_2003_79825" style="mask-type:luminance" maskUnits="userSpaceOnUse" x="0" y="-2" width="466" height="232"><path d="M466 229.471H0V8.302l16.852 15.596 35.504-12.382 20.64 21.833 43.267-19.092 9.941 13.705L153.187 9.53l23.48 16.919 27.362-21.267 27.646 27.788L264.243-2l17.8 30.529 28.024-13.705 24.9 12.949 18.841-17.297 34.746 26.276L413.265-.204 441.1 26.45 466 8.302v221.169z" fill="#fff"/></mask><g mask="url(#mask49_2003_79825)"><path d="M430.212 187.6l-41.942 41.871-41.847-41.871 11.645-11.625 30.202 30.15 30.297-30.15 11.645 11.625z" fill="#fff"/></g><mask id="mask50_2003_79825" style="mask-type:luminance" maskUnits="userSpaceOnUse" x="0" y="-2" width="466" height="232"><path d="M466 229.471H0V8.302l16.852 15.596 35.504-12.382 20.64 21.833 43.267-19.092 9.941 13.705L153.187 9.53l23.48 16.919 27.362-21.267 27.646 27.788L264.243-2l17.8 30.529 28.024-13.705 24.9 12.949 18.841-17.297 34.746 26.276L413.265-.204 441.1 26.45 466 8.302v221.169z" fill="#fff"/></mask><g mask="url(#mask50_2003_79825)"><path d="M407.111 117.091l-11.929 11.814-6.912-6.805-6.816 6.805-11.93-11.814 18.746-18.715 18.841 18.715z" fill="#fff"/></g><mask id="mask51_2003_79825" style="mask-type:luminance" maskUnits="userSpaceOnUse" x="0" y="-2" width="466" height="232"><path d="M466 229.471H0V8.302l16.852 15.596 35.504-12.382 20.64 21.833 43.267-19.092 9.941 13.705L153.187 9.53l23.48 16.919 27.362-21.267 27.646 27.788L264.243-2l17.8 30.529 28.024-13.705 24.9 12.949 18.841-17.297 34.746 26.276L413.265-.204 441.1 26.45 466 8.302v221.169z" fill="#fff"/></mask><g mask="url(#mask51_2003_79825)"><path d="M65.327 86.373L53.493 98.188 29.918 74.653-.284 104.804V81.931l30.58-30.53 35.031 34.972z" fill="#fff"/></g><mask id="mask52_2003_79825" style="mask-type:luminance" maskUnits="userSpaceOnUse" x="0" y="-2" width="466" height="232"><path d="M466 229.471H0V8.302l16.852 15.596 35.504-12.382 20.64 21.833 43.267-19.092 9.941 13.705L153.187 9.53l23.48 16.919 27.362-21.267 27.646 27.788L264.243-2l17.8 30.529 28.024-13.705 24.9 12.949 18.841-17.297 34.746 26.276L413.265-.204 441.1 26.45 466 8.302v221.169z" fill="#fff"/></mask><g mask="url(#mask52_2003_79825)"><path d="M41.658 110.002L-.284 151.873v-23.346l30.202-30.15 11.74 11.625z" fill="#fff"/></g><mask id="mask53_2003_79825" style="mask-type:luminance" maskUnits="userSpaceOnUse" x="0" y="-2" width="466" height="232"><path d="M466 229.471H0V8.302l16.852 15.596 35.504-12.382 20.64 21.833 43.267-19.092 9.941 13.705L153.187 9.53l23.48 16.919 27.362-21.267 27.646 27.788L264.243-2l17.8 30.529 28.024-13.705 24.9 12.949 18.841-17.297 34.746 26.276L413.265-.204 441.1 26.45 466 8.302v221.169z" fill="#fff"/></mask><g mask="url(#mask53_2003_79825)"><path d="M18.462 39.493L6.627 51.402l-6.91-6.9V20.778l18.745 18.715z" fill="#fff"/></g><mask id="mask54_2003_79825" style="mask-type:luminance" maskUnits="userSpaceOnUse" x="0" y="-2" width="466" height="232"><path d="M466 229.471H0V8.302l16.852 15.596 35.504-12.382 20.64 21.833 43.267-19.092 9.941 13.705L153.187 9.53l23.48 16.919 27.362-21.267 27.646 27.788L264.243-2l17.8 30.529 28.024-13.705 24.9 12.949 18.841-17.297 34.746 26.276L413.265-.204 441.1 26.45 466 8.302v221.169z" fill="#fff"/></mask><g mask="url(#mask54_2003_79825)"><path d="M220.787 86.373l-11.835 11.815-23.574-23.535-30.202 30.151-30.202-30.151-23.575 23.535-11.93-11.815L124.5 51.402l30.676 30.529 30.58-30.53 35.031 34.972z" fill="#fff"/></g><mask id="mask55_2003_79825" style="mask-type:luminance" maskUnits="userSpaceOnUse" x="0" y="-2" width="466" height="232"><path d="M466 229.471H0V8.302l16.852 15.596 35.504-12.382 20.64 21.833 43.267-19.092 9.941 13.705L153.187 9.53l23.48 16.919 27.362-21.267 27.646 27.788L264.243-2l17.8 30.529 28.024-13.705 24.9 12.949 18.841-17.297 34.746 26.276L413.265-.204 441.1 26.45 466 8.302v221.169z" fill="#fff"/></mask><g mask="url(#mask55_2003_79825)"><path d="M197.023 110.002l-41.847 41.871-41.942-41.871 11.74-11.626 30.202 30.151 30.201-30.15 11.646 11.625z" fill="#fff"/></g><mask id="mask56_2003_79825" style="mask-type:luminance" maskUnits="userSpaceOnUse" x="0" y="-2" width="466" height="232"><path d="M466 229.471H0V8.302l16.852 15.596 35.504-12.382 20.64 21.833 43.267-19.092 9.941 13.705L153.187 9.53l23.48 16.919 27.362-21.267 27.646 27.788L264.243-2l17.8 30.529 28.024-13.705 24.9 12.949 18.841-17.297 34.746 26.276L413.265-.204 441.1 26.45 466 8.302v221.169z" fill="#fff"/></mask><g mask="url(#mask56_2003_79825)"><path d="M173.922 39.493l-11.93 11.909-6.817-6.9-6.911 6.9-11.835-11.91 18.746-18.714 18.747 18.715z" fill="#fff"/></g><mask id="mask57_2003_79825" style="mask-type:luminance" maskUnits="userSpaceOnUse" x="0" y="-2" width="466" height="232"><path d="M466 229.471H0V8.302l16.852 15.596 35.504-12.382 20.64 21.833 43.267-19.092 9.941 13.705L153.187 9.53l23.48 16.919 27.362-21.267 27.646 27.788L264.243-2l17.8 30.529 28.024-13.705 24.9 12.949 18.841-17.297 34.746 26.276L413.265-.204 441.1 26.45 466 8.302v221.169z" fill="#fff"/></mask><g mask="url(#mask57_2003_79825)"><path d="M376.246 86.373l-11.834 11.815-23.575-23.535-30.202 30.151-30.297-30.151-23.479 23.535-11.93-11.815 35.031-34.971 30.675 30.529 30.581-30.53 35.03 34.972z" fill="#fff"/></g><mask id="mask58_2003_79825" style="mask-type:luminance" maskUnits="userSpaceOnUse" x="0" y="-2" width="466" height="232"><path d="M466 229.471H0V8.302l16.852 15.596 35.504-12.382 20.64 21.833 43.267-19.092 9.941 13.705L153.187 9.53l23.48 16.919 27.362-21.267 27.646 27.788L264.243-2l17.8 30.529 28.024-13.705 24.9 12.949 18.841-17.297 34.746 26.276L413.265-.204 441.1 26.45 466 8.302v221.169z" fill="#fff"/></mask><g mask="url(#mask58_2003_79825)"><path d="M352.482 110.002l-41.847 41.871-41.942-41.871 11.646-11.626 30.296 30.151 30.202-30.15 11.645 11.625z" fill="#fff"/></g><mask id="mask59_2003_79825" style="mask-type:luminance" maskUnits="userSpaceOnUse" x="0" y="-2" width="466" height="232"><path d="M466 229.471H0V8.302l16.852 15.596 35.504-12.382 20.64 21.833 43.267-19.092 9.941 13.705L153.187 9.53l23.48 16.919 27.362-21.267 27.646 27.788L264.243-2l17.8 30.529 28.024-13.705 24.9 12.949 18.841-17.297 34.746 26.276L413.265-.204 441.1 26.45 466 8.302v221.169z" fill="#fff"/></mask><g mask="url(#mask59_2003_79825)"><path d="M329.381 39.493l-11.929 11.909-6.817-6.9-6.911 6.9-11.93-11.91 18.841-18.714 18.746 18.715z" fill="#fff"/></g><mask id="mask60_2003_79825" style="mask-type:luminance" maskUnits="userSpaceOnUse" x="0" y="-2" width="466" height="232"><path d="M466 229.471H0V8.302l16.852 15.596 35.504-12.382 20.64 21.833 43.267-19.092 9.941 13.705L153.187 9.53l23.48 16.919 27.362-21.267 27.646 27.788L264.243-2l17.8 30.529 28.024-13.705 24.9 12.949 18.841-17.297 34.746 26.276L413.265-.204 441.1 26.45 466 8.302v221.169z" fill="#fff"/></mask><g mask="url(#mask60_2003_79825)"><path d="M65.327 241.475l-11.834 11.909-23.575-23.535L-.284 260v-22.873l30.58-30.624 35.031 34.972z" fill="#fff"/></g><mask id="mask61_2003_79825" style="mask-type:luminance" maskUnits="userSpaceOnUse" x="0" y="-2" width="466" height="232"><path d="M466 229.471H0V8.302l16.852 15.596 35.504-12.382 20.64 21.833 43.267-19.092 9.941 13.705L153.187 9.53l23.48 16.919 27.362-21.267 27.646 27.788L264.243-2l17.8 30.529 28.024-13.705 24.9 12.949 18.841-17.297 34.746 26.276L413.265-.204 441.1 26.45 466 8.302v221.169z" fill="#fff"/></mask><g mask="url(#mask61_2003_79825)"><path d="M18.462 194.689L6.627 206.503l-6.91-6.805v-23.723l18.745 18.714z" fill="#fff"/></g><mask id="mask62_2003_79825" style="mask-type:luminance" maskUnits="userSpaceOnUse" x="0" y="-2" width="466" height="232"><path d="M466 229.471H0V8.302l16.852 15.596 35.504-12.382 20.64 21.833 43.267-19.092 9.941 13.705L153.187 9.53l23.48 16.919 27.362-21.267 27.646 27.788L264.243-2l17.8 30.529 28.024-13.705 24.9 12.949 18.841-17.297 34.746 26.276L413.265-.204 441.1 26.45 466 8.302v221.169z" fill="#fff"/></mask><g mask="url(#mask62_2003_79825)"><path d="M220.787 241.475l-11.835 11.909-23.574-23.535L155.176 260l-30.202-30.151-23.575 23.535-11.93-11.909 35.031-34.972 30.676 30.624 30.58-30.624 35.031 34.972z" fill="#fff"/></g><mask id="mask63_2003_79825" style="mask-type:luminance" maskUnits="userSpaceOnUse" x="0" y="-2" width="466" height="232"><path d="M466 229.471H0V8.302l16.852 15.596 35.504-12.382 20.64 21.833 43.267-19.092 9.941 13.705L153.187 9.53l23.48 16.919 27.362-21.267 27.646 27.788L264.243-2l17.8 30.529 28.024-13.705 24.9 12.949 18.841-17.297 34.746 26.276L413.265-.204 441.1 26.45 466 8.302v221.169z" fill="#fff"/></mask><g mask="url(#mask63_2003_79825)"><path d="M173.922 194.689l-11.93 11.814-6.817-6.805-6.911 6.805-11.835-11.814 18.746-18.714 18.747 18.714z" fill="#fff"/></g><mask id="mask64_2003_79825" style="mask-type:luminance" maskUnits="userSpaceOnUse" x="0" y="-2" width="466" height="232"><path d="M466 229.471H0V8.302l16.852 15.596 35.504-12.382 20.64 21.833 43.267-19.092 9.941 13.705L153.187 9.53l23.48 16.919 27.362-21.267 27.646 27.788L264.243-2l17.8 30.529 28.024-13.705 24.9 12.949 18.841-17.297 34.746 26.276L413.265-.204 441.1 26.45 466 8.302v221.169z" fill="#fff"/></mask><g mask="url(#mask64_2003_79825)"><path d="M376.246 241.475l-11.834 11.909-23.575-23.535L310.635 260l-30.297-30.151-23.479 23.535-11.93-11.909 35.031-34.972 30.675 30.624 30.581-30.624 35.03 34.972z" fill="#fff"/></g><mask id="mask65_2003_79825" style="mask-type:luminance" maskUnits="userSpaceOnUse" x="0" y="-2" width="466" height="232"><path d="M466 229.471H0V8.302l16.852 15.596 35.504-12.382 20.64 21.833 43.267-19.092 9.941 13.705L153.187 9.53l23.48 16.919 27.362-21.267 27.646 27.788L264.243-2l17.8 30.529 28.024-13.705 24.9 12.949 18.841-17.297 34.746 26.276L413.265-.204 441.1 26.45 466 8.302v221.169z" fill="#fff"/></mask><g mask="url(#mask65_2003_79825)"><path d="M329.381 194.689l-11.929 11.814-6.817-6.805-6.911 6.805-11.93-11.814 18.841-18.714 18.746 18.714z" fill="#fff"/></g><mask id="mask66_2003_79825" style="mask-type:luminance" maskUnits="userSpaceOnUse" x="0" y="-2" width="466" height="232"><path d="M466 229.471H0V8.302l16.852 15.596 35.504-12.382 20.64 21.833 43.267-19.092 9.941 13.705L153.187 9.53l23.48 16.919 27.362-21.267 27.646 27.788L264.243-2l17.8 30.529 28.024-13.705 24.9 12.949 18.841-17.297 34.746 26.276L413.265-.204 441.1 26.45 466 8.302v221.169z" fill="#fff"/></mask><g mask="url(#mask66_2003_79825)"><path d="M466 81.93v22.874l-30.202-30.151-23.575 23.535-11.834-11.815 35.03-34.971L466 81.93z" fill="#fff"/></g><mask id="mask67_2003_79825" style="mask-type:luminance" maskUnits="userSpaceOnUse" x="0" y="-2" width="466" height="232"><path d="M466 229.471H0V8.302l16.852 15.596 35.504-12.382 20.64 21.833 43.267-19.092 9.941 13.705L153.187 9.53l23.48 16.919 27.362-21.267 27.646 27.788L264.243-2l17.8 30.529 28.024-13.705 24.9 12.949 18.841-17.297 34.746 26.276L413.265-.204 441.1 26.45 466 8.302v221.169z" fill="#fff"/></mask><g mask="url(#mask67_2003_79825)"><path d="M466 128.527v23.346l-41.847-41.871 11.645-11.626L466 128.528z" fill="#fff"/></g><mask id="mask68_2003_79825" style="mask-type:luminance" maskUnits="userSpaceOnUse" x="0" y="-2" width="466" height="232"><path d="M466 229.471H0V8.302l16.852 15.596 35.504-12.382 20.64 21.833 43.267-19.092 9.941 13.705L153.187 9.53l23.48 16.919 27.362-21.267 27.646 27.788L264.243-2l17.8 30.529 28.024-13.705 24.9 12.949 18.841-17.297 34.746 26.276L413.265-.204 441.1 26.45 466 8.302v221.169z" fill="#fff"/></mask><g mask="url(#mask68_2003_79825)"><path d="M466 20.778v23.724l-6.817 6.9-11.929-11.91L466 20.779z" fill="#fff"/></g><mask id="mask69_2003_79825" style="mask-type:luminance" maskUnits="userSpaceOnUse" x="0" y="-2" width="466" height="232"><path d="M466 229.471H0V8.302l16.852 15.596 35.504-12.382 20.64 21.833 43.267-19.092 9.941 13.705L153.187 9.53l23.48 16.919 27.362-21.267 27.646 27.788L264.243-2l17.8 30.529 28.024-13.705 24.9 12.949 18.841-17.297 34.746 26.276L413.265-.204 441.1 26.45 466 8.302v221.169z" fill="#fff"/></mask><g mask="url(#mask69_2003_79825)"><path d="M466 237.127V260l-30.202-30.151-23.575 23.535-11.834-11.909 35.03-34.972L466 237.127z" fill="#fff"/></g><mask id="mask70_2003_79825" style="mask-type:luminance" maskUnits="userSpaceOnUse" x="0" y="-2" width="466" height="232"><path d="M466 229.471H0V8.302l16.852 15.596 35.504-12.382 20.64 21.833 43.267-19.092 9.941 13.705L153.187 9.53l23.48 16.919 27.362-21.267 27.646 27.788L264.243-2l17.8 30.529 28.024-13.705 24.9 12.949 18.841-17.297 34.746 26.276L413.265-.204 441.1 26.45 466 8.302v221.169z" fill="#fff"/></mask><g mask="url(#mask70_2003_79825)"><path d="M466 175.975v23.723l-6.817 6.805-11.929-11.814L466 175.975z" fill="#fff"/></g></g><g clip-path="url(#clip2_2003_79825)"><mask id="mask71_2003_79825" style="mask-type:luminance" maskUnits="userSpaceOnUse" x="0" y="-157" width="466" height="232"><path d="M466 74.471H0v-221.169l16.852 15.596 35.504-12.382 20.64 21.833 43.267-19.092 9.941 13.705 26.983-18.431 23.48 16.918 27.362-21.266 27.646 27.788L264.243-157l17.8 30.529 28.024-13.705 24.9 12.949 18.841-17.297 34.746 26.276 24.711-36.956 27.835 26.653 24.9-18.147v221.17z" fill="#fff"/></mask><g mask="url(#mask71_2003_79825)"><path d="M143.057 8.876l-11.835 11.91L107.648-2.75 77.446 27.4 47.244-2.748 23.669 20.785 11.74 8.876l35.03-34.97L77.447 4.528l30.58-30.624 35.031 34.971z" fill="#fff"/></g><mask id="mask72_2003_79825" style="mask-type:luminance" maskUnits="userSpaceOnUse" x="0" y="-157" width="466" height="232"><path d="M466 74.471H0v-221.169l16.852 15.596 35.504-12.382 20.64 21.833 43.267-19.092 9.941 13.705 26.983-18.431 23.48 16.918 27.362-21.266 27.646 27.788L264.243-157l17.8 30.529 28.024-13.705 24.9 12.949 18.841-17.297 34.746 26.276 24.711-36.956 27.835 26.653 24.9-18.147v221.17z" fill="#fff"/></mask><g mask="url(#mask72_2003_79825)"><path d="M119.293 32.6L77.446 74.471l-41.942-41.87 11.74-11.626 30.202 30.15 30.202-30.15L119.293 32.6z" fill="#fff"/></g><mask id="mask73_2003_79825" style="mask-type:luminance" maskUnits="userSpaceOnUse" x="0" y="-157" width="466" height="232"><path d="M466 74.471H0v-221.169l16.852 15.596 35.504-12.382 20.64 21.833 43.267-19.092 9.941 13.705 26.983-18.431 23.48 16.918 27.362-21.266 27.646 27.788L264.243-157l17.8 30.529 28.024-13.705 24.9 12.949 18.841-17.297 34.746 26.276 24.711-36.956 27.835 26.653 24.9-18.147v221.17z" fill="#fff"/></mask><g mask="url(#mask73_2003_79825)"><path d="M298.516 8.876l-11.834 11.91L263.107-2.75 232.905 27.4 202.703-2.75l-23.574 23.534-11.93-11.909 35.031-34.97 30.675 30.623 30.581-30.624 35.03 34.971z" fill="#fff"/></g><mask id="mask74_2003_79825" style="mask-type:luminance" maskUnits="userSpaceOnUse" x="0" y="-157" width="466" height="232"><path d="M466 74.471H0v-221.169l16.852 15.596 35.504-12.382 20.64 21.833 43.267-19.092 9.941 13.705 26.983-18.431 23.48 16.918 27.362-21.266 27.646 27.788L264.243-157l17.8 30.529 28.024-13.705 24.9 12.949 18.841-17.297 34.746 26.276 24.711-36.956 27.835 26.653 24.9-18.147v221.17z" fill="#fff"/></mask><g mask="url(#mask74_2003_79825)"><path d="M274.752 32.6l-41.847 41.871-41.942-41.87 11.74-11.626 30.202 30.15 30.202-30.15L274.752 32.6z" fill="#fff"/></g><mask id="mask75_2003_79825" style="mask-type:luminance" maskUnits="userSpaceOnUse" x="0" y="-157" width="466" height="232"><path d="M466 74.471H0v-221.169l16.852 15.596 35.504-12.382 20.64 21.833 43.267-19.092 9.941 13.705 26.983-18.431 23.48 16.918 27.362-21.266 27.646 27.788L264.243-157l17.8 30.529 28.024-13.705 24.9 12.949 18.841-17.297 34.746 26.276 24.711-36.956 27.835 26.653 24.9-18.147v221.17z" fill="#fff"/></mask><g mask="url(#mask75_2003_79825)"><path d="M453.976 8.876l-11.929 11.91-23.48-23.535L388.27 27.4 358.068-2.75l-23.574 23.534-11.835-11.909 35.031-34.97 30.58 30.623 30.676-30.624 35.03 34.971z" fill="#fff"/></g><mask id="mask76_2003_79825" style="mask-type:luminance" maskUnits="userSpaceOnUse" x="0" y="-157" width="466" height="232"><path d="M466 74.471H0v-221.169l16.852 15.596 35.504-12.382 20.64 21.833 43.267-19.092 9.941 13.705 26.983-18.431 23.48 16.918 27.362-21.266 27.646 27.788L264.243-157l17.8 30.529 28.024-13.705 24.9 12.949 18.841-17.297 34.746 26.276 24.711-36.956 27.835 26.653 24.9-18.147v221.17z" fill="#fff"/></mask><g mask="url(#mask76_2003_79825)"><path d="M430.212 32.6L388.27 74.471l-41.847-41.87 11.645-11.626 30.202 30.15 30.297-30.15L430.212 32.6z" fill="#fff"/></g><mask id="mask77_2003_79825" style="mask-type:luminance" maskUnits="userSpaceOnUse" x="0" y="-157" width="466" height="232"><path d="M466 74.471H0v-221.169l16.852 15.596 35.504-12.382 20.64 21.833 43.267-19.092 9.941 13.705 26.983-18.431 23.48 16.918 27.362-21.266 27.646 27.788L264.243-157l17.8 30.529 28.024-13.705 24.9 12.949 18.841-17.297 34.746 26.276 24.711-36.956 27.835 26.653 24.9-18.147v221.17z" fill="#fff"/></mask><g mask="url(#mask77_2003_79825)"><path d="M65.327 86.475L53.493 98.384 29.918 74.849-.284 105V82.127l30.58-30.624 35.031 34.972z" fill="#fff"/></g><mask id="mask78_2003_79825" style="mask-type:luminance" maskUnits="userSpaceOnUse" x="0" y="-157" width="466" height="232"><path d="M466 74.471H0v-221.169l16.852 15.596 35.504-12.382 20.64 21.833 43.267-19.092 9.941 13.705 26.983-18.431 23.48 16.918 27.362-21.266 27.646 27.788L264.243-157l17.8 30.529 28.024-13.705 24.9 12.949 18.841-17.297 34.746 26.276 24.711-36.956 27.835 26.653 24.9-18.147v221.17z" fill="#fff"/></mask><g mask="url(#mask78_2003_79825)"><path d="M18.462 39.689L6.627 51.504l-6.91-6.806V20.975l18.745 18.714z" fill="#fff"/></g><mask id="mask79_2003_79825" style="mask-type:luminance" maskUnits="userSpaceOnUse" x="0" y="-157" width="466" height="232"><path d="M466 74.471H0v-221.169l16.852 15.596 35.504-12.382 20.64 21.833 43.267-19.092 9.941 13.705 26.983-18.431 23.48 16.918 27.362-21.266 27.646 27.788L264.243-157l17.8 30.529 28.024-13.705 24.9 12.949 18.841-17.297 34.746 26.276 24.711-36.956 27.835 26.653 24.9-18.147v221.17z" fill="#fff"/></mask><g mask="url(#mask79_2003_79825)"><path d="M220.787 86.475l-11.835 11.909-23.574-23.535L155.176 105l-30.202-30.151-23.575 23.535-11.93-11.91 35.031-34.97 30.676 30.623 30.58-30.624 35.031 34.972z" fill="#fff"/></g><mask id="mask80_2003_79825" style="mask-type:luminance" maskUnits="userSpaceOnUse" x="0" y="-157" width="466" height="232"><path d="M466 74.471H0v-221.169l16.852 15.596 35.504-12.382 20.64 21.833 43.267-19.092 9.941 13.705 26.983-18.431 23.48 16.918 27.362-21.266 27.646 27.788L264.243-157l17.8 30.529 28.024-13.705 24.9 12.949 18.841-17.297 34.746 26.276 24.711-36.956 27.835 26.653 24.9-18.147v221.17z" fill="#fff"/></mask><g mask="url(#mask80_2003_79825)"><path d="M173.922 39.689l-11.93 11.815-6.817-6.806-6.911 6.806-11.835-11.815 18.746-18.714 18.747 18.714z" fill="#fff"/></g><mask id="mask81_2003_79825" style="mask-type:luminance" maskUnits="userSpaceOnUse" x="0" y="-157" width="466" height="232"><path d="M466 74.471H0v-221.169l16.852 15.596 35.504-12.382 20.64 21.833 43.267-19.092 9.941 13.705 26.983-18.431 23.48 16.918 27.362-21.266 27.646 27.788L264.243-157l17.8 30.529 28.024-13.705 24.9 12.949 18.841-17.297 34.746 26.276 24.711-36.956 27.835 26.653 24.9-18.147v221.17z" fill="#fff"/></mask><g mask="url(#mask81_2003_79825)"><path d="M376.246 86.475l-11.834 11.909-23.575-23.535L310.635 105l-30.297-30.151-23.479 23.535-11.93-11.91 35.031-34.97 30.675 30.623 30.581-30.624 35.03 34.972z" fill="#fff"/></g><mask id="mask82_2003_79825" style="mask-type:luminance" maskUnits="userSpaceOnUse" x="0" y="-157" width="466" height="232"><path d="M466 74.471H0v-221.169l16.852 15.596 35.504-12.382 20.64 21.833 43.267-19.092 9.941 13.705 26.983-18.431 23.48 16.918 27.362-21.266 27.646 27.788L264.243-157l17.8 30.529 28.024-13.705 24.9 12.949 18.841-17.297 34.746 26.276 24.711-36.956 27.835 26.653 24.9-18.147v221.17z" fill="#fff"/></mask><g mask="url(#mask82_2003_79825)"><path d="M329.381 39.689l-11.929 11.815-6.817-6.806-6.911 6.806-11.93-11.815 18.841-18.714 18.746 18.714z" fill="#fff"/></g><mask id="mask83_2003_79825" style="mask-type:luminance" maskUnits="userSpaceOnUse" x="0" y="-157" width="466" height="232"><path d="M466 74.471H0v-221.169l16.852 15.596 35.504-12.382 20.64 21.833 43.267-19.092 9.941 13.705 26.983-18.431 23.48 16.918 27.362-21.266 27.646 27.788L264.243-157l17.8 30.529 28.024-13.705 24.9 12.949 18.841-17.297 34.746 26.276 24.711-36.956 27.835 26.653 24.9-18.147v221.17z" fill="#fff"/></mask><g mask="url(#mask83_2003_79825)"><path d="M466 82.127V105l-30.202-30.151-23.575 23.535-11.834-11.91 35.03-34.97L466 82.126z" fill="#fff"/></g><mask id="mask84_2003_79825" style="mask-type:luminance" maskUnits="userSpaceOnUse" x="0" y="-157" width="466" height="232"><path d="M466 74.471H0v-221.169l16.852 15.596 35.504-12.382 20.64 21.833 43.267-19.092 9.941 13.705 26.983-18.431 23.48 16.918 27.362-21.266 27.646 27.788L264.243-157l17.8 30.529 28.024-13.705 24.9 12.949 18.841-17.297 34.746 26.276 24.711-36.956 27.835 26.653 24.9-18.147v221.17z" fill="#fff"/></mask><g mask="url(#mask84_2003_79825)"><path d="M466 20.975v23.723l-6.817 6.806-11.929-11.815L466 20.975z" fill="#fff"/></g></g></g><defs><clipPath id="clip0_2003_79825"><path fill="#fff" transform="translate(0 153)" d="M0 0h466v262H0z"/></clipPath><clipPath id="clip1_2003_79825"><path fill="#fff" transform="translate(0 -2)" d="M0 0h466v262H0z"/></clipPath><clipPath id="clip2_2003_79825"><path fill="#fff" transform="translate(0 -157)" d="M0 0h466v262H0z"/></clipPath></defs></svg>