<svg width="190" height="800" fill="none" xmlns="http://www.w3.org/2000/svg"><g opacity=".1"><g clip-path="url(#clip0_2003_84377)"><mask id="mask0_2003_84377" style="mask-type:luminance" maskUnits="userSpaceOnUse" x="-189" y="614" width="379" height="190"><path d="M189.927 803.149h-378.696V623.11l13.695 12.695 28.852-10.079 16.773 17.773 35.162-15.542 8.078 11.156 21.928-15.003 19.08 13.772 22.236-17.311 22.467 22.62 26.467-28.467 14.465 24.851 22.774-11.156 20.235 10.541 15.31-14.08 28.238 21.389 20.081-30.084 22.62 21.697 20.235-14.772v180.039z" fill="#fff"/></mask><g mask="url(#mask0_2003_84377)"><path d="M-14.578 623.495h30.083L.502 638.498l-15.08-15.003z" fill="#fff"/></g><mask id="mask1_2003_84377" style="mask-type:luminance" maskUnits="userSpaceOnUse" x="-189" y="614" width="379" height="190"><path d="M189.927 803.149h-378.696V623.11l13.695 12.695 28.852-10.079 16.773 17.773 35.162-15.542 8.078 11.156 21.928-15.003 19.08 13.772 22.236-17.311 22.467 22.62 26.467-28.467 14.465 24.851 22.774-11.156 20.235 10.541 15.31-14.08 28.238 21.389 20.081-30.084 22.62 21.697 20.235-14.772v180.039z" fill="#fff"/></mask><g mask="url(#mask1_2003_84377)"><path d="M53.821 623.495l-9.617 9.617-9.695-9.617h19.312z" fill="#fff"/></g><mask id="mask2_2003_84377" style="mask-type:luminance" maskUnits="userSpaceOnUse" x="-189" y="614" width="379" height="190"><path d="M189.927 803.149h-378.696V623.11l13.695 12.695 28.852-10.079 16.773 17.773 35.162-15.542 8.078 11.156 21.928-15.003 19.08 13.772 22.236-17.311 22.467 22.62 26.467-28.467 14.465 24.851 22.774-11.156 20.235 10.541 15.31-14.08 28.238 21.389 20.081-30.084 22.62 21.697 20.235-14.772v180.039z" fill="#fff"/></mask><g mask="url(#mask2_2003_84377)"><path d="M34.51 642.73L.501 676.814l-34.084-34.084 9.54-9.464L.502 657.81l24.544-24.544 9.463 9.464z" fill="#fff"/></g><mask id="mask3_2003_84377" style="mask-type:luminance" maskUnits="userSpaceOnUse" x="-189" y="614" width="379" height="190"><path d="M189.927 803.149h-378.696V623.11l13.695 12.695 28.852-10.079 16.773 17.773 35.162-15.542 8.078 11.156 21.928-15.003 19.08 13.772 22.236-17.311 22.467 22.62 26.467-28.467 14.465 24.851 22.774-11.156 20.235 10.541 15.31-14.08 28.238 21.389 20.081-30.084 22.62 21.697 20.235-14.772v180.039z" fill="#fff"/></mask><g mask="url(#mask3_2003_84377)"><path d="M73.44 623.495h19.313l-9.695 9.617-9.617-9.617z" fill="#fff"/></g><mask id="mask4_2003_84377" style="mask-type:luminance" maskUnits="userSpaceOnUse" x="-189" y="614" width="379" height="190"><path d="M189.927 803.149h-378.696V623.11l13.695 12.695 28.852-10.079 16.773 17.773 35.162-15.542 8.078 11.156 21.928-15.003 19.08 13.772 22.236-17.311 22.467 22.62 26.467-28.467 14.465 24.851 22.774-11.156 20.235 10.541 15.31-14.08 28.238 21.389 20.081-30.084 22.62 21.697 20.235-14.772v180.039z" fill="#fff"/></mask><g mask="url(#mask4_2003_84377)"><path d="M111.757 623.495h30.083l-15.08 15.003-15.003-15.003z" fill="#fff"/></g><mask id="mask5_2003_84377" style="mask-type:luminance" maskUnits="userSpaceOnUse" x="-189" y="614" width="379" height="190"><path d="M189.927 803.149h-378.696V623.11l13.695 12.695 28.852-10.079 16.773 17.773 35.162-15.542 8.078 11.156 21.928-15.003 19.08 13.772 22.236-17.311 22.467 22.62 26.467-28.467 14.465 24.851 22.774-11.156 20.235 10.541 15.31-14.08 28.238 21.389 20.081-30.084 22.62 21.697 20.235-14.772v180.039z" fill="#fff"/></mask><g mask="url(#mask5_2003_84377)"><path d="M180.156 623.495l-9.694 9.617-9.618-9.617h19.312z" fill="#fff"/></g><mask id="mask6_2003_84377" style="mask-type:luminance" maskUnits="userSpaceOnUse" x="-189" y="614" width="379" height="190"><path d="M189.927 803.149h-378.696V623.11l13.695 12.695 28.852-10.079 16.773 17.773 35.162-15.542 8.078 11.156 21.928-15.003 19.08 13.772 22.236-17.311 22.467 22.62 26.467-28.467 14.465 24.851 22.774-11.156 20.235 10.541 15.31-14.08 28.238 21.389 20.081-30.084 22.62 21.697 20.235-14.772v180.039z" fill="#fff"/></mask><g mask="url(#mask6_2003_84377)"><path d="M160.844 642.73l-34.084 34.084-34.007-34.084 9.463-9.464 24.544 24.544 24.621-24.544 9.463 9.464z" fill="#fff"/></g><mask id="mask7_2003_84377" style="mask-type:luminance" maskUnits="userSpaceOnUse" x="-189" y="614" width="379" height="190"><path d="M189.927 803.149h-378.696V623.11l13.695 12.695 28.852-10.079 16.773 17.773 35.162-15.542 8.078 11.156 21.928-15.003 19.08 13.772 22.236-17.311 22.467 22.62 26.467-28.467 14.465 24.851 22.774-11.156 20.235 10.541 15.31-14.08 28.238 21.389 20.081-30.084 22.62 21.697 20.235-14.772v180.039z" fill="#fff"/></mask><g mask="url(#mask7_2003_84377)"><path d="M53.821 749.753l-9.617 9.694-19.158-19.158L.502 764.833l-24.544-24.544-19.158 19.158-9.694-9.694 28.468-28.468L.502 746.213l24.852-24.928 28.467 28.468z" fill="#fff"/></g><mask id="mask8_2003_84377" style="mask-type:luminance" maskUnits="userSpaceOnUse" x="-189" y="614" width="379" height="190"><path d="M189.927 803.149h-378.696V623.11l13.695 12.695 28.852-10.079 16.773 17.773 35.162-15.542 8.078 11.156 21.928-15.003 19.08 13.772 22.236-17.311 22.467 22.62 26.467-28.467 14.465 24.851 22.774-11.156 20.235 10.541 15.31-14.08 28.238 21.389 20.081-30.084 22.62 21.697 20.235-14.772v180.039z" fill="#fff"/></mask><g mask="url(#mask8_2003_84377)"><path d="M34.51 769.064L.501 803.149l-34.084-34.085 9.54-9.463L.502 784.145l24.544-24.544 9.463 9.463z" fill="#fff"/></g><mask id="mask9_2003_84377" style="mask-type:luminance" maskUnits="userSpaceOnUse" x="-189" y="614" width="379" height="190"><path d="M189.927 803.149h-378.696V623.11l13.695 12.695 28.852-10.079 16.773 17.773 35.162-15.542 8.078 11.156 21.928-15.003 19.08 13.772 22.236-17.311 22.467 22.62 26.467-28.467 14.465 24.851 22.774-11.156 20.235 10.541 15.31-14.08 28.238 21.389 20.081-30.084 22.62 21.697 20.235-14.772v180.039z" fill="#fff"/></mask><g mask="url(#mask9_2003_84377)"><path d="M15.736 711.667l-9.694 9.618-5.54-5.54-5.616 5.54-9.618-9.618L.502 696.433l15.234 15.234z" fill="#fff"/></g><mask id="mask10_2003_84377" style="mask-type:luminance" maskUnits="userSpaceOnUse" x="-189" y="614" width="379" height="190"><path d="M189.927 803.149h-378.696V623.11l13.695 12.695 28.852-10.079 16.773 17.773 35.162-15.542 8.078 11.156 21.928-15.003 19.08 13.772 22.236-17.311 22.467 22.62 26.467-28.467 14.465 24.851 22.774-11.156 20.235 10.541 15.31-14.08 28.238 21.389 20.081-30.084 22.62 21.697 20.235-14.772v180.039z" fill="#fff"/></mask><g mask="url(#mask10_2003_84377)"><path d="M180.156 749.753l-9.695 9.694-19.081-19.158-24.62 24.544-24.544-24.544-19.158 19.158-9.617-9.694 28.467-28.468 24.852 24.928 24.928-24.928 28.468 28.468z" fill="#fff"/></g><mask id="mask11_2003_84377" style="mask-type:luminance" maskUnits="userSpaceOnUse" x="-189" y="614" width="379" height="190"><path d="M189.927 803.149h-378.696V623.11l13.695 12.695 28.852-10.079 16.773 17.773 35.162-15.542 8.078 11.156 21.928-15.003 19.08 13.772 22.236-17.311 22.467 22.62 26.467-28.467 14.465 24.851 22.774-11.156 20.235 10.541 15.31-14.08 28.238 21.389 20.081-30.084 22.62 21.697 20.235-14.772v180.039z" fill="#fff"/></mask><g mask="url(#mask11_2003_84377)"><path d="M160.844 769.064l-34.084 34.085-34.007-34.085 9.463-9.463 24.544 24.544 24.621-24.544 9.463 9.463z" fill="#fff"/></g><mask id="mask12_2003_84377" style="mask-type:luminance" maskUnits="userSpaceOnUse" x="-189" y="614" width="379" height="190"><path d="M189.927 803.149h-378.696V623.11l13.695 12.695 28.852-10.079 16.773 17.773 35.162-15.542 8.078 11.156 21.928-15.003 19.08 13.772 22.236-17.311 22.467 22.62 26.467-28.467 14.465 24.851 22.774-11.156 20.235 10.541 15.31-14.08 28.238 21.389 20.081-30.084 22.62 21.697 20.235-14.772v180.039z" fill="#fff"/></mask><g mask="url(#mask12_2003_84377)"><path d="M142.071 711.667l-9.694 9.618-5.617-5.54-5.54 5.54-9.694-9.618 15.234-15.234 15.311 15.234z" fill="#fff"/></g><mask id="mask13_2003_84377" style="mask-type:luminance" maskUnits="userSpaceOnUse" x="-189" y="614" width="379" height="190"><path d="M189.927 803.149h-378.696V623.11l13.695 12.695 28.852-10.079 16.773 17.773 35.162-15.542 8.078 11.156 21.928-15.003 19.08 13.772 22.236-17.311 22.467 22.62 26.467-28.467 14.465 24.851 22.774-11.156 20.235 10.541 15.31-14.08 28.238 21.389 20.081-30.084 22.62 21.697 20.235-14.772v180.039z" fill="#fff"/></mask><g mask="url(#mask13_2003_84377)"><path d="M116.989 686.662l-9.618 9.618-19.158-19.158-24.543 24.543-24.621-24.543-19.081 19.158-9.695-9.618 28.468-28.467 24.928 24.851 24.852-24.851 28.468 28.467z" fill="#fff"/></g><mask id="mask14_2003_84377" style="mask-type:luminance" maskUnits="userSpaceOnUse" x="-189" y="614" width="379" height="190"><path d="M189.927 803.149h-378.696V623.11l13.695 12.695 28.852-10.079 16.773 17.773 35.162-15.542 8.078 11.156 21.928-15.003 19.08 13.772 22.236-17.311 22.467 22.62 26.467-28.467 14.465 24.851 22.774-11.156 20.235 10.541 15.31-14.08 28.238 21.389 20.081-30.084 22.62 21.697 20.235-14.772v180.039z" fill="#fff"/></mask><g mask="url(#mask14_2003_84377)"><path d="M97.677 705.897l-34.008 34.084-34.084-34.084 9.464-9.464 24.62 24.544 24.544-24.544 9.464 9.464z" fill="#fff"/></g><mask id="mask15_2003_84377" style="mask-type:luminance" maskUnits="userSpaceOnUse" x="-189" y="614" width="379" height="190"><path d="M189.927 803.149h-378.696V623.11l13.695 12.695 28.852-10.079 16.773 17.773 35.162-15.542 8.078 11.156 21.928-15.003 19.08 13.772 22.236-17.311 22.467 22.62 26.467-28.467 14.465 24.851 22.774-11.156 20.235 10.541 15.31-14.08 28.238 21.389 20.081-30.084 22.62 21.697 20.235-14.772v180.039z" fill="#fff"/></mask><g mask="url(#mask15_2003_84377)"><path d="M78.903 648.5l-9.694 9.695-5.54-5.617-5.616 5.617-9.695-9.695 15.311-15.234L78.903 648.5z" fill="#fff"/></g><mask id="mask16_2003_84377" style="mask-type:luminance" maskUnits="userSpaceOnUse" x="-189" y="614" width="379" height="190"><path d="M189.927 803.149h-378.696V623.11l13.695 12.695 28.852-10.079 16.773 17.773 35.162-15.542 8.078 11.156 21.928-15.003 19.08 13.772 22.236-17.311 22.467 22.62 26.467-28.467 14.465 24.851 22.774-11.156 20.235 10.541 15.31-14.08 28.238 21.389 20.081-30.084 22.62 21.697 20.235-14.772v180.039z" fill="#fff"/></mask><g mask="url(#mask16_2003_84377)"><path d="M116.989 812.92l-9.618 9.694-19.158-19.158L63.67 828l-24.621-24.544-19.081 19.158-9.695-9.694 28.468-28.468 24.928 24.929 24.852-24.929 28.468 28.468z" fill="#fff"/></g><mask id="mask17_2003_84377" style="mask-type:luminance" maskUnits="userSpaceOnUse" x="-189" y="614" width="379" height="190"><path d="M189.927 803.149h-378.696V623.11l13.695 12.695 28.852-10.079 16.773 17.773 35.162-15.542 8.078 11.156 21.928-15.003 19.08 13.772 22.236-17.311 22.467 22.62 26.467-28.467 14.465 24.851 22.774-11.156 20.235 10.541 15.31-14.08 28.238 21.389 20.081-30.084 22.62 21.697 20.235-14.772v180.039z" fill="#fff"/></mask><g mask="url(#mask17_2003_84377)"><path d="M78.903 774.835l-9.694 9.617-5.54-5.539-5.616 5.539-9.695-9.617 15.311-15.234 15.234 15.234z" fill="#fff"/></g><mask id="mask18_2003_84377" style="mask-type:luminance" maskUnits="userSpaceOnUse" x="-189" y="614" width="379" height="190"><path d="M189.927 803.149h-378.696V623.11l13.695 12.695 28.852-10.079 16.773 17.773 35.162-15.542 8.078 11.156 21.928-15.003 19.08 13.772 22.236-17.311 22.467 22.62 26.467-28.467 14.465 24.851 22.774-11.156 20.235 10.541 15.31-14.08 28.238 21.389 20.081-30.084 22.62 21.697 20.235-14.772v180.039z" fill="#fff"/></mask><g mask="url(#mask18_2003_84377)"><path d="M189.927 683.046v18.619l-24.543-24.543-19.158 19.158-9.618-9.618 28.468-28.467 24.851 24.851z" fill="#fff"/></g><mask id="mask19_2003_84377" style="mask-type:luminance" maskUnits="userSpaceOnUse" x="-189" y="614" width="379" height="190"><path d="M189.927 803.149h-378.696V623.11l13.695 12.695 28.852-10.079 16.773 17.773 35.162-15.542 8.078 11.156 21.928-15.003 19.08 13.772 22.236-17.311 22.467 22.62 26.467-28.467 14.465 24.851 22.774-11.156 20.235 10.541 15.31-14.08 28.238 21.389 20.081-30.084 22.62 21.697 20.235-14.772v180.039z" fill="#fff"/></mask><g mask="url(#mask19_2003_84377)"><path d="M189.927 720.977v19.004l-34.007-34.084 9.464-9.464 24.543 24.544z" fill="#fff"/></g><mask id="mask20_2003_84377" style="mask-type:luminance" maskUnits="userSpaceOnUse" x="-189" y="614" width="379" height="190"><path d="M189.927 803.149h-378.696V623.11l13.695 12.695 28.852-10.079 16.773 17.773 35.162-15.542 8.078 11.156 21.928-15.003 19.08 13.772 22.236-17.311 22.467 22.62 26.467-28.467 14.465 24.851 22.774-11.156 20.235 10.541 15.31-14.08 28.238 21.389 20.081-30.084 22.62 21.697 20.235-14.772v180.039z" fill="#fff"/></mask><g mask="url(#mask20_2003_84377)"><path d="M189.927 633.266v19.312l-5.54 5.617-9.694-9.695 15.234-15.234z" fill="#fff"/></g><mask id="mask21_2003_84377" style="mask-type:luminance" maskUnits="userSpaceOnUse" x="-189" y="614" width="379" height="190"><path d="M189.927 803.149h-378.696V623.11l13.695 12.695 28.852-10.079 16.773 17.773 35.162-15.542 8.078 11.156 21.928-15.003 19.08 13.772 22.236-17.311 22.467 22.62 26.467-28.467 14.465 24.851 22.774-11.156 20.235 10.541 15.31-14.08 28.238 21.389 20.081-30.084 22.62 21.697 20.235-14.772v180.039z" fill="#fff"/></mask><g mask="url(#mask21_2003_84377)"><path d="M189.927 809.381V828l-24.543-24.544-19.158 19.158-9.618-9.694 28.468-28.468 24.851 24.929z" fill="#fff"/></g><mask id="mask22_2003_84377" style="mask-type:luminance" maskUnits="userSpaceOnUse" x="-189" y="614" width="379" height="190"><path d="M189.927 803.149h-378.696V623.11l13.695 12.695 28.852-10.079 16.773 17.773 35.162-15.542 8.078 11.156 21.928-15.003 19.08 13.772 22.236-17.311 22.467 22.62 26.467-28.467 14.465 24.851 22.774-11.156 20.235 10.541 15.31-14.08 28.238 21.389 20.081-30.084 22.62 21.697 20.235-14.772v180.039z" fill="#fff"/></mask><g mask="url(#mask22_2003_84377)"><path d="M189.927 759.601v19.312l-5.54 5.539-9.694-9.617 15.234-15.234z" fill="#fff"/></g></g><g clip-path="url(#clip1_2003_84377)"><mask id="mask23_2003_84377" style="mask-type:luminance" maskUnits="userSpaceOnUse" x="-189" y="488" width="379" height="189"><path d="M189.927 676.968h-378.696V496.929l13.695 12.695 28.852-10.079 16.773 17.773 35.162-15.542 8.078 11.157 21.928-15.004 19.08 13.773 22.236-17.312 22.467 22.62 26.467-28.467 14.465 24.851 22.774-11.156 20.235 10.541 15.31-14.08 28.238 21.389 20.081-30.083 22.62 21.697 20.235-14.773v180.039z" fill="#fff"/></mask><g mask="url(#mask23_2003_84377)"><path d="M-14.578 497.314h30.083L.502 512.317l-15.08-15.003z" fill="#fff"/></g><mask id="mask24_2003_84377" style="mask-type:luminance" maskUnits="userSpaceOnUse" x="-189" y="488" width="379" height="189"><path d="M189.927 676.968h-378.696V496.929l13.695 12.695 28.852-10.079 16.773 17.773 35.162-15.542 8.078 11.157 21.928-15.004 19.08 13.773 22.236-17.312 22.467 22.62 26.467-28.467 14.465 24.851 22.774-11.156 20.235 10.541 15.31-14.08 28.238 21.389 20.081-30.083 22.62 21.697 20.235-14.773v180.039z" fill="#fff"/></mask><g mask="url(#mask24_2003_84377)"><path d="M53.821 497.314l-9.617 9.617-9.695-9.617h19.312z" fill="#fff"/></g><mask id="mask25_2003_84377" style="mask-type:luminance" maskUnits="userSpaceOnUse" x="-189" y="488" width="379" height="189"><path d="M189.927 676.968h-378.696V496.929l13.695 12.695 28.852-10.079 16.773 17.773 35.162-15.542 8.078 11.157 21.928-15.004 19.08 13.773 22.236-17.312 22.467 22.62 26.467-28.467 14.465 24.851 22.774-11.156 20.235 10.541 15.31-14.08 28.238 21.389 20.081-30.083 22.62 21.697 20.235-14.773v180.039z" fill="#fff"/></mask><g mask="url(#mask25_2003_84377)"><path d="M34.51 516.549L.501 550.633l-34.084-34.084 9.54-9.464L.502 531.629l24.544-24.544 9.463 9.464z" fill="#fff"/></g><mask id="mask26_2003_84377" style="mask-type:luminance" maskUnits="userSpaceOnUse" x="-189" y="488" width="379" height="189"><path d="M189.927 676.968h-378.696V496.929l13.695 12.695 28.852-10.079 16.773 17.773 35.162-15.542 8.078 11.157 21.928-15.004 19.08 13.773 22.236-17.312 22.467 22.62 26.467-28.467 14.465 24.851 22.774-11.156 20.235 10.541 15.31-14.08 28.238 21.389 20.081-30.083 22.62 21.697 20.235-14.773v180.039z" fill="#fff"/></mask><g mask="url(#mask26_2003_84377)"><path d="M73.44 497.314h19.313l-9.695 9.617-9.617-9.617z" fill="#fff"/></g><mask id="mask27_2003_84377" style="mask-type:luminance" maskUnits="userSpaceOnUse" x="-189" y="488" width="379" height="189"><path d="M189.927 676.968h-378.696V496.929l13.695 12.695 28.852-10.079 16.773 17.773 35.162-15.542 8.078 11.157 21.928-15.004 19.08 13.773 22.236-17.312 22.467 22.62 26.467-28.467 14.465 24.851 22.774-11.156 20.235 10.541 15.31-14.08 28.238 21.389 20.081-30.083 22.62 21.697 20.235-14.773v180.039z" fill="#fff"/></mask><g mask="url(#mask27_2003_84377)"><path d="M111.757 497.314h30.083l-15.08 15.003-15.003-15.003z" fill="#fff"/></g><mask id="mask28_2003_84377" style="mask-type:luminance" maskUnits="userSpaceOnUse" x="-189" y="488" width="379" height="189"><path d="M189.927 676.968h-378.696V496.929l13.695 12.695 28.852-10.079 16.773 17.773 35.162-15.542 8.078 11.157 21.928-15.004 19.08 13.773 22.236-17.312 22.467 22.62 26.467-28.467 14.465 24.851 22.774-11.156 20.235 10.541 15.31-14.08 28.238 21.389 20.081-30.083 22.62 21.697 20.235-14.773v180.039z" fill="#fff"/></mask><g mask="url(#mask28_2003_84377)"><path d="M180.156 497.314l-9.694 9.617-9.618-9.617h19.312z" fill="#fff"/></g><mask id="mask29_2003_84377" style="mask-type:luminance" maskUnits="userSpaceOnUse" x="-189" y="488" width="379" height="189"><path d="M189.927 676.968h-378.696V496.929l13.695 12.695 28.852-10.079 16.773 17.773 35.162-15.542 8.078 11.157 21.928-15.004 19.08 13.773 22.236-17.312 22.467 22.62 26.467-28.467 14.465 24.851 22.774-11.156 20.235 10.541 15.31-14.08 28.238 21.389 20.081-30.083 22.62 21.697 20.235-14.773v180.039z" fill="#fff"/></mask><g mask="url(#mask29_2003_84377)"><path d="M160.844 516.549l-34.084 34.084-34.007-34.084 9.463-9.464 24.544 24.544 24.621-24.544 9.463 9.464z" fill="#fff"/></g><mask id="mask30_2003_84377" style="mask-type:luminance" maskUnits="userSpaceOnUse" x="-189" y="488" width="379" height="189"><path d="M189.927 676.968h-378.696V496.929l13.695 12.695 28.852-10.079 16.773 17.773 35.162-15.542 8.078 11.157 21.928-15.004 19.08 13.773 22.236-17.312 22.467 22.62 26.467-28.467 14.465 24.851 22.774-11.156 20.235 10.541 15.31-14.08 28.238 21.389 20.081-30.083 22.62 21.697 20.235-14.773v180.039z" fill="#fff"/></mask><g mask="url(#mask30_2003_84377)"><path d="M53.821 623.572l-9.617 9.694-19.158-19.158L.502 638.652l-24.544-24.544-19.158 19.158-9.694-9.694 28.468-28.468L.502 620.032l24.852-24.928 28.467 28.468z" fill="#fff"/></g><mask id="mask31_2003_84377" style="mask-type:luminance" maskUnits="userSpaceOnUse" x="-189" y="488" width="379" height="189"><path d="M189.927 676.968h-378.696V496.929l13.695 12.695 28.852-10.079 16.773 17.773 35.162-15.542 8.078 11.157 21.928-15.004 19.08 13.773 22.236-17.312 22.467 22.62 26.467-28.467 14.465 24.851 22.774-11.156 20.235 10.541 15.31-14.08 28.238 21.389 20.081-30.083 22.62 21.697 20.235-14.773v180.039z" fill="#fff"/></mask><g mask="url(#mask31_2003_84377)"><path d="M34.51 642.883L.501 676.968l-34.084-34.085 9.54-9.463L.502 657.964l24.544-24.544 9.463 9.463z" fill="#fff"/></g><mask id="mask32_2003_84377" style="mask-type:luminance" maskUnits="userSpaceOnUse" x="-189" y="488" width="379" height="189"><path d="M189.927 676.968h-378.696V496.929l13.695 12.695 28.852-10.079 16.773 17.773 35.162-15.542 8.078 11.157 21.928-15.004 19.08 13.773 22.236-17.312 22.467 22.62 26.467-28.467 14.465 24.851 22.774-11.156 20.235 10.541 15.31-14.08 28.238 21.389 20.081-30.083 22.62 21.697 20.235-14.773v180.039z" fill="#fff"/></mask><g mask="url(#mask32_2003_84377)"><path d="M15.736 585.486l-9.694 9.618-5.54-5.54-5.616 5.54-9.618-9.618L.502 570.252l15.234 15.234z" fill="#fff"/></g><mask id="mask33_2003_84377" style="mask-type:luminance" maskUnits="userSpaceOnUse" x="-189" y="488" width="379" height="189"><path d="M189.927 676.968h-378.696V496.929l13.695 12.695 28.852-10.079 16.773 17.773 35.162-15.542 8.078 11.157 21.928-15.004 19.08 13.773 22.236-17.312 22.467 22.62 26.467-28.467 14.465 24.851 22.774-11.156 20.235 10.541 15.31-14.08 28.238 21.389 20.081-30.083 22.62 21.697 20.235-14.773v180.039z" fill="#fff"/></mask><g mask="url(#mask33_2003_84377)"><path d="M180.156 623.572l-9.695 9.694-19.081-19.158-24.62 24.544-24.544-24.544-19.158 19.158-9.617-9.694 28.467-28.468 24.852 24.928 24.928-24.928 28.468 28.468z" fill="#fff"/></g><mask id="mask34_2003_84377" style="mask-type:luminance" maskUnits="userSpaceOnUse" x="-189" y="488" width="379" height="189"><path d="M189.927 676.968h-378.696V496.929l13.695 12.695 28.852-10.079 16.773 17.773 35.162-15.542 8.078 11.157 21.928-15.004 19.08 13.773 22.236-17.312 22.467 22.62 26.467-28.467 14.465 24.851 22.774-11.156 20.235 10.541 15.31-14.08 28.238 21.389 20.081-30.083 22.62 21.697 20.235-14.773v180.039z" fill="#fff"/></mask><g mask="url(#mask34_2003_84377)"><path d="M160.844 642.883l-34.084 34.085-34.007-34.085 9.463-9.463 24.544 24.544 24.621-24.544 9.463 9.463z" fill="#fff"/></g><mask id="mask35_2003_84377" style="mask-type:luminance" maskUnits="userSpaceOnUse" x="-189" y="488" width="379" height="189"><path d="M189.927 676.968h-378.696V496.929l13.695 12.695 28.852-10.079 16.773 17.773 35.162-15.542 8.078 11.157 21.928-15.004 19.08 13.773 22.236-17.312 22.467 22.62 26.467-28.467 14.465 24.851 22.774-11.156 20.235 10.541 15.31-14.08 28.238 21.389 20.081-30.083 22.62 21.697 20.235-14.773v180.039z" fill="#fff"/></mask><g mask="url(#mask35_2003_84377)"><path d="M142.071 585.486l-9.694 9.618-5.617-5.54-5.54 5.54-9.694-9.618 15.234-15.234 15.311 15.234z" fill="#fff"/></g><mask id="mask36_2003_84377" style="mask-type:luminance" maskUnits="userSpaceOnUse" x="-189" y="488" width="379" height="189"><path d="M189.927 676.968h-378.696V496.929l13.695 12.695 28.852-10.079 16.773 17.773 35.162-15.542 8.078 11.157 21.928-15.004 19.08 13.773 22.236-17.312 22.467 22.62 26.467-28.467 14.465 24.851 22.774-11.156 20.235 10.541 15.31-14.08 28.238 21.389 20.081-30.083 22.62 21.697 20.235-14.773v180.039z" fill="#fff"/></mask><g mask="url(#mask36_2003_84377)"><path d="M116.989 560.481l-9.618 9.618-19.158-19.158-24.543 24.544-24.621-24.544-19.081 19.158-9.695-9.618 28.468-28.467 24.928 24.851 24.852-24.851 28.468 28.467z" fill="#fff"/></g><mask id="mask37_2003_84377" style="mask-type:luminance" maskUnits="userSpaceOnUse" x="-189" y="488" width="379" height="189"><path d="M189.927 676.968h-378.696V496.929l13.695 12.695 28.852-10.079 16.773 17.773 35.162-15.542 8.078 11.157 21.928-15.004 19.08 13.773 22.236-17.312 22.467 22.62 26.467-28.467 14.465 24.851 22.774-11.156 20.235 10.541 15.31-14.08 28.238 21.389 20.081-30.083 22.62 21.697 20.235-14.773v180.039z" fill="#fff"/></mask><g mask="url(#mask37_2003_84377)"><path d="M97.677 579.716L63.669 613.8l-34.084-34.084 9.464-9.464 24.62 24.544 24.544-24.544 9.464 9.464z" fill="#fff"/></g><mask id="mask38_2003_84377" style="mask-type:luminance" maskUnits="userSpaceOnUse" x="-189" y="488" width="379" height="189"><path d="M189.927 676.968h-378.696V496.929l13.695 12.695 28.852-10.079 16.773 17.773 35.162-15.542 8.078 11.157 21.928-15.004 19.08 13.773 22.236-17.312 22.467 22.62 26.467-28.467 14.465 24.851 22.774-11.156 20.235 10.541 15.31-14.08 28.238 21.389 20.081-30.083 22.62 21.697 20.235-14.773v180.039z" fill="#fff"/></mask><g mask="url(#mask38_2003_84377)"><path d="M78.903 522.319l-9.694 9.695-5.54-5.617-5.616 5.617-9.695-9.695 15.311-15.234 15.234 15.234z" fill="#fff"/></g><mask id="mask39_2003_84377" style="mask-type:luminance" maskUnits="userSpaceOnUse" x="-189" y="488" width="379" height="189"><path d="M189.927 676.968h-378.696V496.929l13.695 12.695 28.852-10.079 16.773 17.773 35.162-15.542 8.078 11.157 21.928-15.004 19.08 13.773 22.236-17.312 22.467 22.62 26.467-28.467 14.465 24.851 22.774-11.156 20.235 10.541 15.31-14.08 28.238 21.389 20.081-30.083 22.62 21.697 20.235-14.773v180.039z" fill="#fff"/></mask><g mask="url(#mask39_2003_84377)"><path d="M116.989 686.739l-9.618 9.695-19.158-19.158-24.543 24.543-24.621-24.543-19.081 19.158-9.695-9.695 28.468-28.468L63.67 683.2l24.852-24.929 28.468 28.468z" fill="#fff"/></g><mask id="mask40_2003_84377" style="mask-type:luminance" maskUnits="userSpaceOnUse" x="-189" y="488" width="379" height="189"><path d="M189.927 676.968h-378.696V496.929l13.695 12.695 28.852-10.079 16.773 17.773 35.162-15.542 8.078 11.157 21.928-15.004 19.08 13.773 22.236-17.312 22.467 22.62 26.467-28.467 14.465 24.851 22.774-11.156 20.235 10.541 15.31-14.08 28.238 21.389 20.081-30.083 22.62 21.697 20.235-14.773v180.039z" fill="#fff"/></mask><g mask="url(#mask40_2003_84377)"><path d="M78.903 648.654l-9.694 9.617-5.54-5.539-5.616 5.539-9.695-9.617L63.67 633.42l15.234 15.234z" fill="#fff"/></g><mask id="mask41_2003_84377" style="mask-type:luminance" maskUnits="userSpaceOnUse" x="-189" y="488" width="379" height="189"><path d="M189.927 676.968h-378.696V496.929l13.695 12.695 28.852-10.079 16.773 17.773 35.162-15.542 8.078 11.157 21.928-15.004 19.08 13.773 22.236-17.312 22.467 22.62 26.467-28.467 14.465 24.851 22.774-11.156 20.235 10.541 15.31-14.08 28.238 21.389 20.081-30.083 22.62 21.697 20.235-14.773v180.039z" fill="#fff"/></mask><g mask="url(#mask41_2003_84377)"><path d="M189.927 556.865v18.62l-24.543-24.544-19.158 19.158-9.618-9.618 28.468-28.467 24.851 24.851z" fill="#fff"/></g><mask id="mask42_2003_84377" style="mask-type:luminance" maskUnits="userSpaceOnUse" x="-189" y="488" width="379" height="189"><path d="M189.927 676.968h-378.696V496.929l13.695 12.695 28.852-10.079 16.773 17.773 35.162-15.542 8.078 11.157 21.928-15.004 19.08 13.773 22.236-17.312 22.467 22.62 26.467-28.467 14.465 24.851 22.774-11.156 20.235 10.541 15.31-14.08 28.238 21.389 20.081-30.083 22.62 21.697 20.235-14.773v180.039z" fill="#fff"/></mask><g mask="url(#mask42_2003_84377)"><path d="M189.927 594.796V613.8l-34.007-34.084 9.464-9.464 24.543 24.544z" fill="#fff"/></g><mask id="mask43_2003_84377" style="mask-type:luminance" maskUnits="userSpaceOnUse" x="-189" y="488" width="379" height="189"><path d="M189.927 676.968h-378.696V496.929l13.695 12.695 28.852-10.079 16.773 17.773 35.162-15.542 8.078 11.157 21.928-15.004 19.08 13.773 22.236-17.312 22.467 22.62 26.467-28.467 14.465 24.851 22.774-11.156 20.235 10.541 15.31-14.08 28.238 21.389 20.081-30.083 22.62 21.697 20.235-14.773v180.039z" fill="#fff"/></mask><g mask="url(#mask43_2003_84377)"><path d="M189.927 507.085v19.312l-5.54 5.617-9.694-9.695 15.234-15.234z" fill="#fff"/></g><mask id="mask44_2003_84377" style="mask-type:luminance" maskUnits="userSpaceOnUse" x="-189" y="488" width="379" height="189"><path d="M189.927 676.968h-378.696V496.929l13.695 12.695 28.852-10.079 16.773 17.773 35.162-15.542 8.078 11.157 21.928-15.004 19.08 13.773 22.236-17.312 22.467 22.62 26.467-28.467 14.465 24.851 22.774-11.156 20.235 10.541 15.31-14.08 28.238 21.389 20.081-30.083 22.62 21.697 20.235-14.773v180.039z" fill="#fff"/></mask><g mask="url(#mask44_2003_84377)"><path d="M189.927 683.2v18.619l-24.543-24.543-19.158 19.158-9.618-9.695 28.468-28.468 24.851 24.929z" fill="#fff"/></g><mask id="mask45_2003_84377" style="mask-type:luminance" maskUnits="userSpaceOnUse" x="-189" y="488" width="379" height="189"><path d="M189.927 676.968h-378.696V496.929l13.695 12.695 28.852-10.079 16.773 17.773 35.162-15.542 8.078 11.157 21.928-15.004 19.08 13.773 22.236-17.312 22.467 22.62 26.467-28.467 14.465 24.851 22.774-11.156 20.235 10.541 15.31-14.08 28.238 21.389 20.081-30.083 22.62 21.697 20.235-14.773v180.039z" fill="#fff"/></mask><g mask="url(#mask45_2003_84377)"><path d="M189.927 633.42v19.312l-5.54 5.539-9.694-9.617 15.234-15.234z" fill="#fff"/></g></g><g clip-path="url(#clip2_2003_84377)"><mask id="mask46_2003_84377" style="mask-type:luminance" maskUnits="userSpaceOnUse" x="-189" y="362" width="379" height="189"><path d="M189.927 550.787h-378.696V370.748l13.695 12.695 28.852-10.079 16.773 17.773 35.162-15.542 8.078 11.157 21.928-15.004 19.08 13.773 22.236-17.312 22.467 22.62 26.467-28.467 14.465 24.851 22.774-11.156 20.235 10.541 15.31-14.08 28.238 21.389 20.081-30.083 22.62 21.697 20.235-14.773v180.039z" fill="#fff"/></mask><g mask="url(#mask46_2003_84377)"><path d="M-14.578 371.133h30.083L.502 386.136l-15.08-15.003z" fill="#fff"/></g><mask id="mask47_2003_84377" style="mask-type:luminance" maskUnits="userSpaceOnUse" x="-189" y="362" width="379" height="189"><path d="M189.927 550.787h-378.696V370.748l13.695 12.695 28.852-10.079 16.773 17.773 35.162-15.542 8.078 11.157 21.928-15.004 19.08 13.773 22.236-17.312 22.467 22.62 26.467-28.467 14.465 24.851 22.774-11.156 20.235 10.541 15.31-14.08 28.238 21.389 20.081-30.083 22.62 21.697 20.235-14.773v180.039z" fill="#fff"/></mask><g mask="url(#mask47_2003_84377)"><path d="M53.821 371.133l-9.617 9.617-9.695-9.617h19.312z" fill="#fff"/></g><mask id="mask48_2003_84377" style="mask-type:luminance" maskUnits="userSpaceOnUse" x="-189" y="362" width="379" height="189"><path d="M189.927 550.787h-378.696V370.748l13.695 12.695 28.852-10.079 16.773 17.773 35.162-15.542 8.078 11.157 21.928-15.004 19.08 13.773 22.236-17.312 22.467 22.62 26.467-28.467 14.465 24.851 22.774-11.156 20.235 10.541 15.31-14.08 28.238 21.389 20.081-30.083 22.62 21.697 20.235-14.773v180.039z" fill="#fff"/></mask><g mask="url(#mask48_2003_84377)"><path d="M34.51 390.368L.501 424.452l-34.084-34.084 9.54-9.464L.502 405.448l24.544-24.544 9.463 9.464z" fill="#fff"/></g><mask id="mask49_2003_84377" style="mask-type:luminance" maskUnits="userSpaceOnUse" x="-189" y="362" width="379" height="189"><path d="M189.927 550.787h-378.696V370.748l13.695 12.695 28.852-10.079 16.773 17.773 35.162-15.542 8.078 11.157 21.928-15.004 19.08 13.773 22.236-17.312 22.467 22.62 26.467-28.467 14.465 24.851 22.774-11.156 20.235 10.541 15.31-14.08 28.238 21.389 20.081-30.083 22.62 21.697 20.235-14.773v180.039z" fill="#fff"/></mask><g mask="url(#mask49_2003_84377)"><path d="M73.44 371.133h19.313l-9.695 9.617-9.617-9.617z" fill="#fff"/></g><mask id="mask50_2003_84377" style="mask-type:luminance" maskUnits="userSpaceOnUse" x="-189" y="362" width="379" height="189"><path d="M189.927 550.787h-378.696V370.748l13.695 12.695 28.852-10.079 16.773 17.773 35.162-15.542 8.078 11.157 21.928-15.004 19.08 13.773 22.236-17.312 22.467 22.62 26.467-28.467 14.465 24.851 22.774-11.156 20.235 10.541 15.31-14.08 28.238 21.389 20.081-30.083 22.62 21.697 20.235-14.773v180.039z" fill="#fff"/></mask><g mask="url(#mask50_2003_84377)"><path d="M111.757 371.133h30.083l-15.08 15.003-15.003-15.003z" fill="#fff"/></g><mask id="mask51_2003_84377" style="mask-type:luminance" maskUnits="userSpaceOnUse" x="-189" y="362" width="379" height="189"><path d="M189.927 550.787h-378.696V370.748l13.695 12.695 28.852-10.079 16.773 17.773 35.162-15.542 8.078 11.157 21.928-15.004 19.08 13.773 22.236-17.312 22.467 22.62 26.467-28.467 14.465 24.851 22.774-11.156 20.235 10.541 15.31-14.08 28.238 21.389 20.081-30.083 22.62 21.697 20.235-14.773v180.039z" fill="#fff"/></mask><g mask="url(#mask51_2003_84377)"><path d="M180.156 371.133l-9.694 9.617-9.618-9.617h19.312z" fill="#fff"/></g><mask id="mask52_2003_84377" style="mask-type:luminance" maskUnits="userSpaceOnUse" x="-189" y="362" width="379" height="189"><path d="M189.927 550.787h-378.696V370.748l13.695 12.695 28.852-10.079 16.773 17.773 35.162-15.542 8.078 11.157 21.928-15.004 19.08 13.773 22.236-17.312 22.467 22.62 26.467-28.467 14.465 24.851 22.774-11.156 20.235 10.541 15.31-14.08 28.238 21.389 20.081-30.083 22.62 21.697 20.235-14.773v180.039z" fill="#fff"/></mask><g mask="url(#mask52_2003_84377)"><path d="M160.844 390.368l-34.084 34.084-34.007-34.084 9.463-9.464 24.544 24.544 24.621-24.544 9.463 9.464z" fill="#fff"/></g><mask id="mask53_2003_84377" style="mask-type:luminance" maskUnits="userSpaceOnUse" x="-189" y="362" width="379" height="189"><path d="M189.927 550.787h-378.696V370.748l13.695 12.695 28.852-10.079 16.773 17.773 35.162-15.542 8.078 11.157 21.928-15.004 19.08 13.773 22.236-17.312 22.467 22.62 26.467-28.467 14.465 24.851 22.774-11.156 20.235 10.541 15.31-14.08 28.238 21.389 20.081-30.083 22.62 21.697 20.235-14.773v180.039z" fill="#fff"/></mask><g mask="url(#mask53_2003_84377)"><path d="M53.821 497.391l-9.617 9.694-19.158-19.158L.502 512.471l-24.544-24.544-19.158 19.158-9.694-9.694 28.468-28.468L.502 493.852l24.852-24.929 28.467 28.468z" fill="#fff"/></g><mask id="mask54_2003_84377" style="mask-type:luminance" maskUnits="userSpaceOnUse" x="-189" y="362" width="379" height="189"><path d="M189.927 550.787h-378.696V370.748l13.695 12.695 28.852-10.079 16.773 17.773 35.162-15.542 8.078 11.157 21.928-15.004 19.08 13.773 22.236-17.312 22.467 22.62 26.467-28.467 14.465 24.851 22.774-11.156 20.235 10.541 15.31-14.08 28.238 21.389 20.081-30.083 22.62 21.697 20.235-14.773v180.039z" fill="#fff"/></mask><g mask="url(#mask54_2003_84377)"><path d="M34.51 516.703L.501 550.787l-34.084-34.084 9.54-9.464L.502 531.783l24.544-24.544 9.463 9.464z" fill="#fff"/></g><mask id="mask55_2003_84377" style="mask-type:luminance" maskUnits="userSpaceOnUse" x="-189" y="362" width="379" height="189"><path d="M189.927 550.787h-378.696V370.748l13.695 12.695 28.852-10.079 16.773 17.773 35.162-15.542 8.078 11.157 21.928-15.004 19.08 13.773 22.236-17.312 22.467 22.62 26.467-28.467 14.465 24.851 22.774-11.156 20.235 10.541 15.31-14.08 28.238 21.389 20.081-30.083 22.62 21.697 20.235-14.773v180.039z" fill="#fff"/></mask><g mask="url(#mask55_2003_84377)"><path d="M15.736 459.306l-9.694 9.617-5.54-5.54-5.616 5.54-9.618-9.617L.502 444.072l15.234 15.234z" fill="#fff"/></g><mask id="mask56_2003_84377" style="mask-type:luminance" maskUnits="userSpaceOnUse" x="-189" y="362" width="379" height="189"><path d="M189.927 550.787h-378.696V370.748l13.695 12.695 28.852-10.079 16.773 17.773 35.162-15.542 8.078 11.157 21.928-15.004 19.08 13.773 22.236-17.312 22.467 22.62 26.467-28.467 14.465 24.851 22.774-11.156 20.235 10.541 15.31-14.08 28.238 21.389 20.081-30.083 22.62 21.697 20.235-14.773v180.039z" fill="#fff"/></mask><g mask="url(#mask56_2003_84377)"><path d="M180.156 497.391l-9.695 9.694-19.081-19.158-24.62 24.544-24.544-24.544-19.158 19.158-9.617-9.694 28.467-28.468 24.852 24.929 24.928-24.929 28.468 28.468z" fill="#fff"/></g><mask id="mask57_2003_84377" style="mask-type:luminance" maskUnits="userSpaceOnUse" x="-189" y="362" width="379" height="189"><path d="M189.927 550.787h-378.696V370.748l13.695 12.695 28.852-10.079 16.773 17.773 35.162-15.542 8.078 11.157 21.928-15.004 19.08 13.773 22.236-17.312 22.467 22.62 26.467-28.467 14.465 24.851 22.774-11.156 20.235 10.541 15.31-14.08 28.238 21.389 20.081-30.083 22.62 21.697 20.235-14.773v180.039z" fill="#fff"/></mask><g mask="url(#mask57_2003_84377)"><path d="M160.844 516.703l-34.084 34.084-34.007-34.084 9.463-9.464 24.544 24.544 24.621-24.544 9.463 9.464z" fill="#fff"/></g><mask id="mask58_2003_84377" style="mask-type:luminance" maskUnits="userSpaceOnUse" x="-189" y="362" width="379" height="189"><path d="M189.927 550.787h-378.696V370.748l13.695 12.695 28.852-10.079 16.773 17.773 35.162-15.542 8.078 11.157 21.928-15.004 19.08 13.773 22.236-17.312 22.467 22.62 26.467-28.467 14.465 24.851 22.774-11.156 20.235 10.541 15.31-14.08 28.238 21.389 20.081-30.083 22.62 21.697 20.235-14.773v180.039z" fill="#fff"/></mask><g mask="url(#mask58_2003_84377)"><path d="M142.071 459.306l-9.694 9.617-5.617-5.54-5.54 5.54-9.694-9.617 15.234-15.234 15.311 15.234z" fill="#fff"/></g><mask id="mask59_2003_84377" style="mask-type:luminance" maskUnits="userSpaceOnUse" x="-189" y="362" width="379" height="189"><path d="M189.927 550.787h-378.696V370.748l13.695 12.695 28.852-10.079 16.773 17.773 35.162-15.542 8.078 11.157 21.928-15.004 19.08 13.773 22.236-17.312 22.467 22.62 26.467-28.467 14.465 24.851 22.774-11.156 20.235 10.541 15.31-14.08 28.238 21.389 20.081-30.083 22.62 21.697 20.235-14.773v180.039z" fill="#fff"/></mask><g mask="url(#mask59_2003_84377)"><path d="M116.989 434.3l-9.618 9.618-19.158-19.158-24.543 24.544-24.621-24.544-19.081 19.158-9.695-9.618 28.468-28.467 24.928 24.851 24.852-24.851 28.468 28.467z" fill="#fff"/></g><mask id="mask60_2003_84377" style="mask-type:luminance" maskUnits="userSpaceOnUse" x="-189" y="362" width="379" height="189"><path d="M189.927 550.787h-378.696V370.748l13.695 12.695 28.852-10.079 16.773 17.773 35.162-15.542 8.078 11.157 21.928-15.004 19.08 13.773 22.236-17.312 22.467 22.62 26.467-28.467 14.465 24.851 22.774-11.156 20.235 10.541 15.31-14.08 28.238 21.389 20.081-30.083 22.62 21.697 20.235-14.773v180.039z" fill="#fff"/></mask><g mask="url(#mask60_2003_84377)"><path d="M97.677 453.535l-34.008 34.084-34.084-34.084 9.464-9.463 24.62 24.543 24.544-24.543 9.464 9.463z" fill="#fff"/></g><mask id="mask61_2003_84377" style="mask-type:luminance" maskUnits="userSpaceOnUse" x="-189" y="362" width="379" height="189"><path d="M189.927 550.787h-378.696V370.748l13.695 12.695 28.852-10.079 16.773 17.773 35.162-15.542 8.078 11.157 21.928-15.004 19.08 13.773 22.236-17.312 22.467 22.62 26.467-28.467 14.465 24.851 22.774-11.156 20.235 10.541 15.31-14.08 28.238 21.389 20.081-30.083 22.62 21.697 20.235-14.773v180.039z" fill="#fff"/></mask><g mask="url(#mask61_2003_84377)"><path d="M78.903 396.138l-9.694 9.695-5.54-5.617-5.616 5.617-9.695-9.695 15.311-15.234 15.234 15.234z" fill="#fff"/></g><mask id="mask62_2003_84377" style="mask-type:luminance" maskUnits="userSpaceOnUse" x="-189" y="362" width="379" height="189"><path d="M189.927 550.787h-378.696V370.748l13.695 12.695 28.852-10.079 16.773 17.773 35.162-15.542 8.078 11.157 21.928-15.004 19.08 13.773 22.236-17.312 22.467 22.62 26.467-28.467 14.465 24.851 22.774-11.156 20.235 10.541 15.31-14.08 28.238 21.389 20.081-30.083 22.62 21.697 20.235-14.773v180.039z" fill="#fff"/></mask><g mask="url(#mask62_2003_84377)"><path d="M116.989 560.558l-9.618 9.695-19.158-19.158-24.543 24.543-24.621-24.543-19.081 19.158-9.695-9.695 28.468-28.467 24.928 24.928 24.852-24.928 28.468 28.467z" fill="#fff"/></g><mask id="mask63_2003_84377" style="mask-type:luminance" maskUnits="userSpaceOnUse" x="-189" y="362" width="379" height="189"><path d="M189.927 550.787h-378.696V370.748l13.695 12.695 28.852-10.079 16.773 17.773 35.162-15.542 8.078 11.157 21.928-15.004 19.08 13.773 22.236-17.312 22.467 22.62 26.467-28.467 14.465 24.851 22.774-11.156 20.235 10.541 15.31-14.08 28.238 21.389 20.081-30.083 22.62 21.697 20.235-14.773v180.039z" fill="#fff"/></mask><g mask="url(#mask63_2003_84377)"><path d="M78.903 522.473l-9.694 9.617-5.54-5.539-5.616 5.539-9.695-9.617 15.311-15.234 15.234 15.234z" fill="#fff"/></g><mask id="mask64_2003_84377" style="mask-type:luminance" maskUnits="userSpaceOnUse" x="-189" y="362" width="379" height="189"><path d="M189.927 550.787h-378.696V370.748l13.695 12.695 28.852-10.079 16.773 17.773 35.162-15.542 8.078 11.157 21.928-15.004 19.08 13.773 22.236-17.312 22.467 22.62 26.467-28.467 14.465 24.851 22.774-11.156 20.235 10.541 15.31-14.08 28.238 21.389 20.081-30.083 22.62 21.697 20.235-14.773v180.039z" fill="#fff"/></mask><g mask="url(#mask64_2003_84377)"><path d="M189.927 430.684v18.62l-24.543-24.544-19.158 19.158-9.618-9.618 28.468-28.467 24.851 24.851z" fill="#fff"/></g><mask id="mask65_2003_84377" style="mask-type:luminance" maskUnits="userSpaceOnUse" x="-189" y="362" width="379" height="189"><path d="M189.927 550.787h-378.696V370.748l13.695 12.695 28.852-10.079 16.773 17.773 35.162-15.542 8.078 11.157 21.928-15.004 19.08 13.773 22.236-17.312 22.467 22.62 26.467-28.467 14.465 24.851 22.774-11.156 20.235 10.541 15.31-14.08 28.238 21.389 20.081-30.083 22.62 21.697 20.235-14.773v180.039z" fill="#fff"/></mask><g mask="url(#mask65_2003_84377)"><path d="M189.927 468.615v19.004l-34.007-34.084 9.464-9.463 24.543 24.543z" fill="#fff"/></g><mask id="mask66_2003_84377" style="mask-type:luminance" maskUnits="userSpaceOnUse" x="-189" y="362" width="379" height="189"><path d="M189.927 550.787h-378.696V370.748l13.695 12.695 28.852-10.079 16.773 17.773 35.162-15.542 8.078 11.157 21.928-15.004 19.08 13.773 22.236-17.312 22.467 22.62 26.467-28.467 14.465 24.851 22.774-11.156 20.235 10.541 15.31-14.08 28.238 21.389 20.081-30.083 22.62 21.697 20.235-14.773v180.039z" fill="#fff"/></mask><g mask="url(#mask66_2003_84377)"><path d="M189.927 380.904v19.312l-5.54 5.617-9.694-9.695 15.234-15.234z" fill="#fff"/></g><mask id="mask67_2003_84377" style="mask-type:luminance" maskUnits="userSpaceOnUse" x="-189" y="362" width="379" height="189"><path d="M189.927 550.787h-378.696V370.748l13.695 12.695 28.852-10.079 16.773 17.773 35.162-15.542 8.078 11.157 21.928-15.004 19.08 13.773 22.236-17.312 22.467 22.62 26.467-28.467 14.465 24.851 22.774-11.156 20.235 10.541 15.31-14.08 28.238 21.389 20.081-30.083 22.62 21.697 20.235-14.773v180.039z" fill="#fff"/></mask><g mask="url(#mask67_2003_84377)"><path d="M189.927 557.019v18.619l-24.543-24.543-19.158 19.158-9.618-9.695 28.468-28.467 24.851 24.928z" fill="#fff"/></g><mask id="mask68_2003_84377" style="mask-type:luminance" maskUnits="userSpaceOnUse" x="-189" y="362" width="379" height="189"><path d="M189.927 550.787h-378.696V370.748l13.695 12.695 28.852-10.079 16.773 17.773 35.162-15.542 8.078 11.157 21.928-15.004 19.08 13.773 22.236-17.312 22.467 22.62 26.467-28.467 14.465 24.851 22.774-11.156 20.235 10.541 15.31-14.08 28.238 21.389 20.081-30.083 22.62 21.697 20.235-14.773v180.039z" fill="#fff"/></mask><g mask="url(#mask68_2003_84377)"><path d="M189.927 507.239v19.312l-5.54 5.539-9.694-9.617 15.234-15.234z" fill="#fff"/></g></g><g clip-path="url(#clip3_2003_84377)"><mask id="mask69_2003_84377" style="mask-type:luminance" maskUnits="userSpaceOnUse" x="-189" y="236" width="379" height="189"><path d="M189.927 424.606h-378.696V244.567l13.695 12.695 28.852-10.079 16.773 17.773 35.162-15.541 8.078 11.156 21.928-15.003 19.08 13.772 22.236-17.312 22.467 22.621 26.467-28.468 14.465 24.851 22.774-11.156 20.235 10.541 15.31-14.08 28.238 21.389 20.081-30.083 22.62 21.697 20.235-14.773v180.039z" fill="#fff"/></mask><g mask="url(#mask69_2003_84377)"><path d="M-14.578 244.952h30.083L.502 259.955l-15.08-15.003z" fill="#fff"/></g><mask id="mask70_2003_84377" style="mask-type:luminance" maskUnits="userSpaceOnUse" x="-189" y="236" width="379" height="189"><path d="M189.927 424.606h-378.696V244.567l13.695 12.695 28.852-10.079 16.773 17.773 35.162-15.541 8.078 11.156 21.928-15.003 19.08 13.772 22.236-17.312 22.467 22.621 26.467-28.468 14.465 24.851 22.774-11.156 20.235 10.541 15.31-14.08 28.238 21.389 20.081-30.083 22.62 21.697 20.235-14.773v180.039z" fill="#fff"/></mask><g mask="url(#mask70_2003_84377)"><path d="M53.821 244.952l-9.617 9.617-9.695-9.617h19.312z" fill="#fff"/></g><mask id="mask71_2003_84377" style="mask-type:luminance" maskUnits="userSpaceOnUse" x="-189" y="236" width="379" height="189"><path d="M189.927 424.606h-378.696V244.567l13.695 12.695 28.852-10.079 16.773 17.773 35.162-15.541 8.078 11.156 21.928-15.003 19.08 13.772 22.236-17.312 22.467 22.621 26.467-28.468 14.465 24.851 22.774-11.156 20.235 10.541 15.31-14.08 28.238 21.389 20.081-30.083 22.62 21.697 20.235-14.773v180.039z" fill="#fff"/></mask><g mask="url(#mask71_2003_84377)"><path d="M34.51 264.187L.501 298.271l-34.084-34.084 9.54-9.464L.502 279.267l24.544-24.544 9.463 9.464z" fill="#fff"/></g><mask id="mask72_2003_84377" style="mask-type:luminance" maskUnits="userSpaceOnUse" x="-189" y="236" width="379" height="189"><path d="M189.927 424.606h-378.696V244.567l13.695 12.695 28.852-10.079 16.773 17.773 35.162-15.541 8.078 11.156 21.928-15.003 19.08 13.772 22.236-17.312 22.467 22.621 26.467-28.468 14.465 24.851 22.774-11.156 20.235 10.541 15.31-14.08 28.238 21.389 20.081-30.083 22.62 21.697 20.235-14.773v180.039z" fill="#fff"/></mask><g mask="url(#mask72_2003_84377)"><path d="M73.44 244.952h19.313l-9.695 9.617-9.617-9.617z" fill="#fff"/></g><mask id="mask73_2003_84377" style="mask-type:luminance" maskUnits="userSpaceOnUse" x="-189" y="236" width="379" height="189"><path d="M189.927 424.606h-378.696V244.567l13.695 12.695 28.852-10.079 16.773 17.773 35.162-15.541 8.078 11.156 21.928-15.003 19.08 13.772 22.236-17.312 22.467 22.621 26.467-28.468 14.465 24.851 22.774-11.156 20.235 10.541 15.31-14.08 28.238 21.389 20.081-30.083 22.62 21.697 20.235-14.773v180.039z" fill="#fff"/></mask><g mask="url(#mask73_2003_84377)"><path d="M111.757 244.952h30.083l-15.08 15.003-15.003-15.003z" fill="#fff"/></g><mask id="mask74_2003_84377" style="mask-type:luminance" maskUnits="userSpaceOnUse" x="-189" y="236" width="379" height="189"><path d="M189.927 424.606h-378.696V244.567l13.695 12.695 28.852-10.079 16.773 17.773 35.162-15.541 8.078 11.156 21.928-15.003 19.08 13.772 22.236-17.312 22.467 22.621 26.467-28.468 14.465 24.851 22.774-11.156 20.235 10.541 15.31-14.08 28.238 21.389 20.081-30.083 22.62 21.697 20.235-14.773v180.039z" fill="#fff"/></mask><g mask="url(#mask74_2003_84377)"><path d="M180.156 244.952l-9.694 9.617-9.618-9.617h19.312z" fill="#fff"/></g><mask id="mask75_2003_84377" style="mask-type:luminance" maskUnits="userSpaceOnUse" x="-189" y="236" width="379" height="189"><path d="M189.927 424.606h-378.696V244.567l13.695 12.695 28.852-10.079 16.773 17.773 35.162-15.541 8.078 11.156 21.928-15.003 19.08 13.772 22.236-17.312 22.467 22.621 26.467-28.468 14.465 24.851 22.774-11.156 20.235 10.541 15.31-14.08 28.238 21.389 20.081-30.083 22.62 21.697 20.235-14.773v180.039z" fill="#fff"/></mask><g mask="url(#mask75_2003_84377)"><path d="M160.844 264.187l-34.084 34.084-34.007-34.084 9.463-9.464 24.544 24.544 24.621-24.544 9.463 9.464z" fill="#fff"/></g><mask id="mask76_2003_84377" style="mask-type:luminance" maskUnits="userSpaceOnUse" x="-189" y="236" width="379" height="189"><path d="M189.927 424.606h-378.696V244.567l13.695 12.695 28.852-10.079 16.773 17.773 35.162-15.541 8.078 11.156 21.928-15.003 19.08 13.772 22.236-17.312 22.467 22.621 26.467-28.468 14.465 24.851 22.774-11.156 20.235 10.541 15.31-14.08 28.238 21.389 20.081-30.083 22.62 21.697 20.235-14.773v180.039z" fill="#fff"/></mask><g mask="url(#mask76_2003_84377)"><path d="M53.821 371.21l-9.617 9.694-19.158-19.158L.502 386.29l-24.544-24.544-19.158 19.158-9.694-9.694 28.468-28.468L.502 367.671l24.852-24.929L53.82 371.21z" fill="#fff"/></g><mask id="mask77_2003_84377" style="mask-type:luminance" maskUnits="userSpaceOnUse" x="-189" y="236" width="379" height="189"><path d="M189.927 424.606h-378.696V244.567l13.695 12.695 28.852-10.079 16.773 17.773 35.162-15.541 8.078 11.156 21.928-15.003 19.08 13.772 22.236-17.312 22.467 22.621 26.467-28.468 14.465 24.851 22.774-11.156 20.235 10.541 15.31-14.08 28.238 21.389 20.081-30.083 22.62 21.697 20.235-14.773v180.039z" fill="#fff"/></mask><g mask="url(#mask77_2003_84377)"><path d="M34.51 390.522L.501 424.606l-34.084-34.084 9.54-9.464L.502 405.602l24.544-24.544 9.463 9.464z" fill="#fff"/></g><mask id="mask78_2003_84377" style="mask-type:luminance" maskUnits="userSpaceOnUse" x="-189" y="236" width="379" height="189"><path d="M189.927 424.606h-378.696V244.567l13.695 12.695 28.852-10.079 16.773 17.773 35.162-15.541 8.078 11.156 21.928-15.003 19.08 13.772 22.236-17.312 22.467 22.621 26.467-28.468 14.465 24.851 22.774-11.156 20.235 10.541 15.31-14.08 28.238 21.389 20.081-30.083 22.62 21.697 20.235-14.773v180.039z" fill="#fff"/></mask><g mask="url(#mask78_2003_84377)"><path d="M15.736 333.125l-9.694 9.617-5.54-5.54-5.616 5.54-9.618-9.617L.502 317.891l15.234 15.234z" fill="#fff"/></g><mask id="mask79_2003_84377" style="mask-type:luminance" maskUnits="userSpaceOnUse" x="-189" y="236" width="379" height="189"><path d="M189.927 424.606h-378.696V244.567l13.695 12.695 28.852-10.079 16.773 17.773 35.162-15.541 8.078 11.156 21.928-15.003 19.08 13.772 22.236-17.312 22.467 22.621 26.467-28.468 14.465 24.851 22.774-11.156 20.235 10.541 15.31-14.08 28.238 21.389 20.081-30.083 22.62 21.697 20.235-14.773v180.039z" fill="#fff"/></mask><g mask="url(#mask79_2003_84377)"><path d="M180.156 371.21l-9.695 9.694-19.081-19.158-24.62 24.544-24.544-24.544-19.158 19.158-9.617-9.694 28.467-28.468 24.852 24.929 24.928-24.929 28.468 28.468z" fill="#fff"/></g><mask id="mask80_2003_84377" style="mask-type:luminance" maskUnits="userSpaceOnUse" x="-189" y="236" width="379" height="189"><path d="M189.927 424.606h-378.696V244.567l13.695 12.695 28.852-10.079 16.773 17.773 35.162-15.541 8.078 11.156 21.928-15.003 19.08 13.772 22.236-17.312 22.467 22.621 26.467-28.468 14.465 24.851 22.774-11.156 20.235 10.541 15.31-14.08 28.238 21.389 20.081-30.083 22.62 21.697 20.235-14.773v180.039z" fill="#fff"/></mask><g mask="url(#mask80_2003_84377)"><path d="M160.844 390.522l-34.084 34.084-34.007-34.084 9.463-9.464 24.544 24.544 24.621-24.544 9.463 9.464z" fill="#fff"/></g><mask id="mask81_2003_84377" style="mask-type:luminance" maskUnits="userSpaceOnUse" x="-189" y="236" width="379" height="189"><path d="M189.927 424.606h-378.696V244.567l13.695 12.695 28.852-10.079 16.773 17.773 35.162-15.541 8.078 11.156 21.928-15.003 19.08 13.772 22.236-17.312 22.467 22.621 26.467-28.468 14.465 24.851 22.774-11.156 20.235 10.541 15.31-14.08 28.238 21.389 20.081-30.083 22.62 21.697 20.235-14.773v180.039z" fill="#fff"/></mask><g mask="url(#mask81_2003_84377)"><path d="M142.071 333.125l-9.694 9.617-5.617-5.54-5.54 5.54-9.694-9.617 15.234-15.234 15.311 15.234z" fill="#fff"/></g><mask id="mask82_2003_84377" style="mask-type:luminance" maskUnits="userSpaceOnUse" x="-189" y="236" width="379" height="189"><path d="M189.927 424.606h-378.696V244.567l13.695 12.695 28.852-10.079 16.773 17.773 35.162-15.541 8.078 11.156 21.928-15.003 19.08 13.772 22.236-17.312 22.467 22.621 26.467-28.468 14.465 24.851 22.774-11.156 20.235 10.541 15.31-14.08 28.238 21.389 20.081-30.083 22.62 21.697 20.235-14.773v180.039z" fill="#fff"/></mask><g mask="url(#mask82_2003_84377)"><path d="M116.989 308.119l-9.618 9.618-19.158-19.158-24.543 24.544-24.621-24.544-19.081 19.158-9.695-9.618 28.468-28.467 24.928 24.851 24.852-24.851 28.468 28.467z" fill="#fff"/></g><mask id="mask83_2003_84377" style="mask-type:luminance" maskUnits="userSpaceOnUse" x="-189" y="236" width="379" height="189"><path d="M189.927 424.606h-378.696V244.567l13.695 12.695 28.852-10.079 16.773 17.773 35.162-15.541 8.078 11.156 21.928-15.003 19.08 13.772 22.236-17.312 22.467 22.621 26.467-28.468 14.465 24.851 22.774-11.156 20.235 10.541 15.31-14.08 28.238 21.389 20.081-30.083 22.62 21.697 20.235-14.773v180.039z" fill="#fff"/></mask><g mask="url(#mask83_2003_84377)"><path d="M97.677 327.354l-34.008 34.084-34.084-34.084 9.464-9.463 24.62 24.543 24.544-24.543 9.464 9.463z" fill="#fff"/></g><mask id="mask84_2003_84377" style="mask-type:luminance" maskUnits="userSpaceOnUse" x="-189" y="236" width="379" height="189"><path d="M189.927 424.606h-378.696V244.567l13.695 12.695 28.852-10.079 16.773 17.773 35.162-15.541 8.078 11.156 21.928-15.003 19.08 13.772 22.236-17.312 22.467 22.621 26.467-28.468 14.465 24.851 22.774-11.156 20.235 10.541 15.31-14.08 28.238 21.389 20.081-30.083 22.62 21.697 20.235-14.773v180.039z" fill="#fff"/></mask><g mask="url(#mask84_2003_84377)"><path d="M78.903 269.957l-9.694 9.695-5.54-5.617-5.616 5.617-9.695-9.695 15.311-15.234 15.234 15.234z" fill="#fff"/></g><mask id="mask85_2003_84377" style="mask-type:luminance" maskUnits="userSpaceOnUse" x="-189" y="236" width="379" height="189"><path d="M189.927 424.606h-378.696V244.567l13.695 12.695 28.852-10.079 16.773 17.773 35.162-15.541 8.078 11.156 21.928-15.003 19.08 13.772 22.236-17.312 22.467 22.621 26.467-28.468 14.465 24.851 22.774-11.156 20.235 10.541 15.31-14.08 28.238 21.389 20.081-30.083 22.62 21.697 20.235-14.773v180.039z" fill="#fff"/></mask><g mask="url(#mask85_2003_84377)"><path d="M116.989 434.377l-9.618 9.695-19.158-19.158-24.543 24.543-24.621-24.543-19.081 19.158-9.695-9.695 28.468-28.467 24.928 24.928 24.852-24.928 28.468 28.467z" fill="#fff"/></g><mask id="mask86_2003_84377" style="mask-type:luminance" maskUnits="userSpaceOnUse" x="-189" y="236" width="379" height="189"><path d="M189.927 424.606h-378.696V244.567l13.695 12.695 28.852-10.079 16.773 17.773 35.162-15.541 8.078 11.156 21.928-15.003 19.08 13.772 22.236-17.312 22.467 22.621 26.467-28.468 14.465 24.851 22.774-11.156 20.235 10.541 15.31-14.08 28.238 21.389 20.081-30.083 22.62 21.697 20.235-14.773v180.039z" fill="#fff"/></mask><g mask="url(#mask86_2003_84377)"><path d="M78.903 396.292l-9.694 9.618-5.54-5.54-5.616 5.54-9.695-9.618 15.311-15.234 15.234 15.234z" fill="#fff"/></g><mask id="mask87_2003_84377" style="mask-type:luminance" maskUnits="userSpaceOnUse" x="-189" y="236" width="379" height="189"><path d="M189.927 424.606h-378.696V244.567l13.695 12.695 28.852-10.079 16.773 17.773 35.162-15.541 8.078 11.156 21.928-15.003 19.08 13.772 22.236-17.312 22.467 22.621 26.467-28.468 14.465 24.851 22.774-11.156 20.235 10.541 15.31-14.08 28.238 21.389 20.081-30.083 22.62 21.697 20.235-14.773v180.039z" fill="#fff"/></mask><g mask="url(#mask87_2003_84377)"><path d="M189.927 304.503v18.62l-24.543-24.544-19.158 19.158-9.618-9.618 28.468-28.467 24.851 24.851z" fill="#fff"/></g><mask id="mask88_2003_84377" style="mask-type:luminance" maskUnits="userSpaceOnUse" x="-189" y="236" width="379" height="189"><path d="M189.927 424.606h-378.696V244.567l13.695 12.695 28.852-10.079 16.773 17.773 35.162-15.541 8.078 11.156 21.928-15.003 19.08 13.772 22.236-17.312 22.467 22.621 26.467-28.468 14.465 24.851 22.774-11.156 20.235 10.541 15.31-14.08 28.238 21.389 20.081-30.083 22.62 21.697 20.235-14.773v180.039z" fill="#fff"/></mask><g mask="url(#mask88_2003_84377)"><path d="M189.927 342.434v19.004l-34.007-34.084 9.464-9.463 24.543 24.543z" fill="#fff"/></g><mask id="mask89_2003_84377" style="mask-type:luminance" maskUnits="userSpaceOnUse" x="-189" y="236" width="379" height="189"><path d="M189.927 424.606h-378.696V244.567l13.695 12.695 28.852-10.079 16.773 17.773 35.162-15.541 8.078 11.156 21.928-15.003 19.08 13.772 22.236-17.312 22.467 22.621 26.467-28.468 14.465 24.851 22.774-11.156 20.235 10.541 15.31-14.08 28.238 21.389 20.081-30.083 22.62 21.697 20.235-14.773v180.039z" fill="#fff"/></mask><g mask="url(#mask89_2003_84377)"><path d="M189.927 254.723v19.312l-5.54 5.617-9.694-9.695 15.234-15.234z" fill="#fff"/></g><mask id="mask90_2003_84377" style="mask-type:luminance" maskUnits="userSpaceOnUse" x="-189" y="236" width="379" height="189"><path d="M189.927 424.606h-378.696V244.567l13.695 12.695 28.852-10.079 16.773 17.773 35.162-15.541 8.078 11.156 21.928-15.003 19.08 13.772 22.236-17.312 22.467 22.621 26.467-28.468 14.465 24.851 22.774-11.156 20.235 10.541 15.31-14.08 28.238 21.389 20.081-30.083 22.62 21.697 20.235-14.773v180.039z" fill="#fff"/></mask><g mask="url(#mask90_2003_84377)"><path d="M189.927 430.838v18.619l-24.543-24.543-19.158 19.158-9.618-9.695 28.468-28.467 24.851 24.928z" fill="#fff"/></g><mask id="mask91_2003_84377" style="mask-type:luminance" maskUnits="userSpaceOnUse" x="-189" y="236" width="379" height="189"><path d="M189.927 424.606h-378.696V244.567l13.695 12.695 28.852-10.079 16.773 17.773 35.162-15.541 8.078 11.156 21.928-15.003 19.08 13.772 22.236-17.312 22.467 22.621 26.467-28.468 14.465 24.851 22.774-11.156 20.235 10.541 15.31-14.08 28.238 21.389 20.081-30.083 22.62 21.697 20.235-14.773v180.039z" fill="#fff"/></mask><g mask="url(#mask91_2003_84377)"><path d="M189.927 381.058v19.312l-5.54 5.54-9.694-9.618 15.234-15.234z" fill="#fff"/></g></g><g clip-path="url(#clip4_2003_84377)"><mask id="mask92_2003_84377" style="mask-type:luminance" maskUnits="userSpaceOnUse" x="-189" y="110" width="379" height="189"><path d="M189.927 298.425h-378.696V118.386l13.695 12.695 28.852-10.079 16.773 17.773 35.162-15.541 8.078 11.156 21.928-15.003 19.08 13.772 22.236-17.312 22.467 22.621L25.969 110l14.465 24.851 22.774-11.156 20.235 10.541 15.31-14.08 28.238 21.389 20.081-30.083 22.62 21.697 20.235-14.773v180.039z" fill="#fff"/></mask><g mask="url(#mask92_2003_84377)"><path d="M-14.578 118.771h30.083L.502 133.774l-15.08-15.003z" fill="#fff"/></g><mask id="mask93_2003_84377" style="mask-type:luminance" maskUnits="userSpaceOnUse" x="-189" y="110" width="379" height="189"><path d="M189.927 298.425h-378.696V118.386l13.695 12.695 28.852-10.079 16.773 17.773 35.162-15.541 8.078 11.156 21.928-15.003 19.08 13.772 22.236-17.312 22.467 22.621L25.969 110l14.465 24.851 22.774-11.156 20.235 10.541 15.31-14.08 28.238 21.389 20.081-30.083 22.62 21.697 20.235-14.773v180.039z" fill="#fff"/></mask><g mask="url(#mask93_2003_84377)"><path d="M53.821 118.771l-9.617 9.617-9.695-9.617h19.312z" fill="#fff"/></g><mask id="mask94_2003_84377" style="mask-type:luminance" maskUnits="userSpaceOnUse" x="-189" y="110" width="379" height="189"><path d="M189.927 298.425h-378.696V118.386l13.695 12.695 28.852-10.079 16.773 17.773 35.162-15.541 8.078 11.156 21.928-15.003 19.08 13.772 22.236-17.312 22.467 22.621L25.969 110l14.465 24.851 22.774-11.156 20.235 10.541 15.31-14.08 28.238 21.389 20.081-30.083 22.62 21.697 20.235-14.773v180.039z" fill="#fff"/></mask><g mask="url(#mask94_2003_84377)"><path d="M34.51 138.006L.501 172.09l-34.084-34.084 9.54-9.464L.502 153.086l24.544-24.544 9.463 9.464z" fill="#fff"/></g><mask id="mask95_2003_84377" style="mask-type:luminance" maskUnits="userSpaceOnUse" x="-189" y="110" width="379" height="189"><path d="M189.927 298.425h-378.696V118.386l13.695 12.695 28.852-10.079 16.773 17.773 35.162-15.541 8.078 11.156 21.928-15.003 19.08 13.772 22.236-17.312 22.467 22.621L25.969 110l14.465 24.851 22.774-11.156 20.235 10.541 15.31-14.08 28.238 21.389 20.081-30.083 22.62 21.697 20.235-14.773v180.039z" fill="#fff"/></mask><g mask="url(#mask95_2003_84377)"><path d="M73.44 118.771h19.313l-9.695 9.617-9.617-9.617z" fill="#fff"/></g><mask id="mask96_2003_84377" style="mask-type:luminance" maskUnits="userSpaceOnUse" x="-189" y="110" width="379" height="189"><path d="M189.927 298.425h-378.696V118.386l13.695 12.695 28.852-10.079 16.773 17.773 35.162-15.541 8.078 11.156 21.928-15.003 19.08 13.772 22.236-17.312 22.467 22.621L25.969 110l14.465 24.851 22.774-11.156 20.235 10.541 15.31-14.08 28.238 21.389 20.081-30.083 22.62 21.697 20.235-14.773v180.039z" fill="#fff"/></mask><g mask="url(#mask96_2003_84377)"><path d="M111.757 118.771h30.083l-15.08 15.003-15.003-15.003z" fill="#fff"/></g><mask id="mask97_2003_84377" style="mask-type:luminance" maskUnits="userSpaceOnUse" x="-189" y="110" width="379" height="189"><path d="M189.927 298.425h-378.696V118.386l13.695 12.695 28.852-10.079 16.773 17.773 35.162-15.541 8.078 11.156 21.928-15.003 19.08 13.772 22.236-17.312 22.467 22.621L25.969 110l14.465 24.851 22.774-11.156 20.235 10.541 15.31-14.08 28.238 21.389 20.081-30.083 22.62 21.697 20.235-14.773v180.039z" fill="#fff"/></mask><g mask="url(#mask97_2003_84377)"><path d="M180.156 118.771l-9.694 9.617-9.618-9.617h19.312z" fill="#fff"/></g><mask id="mask98_2003_84377" style="mask-type:luminance" maskUnits="userSpaceOnUse" x="-189" y="110" width="379" height="189"><path d="M189.927 298.425h-378.696V118.386l13.695 12.695 28.852-10.079 16.773 17.773 35.162-15.541 8.078 11.156 21.928-15.003 19.08 13.772 22.236-17.312 22.467 22.621L25.969 110l14.465 24.851 22.774-11.156 20.235 10.541 15.31-14.08 28.238 21.389 20.081-30.083 22.62 21.697 20.235-14.773v180.039z" fill="#fff"/></mask><g mask="url(#mask98_2003_84377)"><path d="M160.844 138.006L126.76 172.09l-34.007-34.084 9.463-9.464 24.544 24.544 24.621-24.544 9.463 9.464z" fill="#fff"/></g><mask id="mask99_2003_84377" style="mask-type:luminance" maskUnits="userSpaceOnUse" x="-189" y="110" width="379" height="189"><path d="M189.927 298.425h-378.696V118.386l13.695 12.695 28.852-10.079 16.773 17.773 35.162-15.541 8.078 11.156 21.928-15.003 19.08 13.772 22.236-17.312 22.467 22.621L25.969 110l14.465 24.851 22.774-11.156 20.235 10.541 15.31-14.08 28.238 21.389 20.081-30.083 22.62 21.697 20.235-14.773v180.039z" fill="#fff"/></mask><g mask="url(#mask99_2003_84377)"><path d="M53.821 245.029l-9.617 9.694-19.158-19.158L.502 260.109l-24.544-24.544-19.158 19.158-9.694-9.694 28.468-28.468L.502 241.49l24.852-24.929 28.467 28.468z" fill="#fff"/></g><mask id="mask100_2003_84377" style="mask-type:luminance" maskUnits="userSpaceOnUse" x="-189" y="110" width="379" height="189"><path d="M189.927 298.425h-378.696V118.386l13.695 12.695 28.852-10.079 16.773 17.773 35.162-15.541 8.078 11.156 21.928-15.003 19.08 13.772 22.236-17.312 22.467 22.621L25.969 110l14.465 24.851 22.774-11.156 20.235 10.541 15.31-14.08 28.238 21.389 20.081-30.083 22.62 21.697 20.235-14.773v180.039z" fill="#fff"/></mask><g mask="url(#mask100_2003_84377)"><path d="M34.51 264.341L.501 298.425l-34.084-34.084 9.54-9.464L.502 279.421l24.544-24.544 9.463 9.464z" fill="#fff"/></g><mask id="mask101_2003_84377" style="mask-type:luminance" maskUnits="userSpaceOnUse" x="-189" y="110" width="379" height="189"><path d="M189.927 298.425h-378.696V118.386l13.695 12.695 28.852-10.079 16.773 17.773 35.162-15.541 8.078 11.156 21.928-15.003 19.08 13.772 22.236-17.312 22.467 22.621L25.969 110l14.465 24.851 22.774-11.156 20.235 10.541 15.31-14.08 28.238 21.389 20.081-30.083 22.62 21.697 20.235-14.773v180.039z" fill="#fff"/></mask><g mask="url(#mask101_2003_84377)"><path d="M15.736 206.944l-9.694 9.617-5.54-5.539-5.616 5.539-9.618-9.617L.502 191.71l15.234 15.234z" fill="#fff"/></g><mask id="mask102_2003_84377" style="mask-type:luminance" maskUnits="userSpaceOnUse" x="-189" y="110" width="379" height="189"><path d="M189.927 298.425h-378.696V118.386l13.695 12.695 28.852-10.079 16.773 17.773 35.162-15.541 8.078 11.156 21.928-15.003 19.08 13.772 22.236-17.312 22.467 22.621L25.969 110l14.465 24.851 22.774-11.156 20.235 10.541 15.31-14.08 28.238 21.389 20.081-30.083 22.62 21.697 20.235-14.773v180.039z" fill="#fff"/></mask><g mask="url(#mask102_2003_84377)"><path d="M180.156 245.029l-9.695 9.694-19.081-19.158-24.62 24.544-24.544-24.544-19.158 19.158-9.617-9.694 28.467-28.468 24.852 24.929 24.928-24.929 28.468 28.468z" fill="#fff"/></g><mask id="mask103_2003_84377" style="mask-type:luminance" maskUnits="userSpaceOnUse" x="-189" y="110" width="379" height="189"><path d="M189.927 298.425h-378.696V118.386l13.695 12.695 28.852-10.079 16.773 17.773 35.162-15.541 8.078 11.156 21.928-15.003 19.08 13.772 22.236-17.312 22.467 22.621L25.969 110l14.465 24.851 22.774-11.156 20.235 10.541 15.31-14.08 28.238 21.389 20.081-30.083 22.62 21.697 20.235-14.773v180.039z" fill="#fff"/></mask><g mask="url(#mask103_2003_84377)"><path d="M160.844 264.341l-34.084 34.084-34.007-34.084 9.463-9.464 24.544 24.544 24.621-24.544 9.463 9.464z" fill="#fff"/></g><mask id="mask104_2003_84377" style="mask-type:luminance" maskUnits="userSpaceOnUse" x="-189" y="110" width="379" height="189"><path d="M189.927 298.425h-378.696V118.386l13.695 12.695 28.852-10.079 16.773 17.773 35.162-15.541 8.078 11.156 21.928-15.003 19.08 13.772 22.236-17.312 22.467 22.621L25.969 110l14.465 24.851 22.774-11.156 20.235 10.541 15.31-14.08 28.238 21.389 20.081-30.083 22.62 21.697 20.235-14.773v180.039z" fill="#fff"/></mask><g mask="url(#mask104_2003_84377)"><path d="M142.071 206.944l-9.694 9.617-5.617-5.539-5.54 5.539-9.694-9.617 15.234-15.234 15.311 15.234z" fill="#fff"/></g><mask id="mask105_2003_84377" style="mask-type:luminance" maskUnits="userSpaceOnUse" x="-189" y="110" width="379" height="189"><path d="M189.927 298.425h-378.696V118.386l13.695 12.695 28.852-10.079 16.773 17.773 35.162-15.541 8.078 11.156 21.928-15.003 19.08 13.772 22.236-17.312 22.467 22.621L25.969 110l14.465 24.851 22.774-11.156 20.235 10.541 15.31-14.08 28.238 21.389 20.081-30.083 22.62 21.697 20.235-14.773v180.039z" fill="#fff"/></mask><g mask="url(#mask105_2003_84377)"><path d="M116.989 181.939l-9.618 9.617-19.158-19.158-24.543 24.544-24.621-24.544-19.081 19.158-9.695-9.617 28.468-28.468 24.928 24.851 24.852-24.851 28.468 28.468z" fill="#fff"/></g><mask id="mask106_2003_84377" style="mask-type:luminance" maskUnits="userSpaceOnUse" x="-189" y="110" width="379" height="189"><path d="M189.927 298.425h-378.696V118.386l13.695 12.695 28.852-10.079 16.773 17.773 35.162-15.541 8.078 11.156 21.928-15.003 19.08 13.772 22.236-17.312 22.467 22.621L25.969 110l14.465 24.851 22.774-11.156 20.235 10.541 15.31-14.08 28.238 21.389 20.081-30.083 22.62 21.697 20.235-14.773v180.039z" fill="#fff"/></mask><g mask="url(#mask106_2003_84377)"><path d="M97.677 201.173l-34.008 34.085-34.084-34.085 9.464-9.463 24.62 24.543 24.544-24.543 9.464 9.463z" fill="#fff"/></g><mask id="mask107_2003_84377" style="mask-type:luminance" maskUnits="userSpaceOnUse" x="-189" y="110" width="379" height="189"><path d="M189.927 298.425h-378.696V118.386l13.695 12.695 28.852-10.079 16.773 17.773 35.162-15.541 8.078 11.156 21.928-15.003 19.08 13.772 22.236-17.312 22.467 22.621L25.969 110l14.465 24.851 22.774-11.156 20.235 10.541 15.31-14.08 28.238 21.389 20.081-30.083 22.62 21.697 20.235-14.773v180.039z" fill="#fff"/></mask><g mask="url(#mask107_2003_84377)"><path d="M78.903 143.777l-9.694 9.694-5.54-5.617-5.616 5.617-9.695-9.694 15.311-15.235 15.234 15.235z" fill="#fff"/></g><mask id="mask108_2003_84377" style="mask-type:luminance" maskUnits="userSpaceOnUse" x="-189" y="110" width="379" height="189"><path d="M189.927 298.425h-378.696V118.386l13.695 12.695 28.852-10.079 16.773 17.773 35.162-15.541 8.078 11.156 21.928-15.003 19.08 13.772 22.236-17.312 22.467 22.621L25.969 110l14.465 24.851 22.774-11.156 20.235 10.541 15.31-14.08 28.238 21.389 20.081-30.083 22.62 21.697 20.235-14.773v180.039z" fill="#fff"/></mask><g mask="url(#mask108_2003_84377)"><path d="M116.989 308.196l-9.618 9.695-19.158-19.158-24.543 24.544-24.621-24.544-19.081 19.158-9.695-9.695 28.468-28.467 24.928 24.928 24.852-24.928 28.468 28.467z" fill="#fff"/></g><mask id="mask109_2003_84377" style="mask-type:luminance" maskUnits="userSpaceOnUse" x="-189" y="110" width="379" height="189"><path d="M189.927 298.425h-378.696V118.386l13.695 12.695 28.852-10.079 16.773 17.773 35.162-15.541 8.078 11.156 21.928-15.003 19.08 13.772 22.236-17.312 22.467 22.621L25.969 110l14.465 24.851 22.774-11.156 20.235 10.541 15.31-14.08 28.238 21.389 20.081-30.083 22.62 21.697 20.235-14.773v180.039z" fill="#fff"/></mask><g mask="url(#mask109_2003_84377)"><path d="M78.903 270.111l-9.694 9.618-5.54-5.54-5.616 5.54-9.695-9.618 15.311-15.234 15.234 15.234z" fill="#fff"/></g><mask id="mask110_2003_84377" style="mask-type:luminance" maskUnits="userSpaceOnUse" x="-189" y="110" width="379" height="189"><path d="M189.927 298.425h-378.696V118.386l13.695 12.695 28.852-10.079 16.773 17.773 35.162-15.541 8.078 11.156 21.928-15.003 19.08 13.772 22.236-17.312 22.467 22.621L25.969 110l14.465 24.851 22.774-11.156 20.235 10.541 15.31-14.08 28.238 21.389 20.081-30.083 22.62 21.697 20.235-14.773v180.039z" fill="#fff"/></mask><g mask="url(#mask110_2003_84377)"><path d="M189.927 178.322v18.62l-24.543-24.544-19.158 19.158-9.618-9.617 28.468-28.468 24.851 24.851z" fill="#fff"/></g><mask id="mask111_2003_84377" style="mask-type:luminance" maskUnits="userSpaceOnUse" x="-189" y="110" width="379" height="189"><path d="M189.927 298.425h-378.696V118.386l13.695 12.695 28.852-10.079 16.773 17.773 35.162-15.541 8.078 11.156 21.928-15.003 19.08 13.772 22.236-17.312 22.467 22.621L25.969 110l14.465 24.851 22.774-11.156 20.235 10.541 15.31-14.08 28.238 21.389 20.081-30.083 22.62 21.697 20.235-14.773v180.039z" fill="#fff"/></mask><g mask="url(#mask111_2003_84377)"><path d="M189.927 216.253v19.005l-34.007-34.085 9.464-9.463 24.543 24.543z" fill="#fff"/></g><mask id="mask112_2003_84377" style="mask-type:luminance" maskUnits="userSpaceOnUse" x="-189" y="110" width="379" height="189"><path d="M189.927 298.425h-378.696V118.386l13.695 12.695 28.852-10.079 16.773 17.773 35.162-15.541 8.078 11.156 21.928-15.003 19.08 13.772 22.236-17.312 22.467 22.621L25.969 110l14.465 24.851 22.774-11.156 20.235 10.541 15.31-14.08 28.238 21.389 20.081-30.083 22.62 21.697 20.235-14.773v180.039z" fill="#fff"/></mask><g mask="url(#mask112_2003_84377)"><path d="M189.927 128.542v19.312l-5.54 5.617-9.694-9.694 15.234-15.235z" fill="#fff"/></g><mask id="mask113_2003_84377" style="mask-type:luminance" maskUnits="userSpaceOnUse" x="-189" y="110" width="379" height="189"><path d="M189.927 298.425h-378.696V118.386l13.695 12.695 28.852-10.079 16.773 17.773 35.162-15.541 8.078 11.156 21.928-15.003 19.08 13.772 22.236-17.312 22.467 22.621L25.969 110l14.465 24.851 22.774-11.156 20.235 10.541 15.31-14.08 28.238 21.389 20.081-30.083 22.62 21.697 20.235-14.773v180.039z" fill="#fff"/></mask><g mask="url(#mask113_2003_84377)"><path d="M189.927 304.657v18.62l-24.543-24.544-19.158 19.158-9.618-9.695 28.468-28.467 24.851 24.928z" fill="#fff"/></g><mask id="mask114_2003_84377" style="mask-type:luminance" maskUnits="userSpaceOnUse" x="-189" y="110" width="379" height="189"><path d="M189.927 298.425h-378.696V118.386l13.695 12.695 28.852-10.079 16.773 17.773 35.162-15.541 8.078 11.156 21.928-15.003 19.08 13.772 22.236-17.312 22.467 22.621L25.969 110l14.465 24.851 22.774-11.156 20.235 10.541 15.31-14.08 28.238 21.389 20.081-30.083 22.62 21.697 20.235-14.773v180.039z" fill="#fff"/></mask><g mask="url(#mask114_2003_84377)"><path d="M189.927 254.877v19.312l-5.54 5.54-9.694-9.618 15.234-15.234z" fill="#fff"/></g></g><g clip-path="url(#clip5_2003_84377)"><mask id="mask115_2003_84377" style="mask-type:luminance" maskUnits="userSpaceOnUse" x="-189" y="-16" width="379" height="189"><path d="M189.927 172.425h-378.696V-7.614l13.695 12.695 28.852-10.079 16.773 17.773 35.162-15.541L-86.21 8.39l21.93-15.003L-45.2 7.159l22.236-17.312 22.467 22.62L25.969-16 40.434 8.851 63.208-2.305 83.443 8.236l15.31-14.08 28.238 21.39 20.081-30.084 22.62 21.697 20.235-14.773v180.039z" fill="#fff"/></mask><g mask="url(#mask115_2003_84377)"><path d="M-14.578-7.229h30.083L.502 7.774l-15.08-15.003z" fill="#fff"/></g><mask id="mask116_2003_84377" style="mask-type:luminance" maskUnits="userSpaceOnUse" x="-189" y="-16" width="379" height="189"><path d="M189.927 172.425h-378.696V-7.614l13.695 12.695 28.852-10.079 16.773 17.773 35.162-15.541L-86.21 8.39l21.93-15.003L-45.2 7.159l22.236-17.312 22.467 22.62L25.969-16 40.434 8.851 63.208-2.305 83.443 8.236l15.31-14.08 28.238 21.39 20.081-30.084 22.62 21.697 20.235-14.773v180.039z" fill="#fff"/></mask><g mask="url(#mask116_2003_84377)"><path d="M53.821-7.229l-9.617 9.617-9.695-9.617h19.312z" fill="#fff"/></g><mask id="mask117_2003_84377" style="mask-type:luminance" maskUnits="userSpaceOnUse" x="-189" y="-16" width="379" height="189"><path d="M189.927 172.425h-378.696V-7.614l13.695 12.695 28.852-10.079 16.773 17.773 35.162-15.541L-86.21 8.39l21.93-15.003L-45.2 7.159l22.236-17.312 22.467 22.62L25.969-16 40.434 8.851 63.208-2.305 83.443 8.236l15.31-14.08 28.238 21.39 20.081-30.084 22.62 21.697 20.235-14.773v180.039z" fill="#fff"/></mask><g mask="url(#mask117_2003_84377)"><path d="M34.51 12.006L.501 46.09l-34.084-34.084 9.54-9.464L.502 27.086 25.046 2.542l9.463 9.464z" fill="#fff"/></g><mask id="mask118_2003_84377" style="mask-type:luminance" maskUnits="userSpaceOnUse" x="-189" y="-16" width="379" height="189"><path d="M189.927 172.425h-378.696V-7.614l13.695 12.695 28.852-10.079 16.773 17.773 35.162-15.541L-86.21 8.39l21.93-15.003L-45.2 7.159l22.236-17.312 22.467 22.62L25.969-16 40.434 8.851 63.208-2.305 83.443 8.236l15.31-14.08 28.238 21.39 20.081-30.084 22.62 21.697 20.235-14.773v180.039z" fill="#fff"/></mask><g mask="url(#mask118_2003_84377)"><path d="M73.44-7.229h19.313l-9.695 9.617-9.617-9.617z" fill="#fff"/></g><mask id="mask119_2003_84377" style="mask-type:luminance" maskUnits="userSpaceOnUse" x="-189" y="-16" width="379" height="189"><path d="M189.927 172.425h-378.696V-7.614l13.695 12.695 28.852-10.079 16.773 17.773 35.162-15.541L-86.21 8.39l21.93-15.003L-45.2 7.159l22.236-17.312 22.467 22.62L25.969-16 40.434 8.851 63.208-2.305 83.443 8.236l15.31-14.08 28.238 21.39 20.081-30.084 22.62 21.697 20.235-14.773v180.039z" fill="#fff"/></mask><g mask="url(#mask119_2003_84377)"><path d="M111.757-7.229h30.083L126.76 7.774 111.757-7.229z" fill="#fff"/></g><mask id="mask120_2003_84377" style="mask-type:luminance" maskUnits="userSpaceOnUse" x="-189" y="-16" width="379" height="189"><path d="M189.927 172.425h-378.696V-7.614l13.695 12.695 28.852-10.079 16.773 17.773 35.162-15.541L-86.21 8.39l21.93-15.003L-45.2 7.159l22.236-17.312 22.467 22.62L25.969-16 40.434 8.851 63.208-2.305 83.443 8.236l15.31-14.08 28.238 21.39 20.081-30.084 22.62 21.697 20.235-14.773v180.039z" fill="#fff"/></mask><g mask="url(#mask120_2003_84377)"><path d="M180.156-7.229l-9.694 9.617-9.618-9.617h19.312z" fill="#fff"/></g><mask id="mask121_2003_84377" style="mask-type:luminance" maskUnits="userSpaceOnUse" x="-189" y="-16" width="379" height="189"><path d="M189.927 172.425h-378.696V-7.614l13.695 12.695 28.852-10.079 16.773 17.773 35.162-15.541L-86.21 8.39l21.93-15.003L-45.2 7.159l22.236-17.312 22.467 22.62L25.969-16 40.434 8.851 63.208-2.305 83.443 8.236l15.31-14.08 28.238 21.39 20.081-30.084 22.62 21.697 20.235-14.773v180.039z" fill="#fff"/></mask><g mask="url(#mask121_2003_84377)"><path d="M160.844 12.006L126.76 46.09 92.753 12.006l9.463-9.464 24.544 24.544 24.621-24.544 9.463 9.464z" fill="#fff"/></g><mask id="mask122_2003_84377" style="mask-type:luminance" maskUnits="userSpaceOnUse" x="-189" y="-16" width="379" height="189"><path d="M189.927 172.425h-378.696V-7.614l13.695 12.695 28.852-10.079 16.773 17.773 35.162-15.541L-86.21 8.39l21.93-15.003L-45.2 7.159l22.236-17.312 22.467 22.62L25.969-16 40.434 8.851 63.208-2.305 83.443 8.236l15.31-14.08 28.238 21.39 20.081-30.084 22.62 21.697 20.235-14.773v180.039z" fill="#fff"/></mask><g mask="url(#mask122_2003_84377)"><path d="M53.821 119.029l-9.617 9.694-19.158-19.158L.502 134.109l-24.544-24.544-19.158 19.158-9.694-9.694 28.468-28.468L.502 115.49l24.852-24.929L53.82 119.03z" fill="#fff"/></g><mask id="mask123_2003_84377" style="mask-type:luminance" maskUnits="userSpaceOnUse" x="-189" y="-16" width="379" height="189"><path d="M189.927 172.425h-378.696V-7.614l13.695 12.695 28.852-10.079 16.773 17.773 35.162-15.541L-86.21 8.39l21.93-15.003L-45.2 7.159l22.236-17.312 22.467 22.62L25.969-16 40.434 8.851 63.208-2.305 83.443 8.236l15.31-14.08 28.238 21.39 20.081-30.084 22.62 21.697 20.235-14.773v180.039z" fill="#fff"/></mask><g mask="url(#mask123_2003_84377)"><path d="M34.51 138.341L.501 172.425l-34.084-34.084 9.54-9.464L.502 153.421l24.544-24.544 9.463 9.464z" fill="#fff"/></g><mask id="mask124_2003_84377" style="mask-type:luminance" maskUnits="userSpaceOnUse" x="-189" y="-16" width="379" height="189"><path d="M189.927 172.425h-378.696V-7.614l13.695 12.695 28.852-10.079 16.773 17.773 35.162-15.541L-86.21 8.39l21.93-15.003L-45.2 7.159l22.236-17.312 22.467 22.62L25.969-16 40.434 8.851 63.208-2.305 83.443 8.236l15.31-14.08 28.238 21.39 20.081-30.084 22.62 21.697 20.235-14.773v180.039z" fill="#fff"/></mask><g mask="url(#mask124_2003_84377)"><path d="M15.736 80.944L6.042 90.56l-5.54-5.54-5.616 5.54-9.618-9.617L.502 65.71l15.234 15.234z" fill="#fff"/></g><mask id="mask125_2003_84377" style="mask-type:luminance" maskUnits="userSpaceOnUse" x="-189" y="-16" width="379" height="189"><path d="M189.927 172.425h-378.696V-7.614l13.695 12.695 28.852-10.079 16.773 17.773 35.162-15.541L-86.21 8.39l21.93-15.003L-45.2 7.159l22.236-17.312 22.467 22.62L25.969-16 40.434 8.851 63.208-2.305 83.443 8.236l15.31-14.08 28.238 21.39 20.081-30.084 22.62 21.697 20.235-14.773v180.039z" fill="#fff"/></mask><g mask="url(#mask125_2003_84377)"><path d="M180.156 119.029l-9.695 9.694-19.081-19.158-24.62 24.544-24.544-24.544-19.158 19.158-9.617-9.694 28.467-28.468 24.852 24.929 24.928-24.929 28.468 28.468z" fill="#fff"/></g><mask id="mask126_2003_84377" style="mask-type:luminance" maskUnits="userSpaceOnUse" x="-189" y="-16" width="379" height="189"><path d="M189.927 172.425h-378.696V-7.614l13.695 12.695 28.852-10.079 16.773 17.773 35.162-15.541L-86.21 8.39l21.93-15.003L-45.2 7.159l22.236-17.312 22.467 22.62L25.969-16 40.434 8.851 63.208-2.305 83.443 8.236l15.31-14.08 28.238 21.39 20.081-30.084 22.62 21.697 20.235-14.773v180.039z" fill="#fff"/></mask><g mask="url(#mask126_2003_84377)"><path d="M160.844 138.341l-34.084 34.084-34.007-34.084 9.463-9.464 24.544 24.544 24.621-24.544 9.463 9.464z" fill="#fff"/></g><mask id="mask127_2003_84377" style="mask-type:luminance" maskUnits="userSpaceOnUse" x="-189" y="-16" width="379" height="189"><path d="M189.927 172.425h-378.696V-7.614l13.695 12.695 28.852-10.079 16.773 17.773 35.162-15.541L-86.21 8.39l21.93-15.003L-45.2 7.159l22.236-17.312 22.467 22.62L25.969-16 40.434 8.851 63.208-2.305 83.443 8.236l15.31-14.08 28.238 21.39 20.081-30.084 22.62 21.697 20.235-14.773v180.039z" fill="#fff"/></mask><g mask="url(#mask127_2003_84377)"><path d="M142.071 80.944l-9.694 9.617-5.617-5.54-5.54 5.54-9.694-9.617L126.76 65.71l15.311 15.234z" fill="#fff"/></g><mask id="mask128_2003_84377" style="mask-type:luminance" maskUnits="userSpaceOnUse" x="-189" y="-16" width="379" height="189"><path d="M189.927 172.425h-378.696V-7.614l13.695 12.695 28.852-10.079 16.773 17.773 35.162-15.541L-86.21 8.39l21.93-15.003L-45.2 7.159l22.236-17.312 22.467 22.62L25.969-16 40.434 8.851 63.208-2.305 83.443 8.236l15.31-14.08 28.238 21.39 20.081-30.084 22.62 21.697 20.235-14.773v180.039z" fill="#fff"/></mask><g mask="url(#mask128_2003_84377)"><path d="M116.989 55.939l-9.618 9.617-19.158-19.158L63.67 70.942 39.049 46.398 19.968 65.556l-9.695-9.617L38.741 27.47 63.67 52.322l24.852-24.851 28.468 28.468z" fill="#fff"/></g><mask id="mask129_2003_84377" style="mask-type:luminance" maskUnits="userSpaceOnUse" x="-189" y="-16" width="379" height="189"><path d="M189.927 172.425h-378.696V-7.614l13.695 12.695 28.852-10.079 16.773 17.773 35.162-15.541L-86.21 8.39l21.93-15.003L-45.2 7.159l22.236-17.312 22.467 22.62L25.969-16 40.434 8.851 63.208-2.305 83.443 8.236l15.31-14.08 28.238 21.39 20.081-30.084 22.62 21.697 20.235-14.773v180.039z" fill="#fff"/></mask><g mask="url(#mask129_2003_84377)"><path d="M97.677 75.173l-34.008 34.085-34.084-34.085 9.464-9.463 24.62 24.543L88.213 65.71l9.464 9.463z" fill="#fff"/></g><mask id="mask130_2003_84377" style="mask-type:luminance" maskUnits="userSpaceOnUse" x="-189" y="-16" width="379" height="189"><path d="M189.927 172.425h-378.696V-7.614l13.695 12.695 28.852-10.079 16.773 17.773 35.162-15.541L-86.21 8.39l21.93-15.003L-45.2 7.159l22.236-17.312 22.467 22.62L25.969-16 40.434 8.851 63.208-2.305 83.443 8.236l15.31-14.08 28.238 21.39 20.081-30.084 22.62 21.697 20.235-14.773v180.039z" fill="#fff"/></mask><g mask="url(#mask130_2003_84377)"><path d="M78.903 17.776l-9.694 9.695-5.54-5.617-5.616 5.617-9.695-9.695L63.67 2.542l15.234 15.234z" fill="#fff"/></g><mask id="mask131_2003_84377" style="mask-type:luminance" maskUnits="userSpaceOnUse" x="-189" y="-16" width="379" height="189"><path d="M189.927 172.425h-378.696V-7.614l13.695 12.695 28.852-10.079 16.773 17.773 35.162-15.541L-86.21 8.39l21.93-15.003L-45.2 7.159l22.236-17.312 22.467 22.62L25.969-16 40.434 8.851 63.208-2.305 83.443 8.236l15.31-14.08 28.238 21.39 20.081-30.084 22.62 21.697 20.235-14.773v180.039z" fill="#fff"/></mask><g mask="url(#mask131_2003_84377)"><path d="M116.989 182.196l-9.618 9.695-19.158-19.158-24.543 24.544-24.621-24.544-19.081 19.158-9.695-9.695 28.468-28.467 24.928 24.928 24.852-24.928 28.468 28.467z" fill="#fff"/></g><mask id="mask132_2003_84377" style="mask-type:luminance" maskUnits="userSpaceOnUse" x="-189" y="-16" width="379" height="189"><path d="M189.927 172.425h-378.696V-7.614l13.695 12.695 28.852-10.079 16.773 17.773 35.162-15.541L-86.21 8.39l21.93-15.003L-45.2 7.159l22.236-17.312 22.467 22.62L25.969-16 40.434 8.851 63.208-2.305 83.443 8.236l15.31-14.08 28.238 21.39 20.081-30.084 22.62 21.697 20.235-14.773v180.039z" fill="#fff"/></mask><g mask="url(#mask132_2003_84377)"><path d="M78.903 144.111l-9.694 9.618-5.54-5.54-5.616 5.54-9.695-9.618 15.311-15.234 15.234 15.234z" fill="#fff"/></g><mask id="mask133_2003_84377" style="mask-type:luminance" maskUnits="userSpaceOnUse" x="-189" y="-16" width="379" height="189"><path d="M189.927 172.425h-378.696V-7.614l13.695 12.695 28.852-10.079 16.773 17.773 35.162-15.541L-86.21 8.39l21.93-15.003L-45.2 7.159l22.236-17.312 22.467 22.62L25.969-16 40.434 8.851 63.208-2.305 83.443 8.236l15.31-14.08 28.238 21.39 20.081-30.084 22.62 21.697 20.235-14.773v180.039z" fill="#fff"/></mask><g mask="url(#mask133_2003_84377)"><path d="M189.927 52.322v18.62l-24.543-24.544-19.158 19.158-9.618-9.617 28.468-28.468 24.851 24.851z" fill="#fff"/></g><mask id="mask134_2003_84377" style="mask-type:luminance" maskUnits="userSpaceOnUse" x="-189" y="-16" width="379" height="189"><path d="M189.927 172.425h-378.696V-7.614l13.695 12.695 28.852-10.079 16.773 17.773 35.162-15.541L-86.21 8.39l21.93-15.003L-45.2 7.159l22.236-17.312 22.467 22.62L25.969-16 40.434 8.851 63.208-2.305 83.443 8.236l15.31-14.08 28.238 21.39 20.081-30.084 22.62 21.697 20.235-14.773v180.039z" fill="#fff"/></mask><g mask="url(#mask134_2003_84377)"><path d="M189.927 90.253v19.005L155.92 75.173l9.464-9.463 24.543 24.543z" fill="#fff"/></g><mask id="mask135_2003_84377" style="mask-type:luminance" maskUnits="userSpaceOnUse" x="-189" y="-16" width="379" height="189"><path d="M189.927 172.425h-378.696V-7.614l13.695 12.695 28.852-10.079 16.773 17.773 35.162-15.541L-86.21 8.39l21.93-15.003L-45.2 7.159l22.236-17.312 22.467 22.62L25.969-16 40.434 8.851 63.208-2.305 83.443 8.236l15.31-14.08 28.238 21.39 20.081-30.084 22.62 21.697 20.235-14.773v180.039z" fill="#fff"/></mask><g mask="url(#mask135_2003_84377)"><path d="M189.927 2.542v19.312l-5.54 5.617-9.694-9.695 15.234-15.234z" fill="#fff"/></g><mask id="mask136_2003_84377" style="mask-type:luminance" maskUnits="userSpaceOnUse" x="-189" y="-16" width="379" height="189"><path d="M189.927 172.425h-378.696V-7.614l13.695 12.695 28.852-10.079 16.773 17.773 35.162-15.541L-86.21 8.39l21.93-15.003L-45.2 7.159l22.236-17.312 22.467 22.62L25.969-16 40.434 8.851 63.208-2.305 83.443 8.236l15.31-14.08 28.238 21.39 20.081-30.084 22.62 21.697 20.235-14.773v180.039z" fill="#fff"/></mask><g mask="url(#mask136_2003_84377)"><path d="M189.927 178.657v18.62l-24.543-24.544-19.158 19.158-9.618-9.695 28.468-28.467 24.851 24.928z" fill="#fff"/></g><mask id="mask137_2003_84377" style="mask-type:luminance" maskUnits="userSpaceOnUse" x="-189" y="-16" width="379" height="189"><path d="M189.927 172.425h-378.696V-7.614l13.695 12.695 28.852-10.079 16.773 17.773 35.162-15.541L-86.21 8.39l21.93-15.003L-45.2 7.159l22.236-17.312 22.467 22.62L25.969-16 40.434 8.851 63.208-2.305 83.443 8.236l15.31-14.08 28.238 21.39 20.081-30.084 22.62 21.697 20.235-14.773v180.039z" fill="#fff"/></mask><g mask="url(#mask137_2003_84377)"><path d="M189.927 128.877v19.312l-5.54 5.54-9.694-9.618 15.234-15.234z" fill="#fff"/></g></g></g><defs><clipPath id="clip0_2003_84377"><path fill="#fff" transform="translate(-189 614.724)" d="M0 0h378.927v213.276H0z"/></clipPath><clipPath id="clip1_2003_84377"><path fill="#fff" transform="translate(-189 488.543)" d="M0 0h378.927v213.276H0z"/></clipPath><clipPath id="clip2_2003_84377"><path fill="#fff" transform="translate(-189 362.362)" d="M0 0h378.927v213.276H0z"/></clipPath><clipPath id="clip3_2003_84377"><path fill="#fff" transform="translate(-189 236.181)" d="M0 0h378.927v213.276H0z"/></clipPath><clipPath id="clip4_2003_84377"><path fill="#fff" transform="translate(-189 110)" d="M0 0h378.927v213.276H0z"/></clipPath><clipPath id="clip5_2003_84377"><path fill="#fff" transform="translate(-189 -16)" d="M0 0h378.927v213.276H0z"/></clipPath></defs></svg>