<svg width="151" height="77" fill="none" xmlns="http://www.w3.org/2000/svg"><g clip-path="url(#clip0_2011_27369)" fill="#fff"><path d="M5.417 65.387c-1.559 0-2.894-.444-3.933-1.331C.519 63.168 0 61.985 0 60.506c0-1.554.594-2.737 1.78-3.551 1.188-.814 2.524-1.184 4.008-1.184s2.671.222 3.784.74v-.222c0-1.035-.371-1.701-1.187-1.997a7.015 7.015 0 00-2.226-.37c-1.559 0-3.043.37-4.304 1.11v-4.068c1.484-.74 3.34-1.11 5.565-1.11 2.152 0 3.933.518 5.268 1.627 1.336 1.036 2.004 2.515 2.004 4.29v4.438c0 .518.297.814.89.814.371 0 .668-.074.816-.148V64.5c-.667.518-1.558.74-2.596.74-1.781 0-2.969-.592-3.636-1.701-1.262 1.257-2.82 1.85-4.75 1.85zm1.706-3.402c1.04 0 1.855-.444 2.375-1.258v-1.553c-.594-.444-1.262-.666-2.152-.666-.668 0-1.187.148-1.632.518a1.45 1.45 0 00-.668 1.257c0 .518.222.888.593 1.184.371.296.89.518 1.484.518zm17.587 3.402c-2.746 0-4.824-.444-6.234-1.331v-4.29c.594.443 1.484.813 2.597 1.11 1.04.295 2.226.443 3.488.443 1.187 0 1.78-.222 1.78-.74 0-.296-.222-.517-.667-.665l-.668-.222c-.148-.074-.816-.222-2.078-.518-1.706-.518-2.893-1.036-3.561-1.627-.668-.592-1.04-1.628-1.04-2.96 0-1.478.595-2.588 1.782-3.476 1.187-.813 2.894-1.257 4.971-1.257 2.152 0 4.007.444 5.565 1.405v4.216c-1.706-1.035-3.487-1.627-5.416-1.627-1.113 0-1.633.222-1.633.74 0 .296.223.518.668.666l.668.221c.148.075.52.148 1.039.222.519.148.816.148.89.222 1.558.37 2.745.962 3.488 1.702.741.74 1.113 1.7 1.113 3.032 0 1.406-.594 2.59-1.855 3.477-1.188.813-2.82 1.257-4.898 1.257zm15.062 0c-2.745 0-4.823-.444-6.233-1.331v-4.29c.594.443 1.484.813 2.597 1.11 1.039.295 2.226.443 3.488.443 1.187 0 1.78-.222 1.78-.74 0-.296-.222-.517-.667-.665l-.668-.148c-.149-.074-.817-.222-2.078-.518-1.706-.518-2.894-1.036-3.562-1.627-.667-.592-1.038-1.628-1.038-2.96 0-1.479.593-2.588 1.78-3.476 1.188-.813 2.894-1.257 4.972-1.257 2.152 0 4.007.444 5.565 1.405v4.142c-1.707-1.035-3.487-1.627-5.417-1.627-1.113 0-1.632.222-1.632.74 0 .296.223.518.668.666l.742.221c.148.075.52.148 1.039.222.519.148.816.148.89.222 1.558.37 2.745.962 3.488 1.702.742.74 1.113 1.7 1.113 3.032 0 1.406-.594 2.59-1.855 3.477-1.262.813-2.894 1.257-4.972 1.257zm12.095-16.42c-.816 0-1.484-.296-2.078-.888-.593-.592-.89-1.258-.89-2.071 0-.814.297-1.553.89-2.071.594-.518 1.261-.888 2.078-.888.816 0 1.558.296 2.077.888.52.591.89 1.257.89 2.07 0 .814-.296 1.554-.89 2.072-.593.518-1.261.888-2.077.888zm2.597 16.05h-5.12v-14.72h5.12v14.72zm9.423.37c-2.745 0-4.823-.444-6.233-1.331v-4.29c.594.443 1.484.813 2.598 1.11 1.038.295 2.226.443 3.487.443 1.187 0 1.78-.222 1.78-.74 0-.296-.222-.517-.667-.665l-.668-.222c-.148-.074-.816-.222-2.077-.518-1.707-.518-2.894-1.036-3.562-1.627-.668-.592-1.039-1.628-1.039-2.96 0-1.478.594-2.588 1.78-3.476 1.188-.813 2.895-1.257 4.972-1.257 2.152 0 4.007.444 5.566 1.405v4.216c-1.707-1.035-3.488-1.627-5.417-1.627-1.113 0-1.633.222-1.633.74 0 .296.223.518.668.666l.668.221c.148.075.52.148 1.039.222.52.148.816.148.89.222 1.558.37 2.746.962 3.488 1.702s1.113 1.7 1.113 3.032c0 1.406-.594 2.59-1.855 3.477-1.188.813-2.82 1.257-4.898 1.257zm15.731 0c-1.558 0-2.82-.444-3.71-1.257-.965-.814-1.41-1.997-1.41-3.55v-6.214h-2.597v-4.068h2.597v-3.772h5.12v3.772h3.784v4.142h-3.784v4.734c0 .666.148 1.11.371 1.331.297.296.668.37 1.336.37s1.41-.148 2.003-.517v4.068c-.816.665-2.078.961-3.71.961zm10.908 0c-1.558 0-2.894-.444-3.933-1.331-.965-.888-1.484-2.071-1.484-3.55 0-1.554.594-2.737 1.781-3.551 1.187-.814 2.523-1.184 4.007-1.184 1.484 0 2.671.222 3.784.74v-.222c0-1.035-.37-1.701-1.187-1.997a7.015 7.015 0 00-2.226-.37c-1.558 0-3.042.37-4.304 1.11v-4.068c1.484-.74 3.34-1.11 5.565-1.11 2.152 0 3.933.518 5.269 1.627 1.335 1.036 2.003 2.515 2.003 4.29v4.438c0 .518.297.814.89.814.371 0 .668-.074.817-.148V64.5c-.668.518-1.559.74-2.597.74-1.781 0-2.969-.592-3.636-1.701-1.188 1.257-2.82 1.85-4.75 1.85zm1.707-3.402c1.038 0 1.855-.444 2.374-1.258v-1.553c-.594-.444-1.261-.666-2.152-.666-.668 0-1.187.148-1.632.518a1.45 1.45 0 00-.668 1.257c0 .518.222.888.593 1.184.446.296.89.518 1.484.518zm17.066-6.214v9.246h-5.12v-14.72h5.12v1.628c1.261-1.331 2.745-1.997 4.452-1.997 1.632 0 2.894.518 3.858 1.627.965 1.11 1.41 2.59 1.41 4.438v9.024h-5.12v-8.062c0-.814-.222-1.48-.593-1.85-.371-.37-.891-.591-1.558-.591-1.039 0-1.856.444-2.449 1.257zm20.182 9.616c-2.151 0-4.081-.666-5.713-2.07-1.632-1.406-2.449-3.255-2.449-5.696s.817-4.29 2.449-5.696c1.632-1.405 3.562-2.071 5.713-2.071 1.633 0 3.117.296 4.378.888v4.29a8.788 8.788 0 00-3.561-.74c-1.113 0-2.078.296-2.82.888-.742.591-1.113 1.405-1.113 2.44 0 1.036.371 1.85 1.113 2.442.742.591 1.632.887 2.82.887 1.41 0 2.671-.296 3.784-.887v4.29c-1.41.74-2.968 1.035-4.601 1.035zm14.841 0c-2.3 0-4.23-.666-5.862-2.07-1.558-1.406-2.375-3.33-2.375-5.696 0-2.22.742-3.995 2.152-5.548 1.41-1.48 3.339-2.219 5.714-2.219 2.152 0 3.858.74 5.12 2.145 1.335 1.405 2.003 3.255 2.003 5.548v1.257h-9.869c.223.74.742 1.331 1.484 1.701.742.37 1.707.592 2.82.592 1.632 0 3.191-.444 4.749-1.257v3.92c-1.484 1.11-3.488 1.627-5.936 1.627zm-3.191-9.172h4.897c0-.74-.222-1.331-.667-1.775-.446-.444-.965-.666-1.633-.666s-1.261.222-1.706.666c-.52.37-.817.962-.891 1.775z"/><path fill-rule="evenodd" clip-rule="evenodd" d="M62.403 41.274c.223-.666.297-1.48.297-2.22 0-2.218-.89-4.067-2.597-5.473-1.706-1.405-4.007-2.145-6.9-2.145-3.488 0-6.605.666-9.35 1.997v-9.911l12.54-10.8H36.507V0H75.24v11.391l-11.5 10.133c3.117.814 6.159 2.441 9.053 4.956 3.487 3.033 5.268 7.175 5.268 12.5 0 .74 0 1.554-.074 2.22H62.403v.074z"/><path fill-rule="evenodd" clip-rule="evenodd" d="M92.975 26.924l-3.191-8.136-3.19 8.136h6.38zm-20.48-3.255L82.438 0h14.766l17.289 41.274h-15.88l-.964-2.515H80.063c-.074-5.4-1.78-10.208-5.936-13.758-.52-.444-1.113-.888-1.632-1.332z"/><path d="M19.367 71.97L21.815 77h-.89l-.52-1.11h-2.077l-.52 1.036h-.89l2.449-4.956zm-.668 3.107h1.41l-.668-1.48-.742 1.48zm3.784-3.107h1.781c.89 0 1.484.592 1.484 1.332 0 .443-.148.74-.445.961.445.222.816.592.816 1.184 0 .887-.668 1.405-1.632 1.405h-1.93V71.97h-.074zm1.633 2.071c.519 0 .742-.296.742-.665 0-.37-.223-.666-.742-.666h-.817v1.331h.817zm.296 2.145c.594 0 .817-.296.817-.74 0-.443-.297-.739-.817-.739H23.3v1.405h1.113v.074zm2.968-3.402h-1.26v-.814h3.413v.814h-1.335v4.142h-.817v-4.142zm2.45 1.701a2.498 2.498 0 012.522-2.515c1.41 0 2.523 1.11 2.523 2.515A2.498 2.498 0 0132.352 77c-1.336 0-2.523-1.11-2.523-2.515zm4.303 0c0-.962-.742-1.775-1.707-1.775-.965 0-1.707.74-1.707 1.775 0 1.036.742 1.775 1.707 1.775.965 0 1.707-.813 1.707-1.775zm1.707-2.515l2.448 2.59 2.449-2.59V77h-.817v-3.033l-1.632 1.776-1.632-1.776V77h-.817v-5.03zm5.787 2.515a2.498 2.498 0 012.523-2.515c1.41 0 2.523 1.11 2.523 2.515A2.498 2.498 0 0144.15 77a2.498 2.498 0 01-2.523-2.515zm4.23 0c0-.962-.742-1.775-1.707-1.775-.965 0-1.707.74-1.707 1.775 0 1.036.742 1.775 1.707 1.775.965 0 1.707-.813 1.707-1.775zm2.373-1.701h-1.26v-.814h3.413v.814H49.12v4.142h-.89v-4.142zM51.05 77v-5.03h.817v3.18l3.413-3.18V77h-.816v-3.18L51.05 77zm5.417-5.03h1.781c.89 0 1.484.592 1.484 1.332 0 .443-.148.74-.445.961.445.222.816.592.816 1.184 0 .887-.668 1.405-1.632 1.405h-1.93V71.97h-.074zm1.633 2.071c.52 0 .742-.296.742-.665 0-.37-.223-.666-.742-.666h-.817v1.331h.817zm.222 2.145c.594 0 .816-.296.816-.74 0-.443-.296-.739-.816-.739H57.21v1.405h1.113v.074zm6.085-4.216l2.374 4.956h-.89l-.52-1.11h-2.077l-.52 1.11h-.89l2.523-4.956zm-.742 3.107h1.41l-.668-1.48-.742 1.48zm3.339-.592a2.498 2.498 0 012.523-2.515c.668 0 1.335.222 1.78.74l-.519.518a1.793 1.793 0 00-1.261-.518c-.965 0-1.707.74-1.707 1.775 0 1.036.742 1.775 1.707 1.775.52 0 .89-.222 1.261-.517l.52.591a2.461 2.461 0 01-1.781.74c-1.336-.074-2.523-1.183-2.523-2.589zm4.601 0a2.498 2.498 0 012.522-2.515c.668 0 1.336.222 1.781.74l-.52.592a1.793 1.793 0 00-1.26-.518c-.965 0-1.707.74-1.707 1.775 0 1.036.742 1.775 1.706 1.775.52 0 .89-.222 1.262-.517l.52.591a2.461 2.461 0 01-1.782.74c-1.41-.148-2.522-1.257-2.522-2.663zM76.724 77v-5.03h.817v3.18l3.413-3.18V77h-.816v-3.18L76.724 77zm5.12-2.515a2.498 2.498 0 012.523-2.515c.668 0 1.336.222 1.78.74l-.519.592a1.793 1.793 0 00-1.26-.518c-.965 0-1.707.74-1.707 1.775 0 1.036.742 1.775 1.706 1.775.52 0 .89-.222 1.261-.517l.52.591a2.461 2.461 0 01-1.78.74c-1.41-.148-2.524-1.257-2.524-2.663zm5.936-1.701h-1.26v-.814h3.413v.814h-1.261v4.142h-.816v-4.142h-.075zm3.785-.814L94.013 77h-.89l-.52-1.11h-2.077l-.52 1.11h-.89l2.449-5.03zm-.668 3.107h1.41l-.668-1.48-.742 1.48zm3.784-3.107h.816v2.071h2.449v-2.07h.816v4.955h-.816v-2.145h-2.449v2.145h-.816V71.97zm4.972 2.515a2.498 2.498 0 012.522-2.515c.668 0 1.336.222 1.781.74l-.519.592a1.794 1.794 0 00-1.262-.518c-.964 0-1.706.74-1.706 1.775 0 1.036.742 1.775 1.706 1.775.52 0 .891-.222 1.262-.517l.519.591a2.461 2.461 0 01-1.781.74c-1.335-.148-2.522-1.257-2.522-2.663zm8.681-2.515l2.449 5.03h-.965l-.519-1.11h-2.078l-.519 1.11h-.891l2.523-5.03zm-.742 3.107h1.41l-.668-1.48-.742 1.48zm5.714-1.406L111.747 77h-.89l2.449-5.03 2.448 5.03h-.89l-1.558-3.329zm4.674.222c1.039 0 1.707.592 1.707 1.554 0 .887-.668 1.553-1.707 1.553h-1.632v-4.956h.816v1.85h.816zm-.742 2.293h.817c.593 0 .964-.296.964-.813 0-.518-.371-.814-.964-.814h-.817v1.627zm5.788.74v-1.775h-.594l-1.261 1.775h-.965l1.336-1.923c-.223-.074-.371-.148-.519-.296-.297-.296-.52-.666-.52-1.11 0-.961.742-1.553 1.707-1.553h1.558V77h-.742v-.074zm0-4.216h-.668c-.593 0-.964.296-.964.814 0 .517.371.813.964.813h.668V72.71zm2.004-.74h.816v2.071h2.448v-2.07h.817v4.955h-.817v-2.145h-2.448v2.145h-.816V71.97zm4.971 2.515a2.498 2.498 0 012.523-2.515c.668 0 1.335.222 1.781.74l-.52.592a1.793 1.793 0 00-1.261-.518c-.965 0-1.707.74-1.707 1.775 0 1.036.742 1.775 1.707 1.775.519 0 .89-.222 1.261-.517l.52.591a2.463 2.463 0 01-1.781.74c-1.41-.148-2.523-1.257-2.523-2.663z"/></g><defs><clipPath id="clip0_2011_27369"><path fill="#fff" d="M0 0h151v77H0z"/></clipPath></defs></svg>