<svg width="179" height="91" fill="none" xmlns="http://www.w3.org/2000/svg"><g clip-path="url(#clip0_2003_80878)"><path d="M6.421 77.276c-1.847 0-3.43-.525-4.662-1.574C.616 74.653 0 73.255 0 71.506c0-1.835.704-3.234 2.111-4.196 1.407-.961 2.99-1.398 4.75-1.398 1.76 0 3.167.262 4.486.874v-.262c0-1.224-.44-2.01-1.407-2.36a8.34 8.34 0 00-2.64-.438c-1.846 0-3.606.437-5.101 1.312V60.23c1.76-.874 3.958-1.311 6.597-1.311 2.55 0 4.662.611 6.245 1.923 1.584 1.223 2.375 2.972 2.375 5.07v5.245c0 .612.352.961 1.056.961.44 0 .791-.087.967-.175v4.284c-.791.612-1.847.874-3.078.874-2.111 0-3.519-.7-4.31-2.01-1.496 1.486-3.343 2.185-5.63 2.185zm2.023-4.021c1.232 0 2.2-.525 2.815-1.486v-1.836c-.704-.525-1.495-.787-2.55-.787-.793 0-1.408.175-1.936.612-.528.35-.792.874-.792 1.486s.264 1.05.704 1.399c.44.35 1.056.612 1.76.612zm20.846 4.021c-3.254 0-5.716-.525-7.388-1.574v-5.07c.704.525 1.76.962 3.079 1.311 1.231.35 2.639.525 4.134.525 1.407 0 2.111-.262 2.111-.874 0-.35-.264-.612-.792-.787l-.791-.262c-.176-.088-.968-.263-2.463-.612-2.023-.612-3.43-1.224-4.222-1.923-.792-.7-1.232-1.923-1.232-3.497 0-1.748.704-3.06 2.111-4.109 1.408-.961 3.43-1.486 5.894-1.486 2.55 0 4.75.525 6.597 1.661v4.983c-2.023-1.224-4.134-1.923-6.421-1.923-1.32 0-1.936.262-1.936.874 0 .35.264.612.792.787l.792.262c.176.088.616.175 1.231.262.616.175.968.175 1.056.263 1.847.437 3.254 1.136 4.134 2.01.88.874 1.32 2.01 1.32 3.584 0 1.661-.704 3.06-2.2 4.109-1.407.961-3.342 1.486-5.805 1.486zm17.857 0c-3.255 0-5.718-.525-7.389-1.574v-5.07c.704.525 1.76.962 3.079 1.311 1.231.35 2.639.525 4.134.525 1.407 0 2.111-.262 2.111-.874 0-.35-.264-.612-.792-.787l-.791-.175c-.176-.087-.968-.262-2.463-.612-2.023-.612-3.43-1.224-4.222-1.923-.792-.7-1.232-1.923-1.232-3.496 0-1.749.704-3.06 2.111-4.11 1.408-.96 3.43-1.485 5.894-1.485 2.55 0 4.75.524 6.597 1.66v4.896c-2.023-1.224-4.134-1.923-6.421-1.923-1.32 0-1.935.262-1.935.874 0 .35.263.612.791.787l.88.262c.176.088.615.175 1.231.262.616.175.968.175 1.056.263 1.847.437 3.254 1.136 4.134 2.01.88.874 1.32 2.01 1.32 3.584 0 1.661-.704 3.06-2.2 4.109-1.495.961-3.43 1.486-5.893 1.486zM61.484 57.87c-.967 0-1.759-.35-2.462-1.05-.704-.7-1.056-1.486-1.056-2.447 0-.962.352-1.836 1.056-2.448.703-.612 1.495-1.049 2.462-1.049.968 0 1.848.35 2.463 1.049.616.7 1.056 1.486 1.056 2.448 0 .961-.352 1.835-1.056 2.447-.703.612-1.495 1.05-2.463 1.05zm3.08 18.968h-6.07V59.444h6.07v17.395zm11.17.438c-3.254 0-5.717-.525-7.389-1.574v-5.07c.704.525 1.76.962 3.079 1.311 1.231.35 2.639.525 4.134.525 1.407 0 2.111-.262 2.111-.874 0-.35-.264-.612-.791-.787l-.792-.262c-.176-.088-.968-.263-2.463-.612-2.023-.612-3.43-1.224-4.222-1.923-.792-.7-1.232-1.923-1.232-3.497 0-1.748.704-3.06 2.112-4.109 1.407-.961 3.43-1.486 5.893-1.486 2.55 0 4.75.525 6.597 1.661v4.983c-2.023-1.224-4.134-1.923-6.421-1.923-1.32 0-1.935.262-1.935.874 0 .35.263.612.791.787l.792.262c.176.088.616.175 1.231.262.616.175.968.175 1.056.263 1.847.437 3.255 1.136 4.134 2.01.88.874 1.32 2.01 1.32 3.584 0 1.661-.704 3.06-2.2 4.109-1.407.961-3.342 1.486-5.805 1.486zm18.648-.001c-1.847 0-3.343-.524-4.398-1.486-1.144-.961-1.671-2.36-1.671-4.196V64.25h-3.08v-4.807h3.08v-4.459h6.069v4.459h4.486v4.895h-4.486v5.595c0 .786.176 1.31.44 1.573.351.35.791.437 1.583.437.791 0 1.671-.175 2.375-.612v4.808c-.968.787-2.463 1.136-4.398 1.136zm12.93.001c-1.847 0-3.43-.525-4.662-1.574-1.143-1.049-1.759-2.447-1.759-4.196 0-1.835.704-3.234 2.111-4.196 1.407-.961 2.991-1.398 4.75-1.398s3.166.262 4.486.874v-.262c0-1.224-.44-2.01-1.408-2.36a8.334 8.334 0 00-2.638-.438c-1.848 0-3.607.437-5.102 1.312V60.23c1.759-.874 3.958-1.311 6.597-1.311 2.551 0 4.662.611 6.245 1.923 1.583 1.223 2.375 2.972 2.375 5.07v5.245c0 .612.352.961 1.056.961.439 0 .791-.087.967-.175v4.284c-.791.612-1.847.874-3.078.874-2.111 0-3.519-.7-4.311-2.01-1.407 1.486-3.342 2.185-5.629 2.185zm2.023-4.021c1.232 0 2.199-.525 2.815-1.486v-1.836c-.704-.525-1.495-.787-2.551-.787-.792 0-1.407.175-1.935.612-.528.35-.792.874-.792 1.486s.264 1.05.704 1.399c.528.35 1.055.612 1.759.612zm20.231-7.343v10.927h-6.069V59.443h6.069v1.923c1.495-1.573 3.255-2.36 5.278-2.36 1.935 0 3.43.612 4.574 1.923 1.143 1.311 1.671 3.06 1.671 5.245v10.665h-6.069V67.31c0-.961-.264-1.748-.704-2.185-.44-.437-1.056-.7-1.847-.7-1.232 0-2.199.525-2.903 1.487zm23.925 11.364c-2.551 0-4.837-.787-6.773-2.448-1.935-1.66-2.902-3.846-2.902-6.73 0-2.886.967-5.071 2.902-6.732 1.936-1.66 4.222-2.447 6.773-2.447 1.935 0 3.695.35 5.19 1.048v5.07a10.45 10.45 0 00-4.222-.874c-1.319 0-2.463.35-3.343 1.05-.879.699-1.319 1.66-1.319 2.884s.44 2.186 1.319 2.885c.88.7 1.936 1.049 3.343 1.049 1.671 0 3.166-.35 4.486-1.05v5.071c-1.671.874-3.519 1.224-5.454 1.224zm17.592 0c-2.726 0-5.013-.787-6.948-2.448-1.848-1.66-2.815-3.934-2.815-6.73 0-2.623.879-4.721 2.551-6.557 1.671-1.748 3.958-2.622 6.773-2.622 2.551 0 4.574.874 6.069 2.535 1.583 1.66 2.375 3.846 2.375 6.556v1.486h-11.699c.264.874.88 1.573 1.759 2.01.88.437 2.023.7 3.343.7 1.935 0 3.782-.525 5.629-1.486v4.633c-1.759 1.31-4.134 1.923-7.037 1.923zm-3.782-10.84h5.806c0-.874-.264-1.573-.792-2.098-.528-.524-1.144-.786-1.935-.786-.792 0-1.496.262-2.023.786-.616.437-.968 1.137-1.056 2.098z" fill="#fff"/><path fill-rule="evenodd" clip-rule="evenodd" d="M73.975 48.778c.264-.787.352-1.748.352-2.622 0-2.623-1.056-4.808-3.079-6.47-2.023-1.66-4.75-2.534-8.18-2.534-4.134 0-7.829.786-11.083 2.36V27.798L66.85 15.036H43.277V0h45.915v13.462L75.558 25.438c3.694.962 7.3 2.885 10.731 5.857 4.135 3.584 6.246 8.48 6.246 14.773 0 .874 0 1.836-.088 2.623H73.975v.087z" fill="#AC2A21"/><path fill-rule="evenodd" clip-rule="evenodd" d="M110.215 31.82l-3.783-9.616-3.782 9.615h7.565zm-24.278-3.847L97.725 0h17.504l20.495 48.778H116.9l-1.144-2.972H94.909c-.088-6.381-2.11-12.063-7.036-16.26-.616-.524-1.32-1.048-1.936-1.573z" fill="#AC2A21"/><path d="M22.958 85.056L25.86 91h-1.055l-.616-1.311h-2.463l-.616 1.224h-1.055l2.903-5.857zm-.792 3.671h1.671l-.791-1.748-.88 1.748zm4.486-3.671h2.111c1.056 0 1.76.699 1.76 1.573 0 .525-.177.874-.528 1.137.527.262.967.699.967 1.398 0 1.05-.791 1.661-1.935 1.661H26.74v-5.77h-.088zm1.935 2.447c.616 0 .88-.35.88-.786 0-.438-.264-.787-.88-.787h-.967v1.573h.967zm.352 2.535c.704 0 .968-.35.968-.874s-.352-.874-.968-.874h-1.32v1.661h1.32v.087zm3.519-4.021h-1.496v-.961h4.046v.961h-1.583v4.895h-.967v-4.895zm2.902 2.011c0-1.661 1.32-2.972 2.99-2.972 1.672 0 2.991 1.31 2.991 2.972 0 1.66-1.319 2.972-2.99 2.972-1.584 0-2.99-1.311-2.99-2.972zm5.102 0c0-1.137-.88-2.098-2.023-2.098-1.144 0-2.023.874-2.023 2.098 0 1.224.88 2.098 2.023 2.098 1.143 0 2.023-.962 2.023-2.098zm2.023-2.972l2.903 3.06 2.902-3.06V91h-.967v-3.584l-1.935 2.098-1.936-2.098V91h-.967v-5.944zm6.861 2.972c0-1.661 1.32-2.972 2.99-2.972 1.672 0 2.991 1.31 2.991 2.972 0 1.66-1.32 2.972-2.99 2.972-1.672 0-2.991-1.311-2.991-2.972zm5.014 0c0-1.137-.88-2.098-2.023-2.098-1.144 0-2.024.874-2.024 2.098 0 1.224.88 2.098 2.024 2.098 1.143 0 2.023-.962 2.023-2.098zm2.815-2.011h-1.496v-.961h4.046v.961H58.23v4.895h-1.055v-4.895zM60.517 91v-5.944h.968v3.758l4.046-3.758V91h-.968v-3.76L60.517 91zm6.421-5.944h2.111c1.056 0 1.76.699 1.76 1.573 0 .525-.176.874-.528 1.137.527.262.967.699.967 1.398 0 1.05-.791 1.661-1.935 1.661h-2.287v-5.77h-.088zm1.935 2.447c.616 0 .88-.35.88-.786 0-.438-.264-.787-.88-.787h-.967v1.573h.967zm.264 2.535c.704 0 .968-.35.968-.874s-.352-.874-.968-.874h-1.32v1.661h1.32v.087zm7.213-4.982l2.815 5.856h-1.056l-.615-1.31H75.03l-.616 1.31h-1.056l2.991-5.856zm-.88 3.671h1.672l-.792-1.748-.88 1.748zm3.958-.699c0-1.661 1.32-2.972 2.991-2.972.792 0 1.583.262 2.111.874l-.615.612a2.13 2.13 0 00-1.496-.612c-1.143 0-2.023.874-2.023 2.098 0 1.224.88 2.098 2.023 2.098.616 0 1.056-.263 1.496-.612l.615.7a2.922 2.922 0 01-2.11.873c-1.584-.087-2.992-1.398-2.992-3.06zm5.454 0c0-1.661 1.32-2.972 2.99-2.972.792 0 1.584.262 2.112.874l-.616.7a2.13 2.13 0 00-1.495-.613c-1.144 0-2.023.874-2.023 2.098 0 1.224.88 2.098 2.023 2.098.615 0 1.055-.262 1.495-.612l.616.7a2.922 2.922 0 01-2.111.874c-1.672-.175-2.99-1.486-2.99-3.147zM90.951 91v-5.944h.968v3.758l4.046-3.758V91h-.967v-3.76L90.95 91zm6.069-2.972c0-1.661 1.32-2.972 2.991-2.972.792 0 1.584.262 2.111.874l-.615.7a2.13 2.13 0 00-1.496-.613c-1.143 0-2.023.874-2.023 2.098 0 1.224.88 2.098 2.023 2.098.616 0 1.056-.262 1.496-.612l.615.7a2.92 2.92 0 01-2.111.874c-1.67-.175-2.99-1.486-2.99-3.147zm7.038-2.011h-1.496v-.961h4.046v.961h-1.495v4.895h-.967v-4.895h-.088zm4.486-.961L111.446 91h-1.055l-.616-1.311h-2.463l-.616 1.31h-1.055l2.903-5.943zm-.792 3.671h1.671l-.791-1.748-.88 1.748zm4.486-3.671h.968v2.447h2.902v-2.447h.968v5.856h-.968v-2.535h-2.902v2.535h-.968v-5.856zm5.893 2.972c0-1.661 1.32-2.972 2.991-2.972.792 0 1.583.262 2.111.874l-.616.7a2.128 2.128 0 00-1.495-.613c-1.143 0-2.023.874-2.023 2.098 0 1.224.88 2.098 2.023 2.098.616 0 1.056-.262 1.495-.612l.616.7a2.922 2.922 0 01-2.111.874c-1.583-.175-2.991-1.486-2.991-3.147zm10.292-2.972L131.325 91h-1.143l-.616-1.311h-2.463l-.615 1.31h-1.056l2.991-5.943zm-.88 3.671h1.671l-.791-1.748-.88 1.748zm6.773-1.661L132.469 91h-1.056l2.903-5.944L137.219 91h-1.056l-1.847-3.934zm5.541.263c1.232 0 2.024.699 2.024 1.835 0 1.05-.792 1.836-2.024 1.836h-1.935v-5.857h.968v2.186h.967zm-.879 2.71h.967c.704 0 1.144-.35 1.144-.962s-.44-.962-1.144-.962h-.967v1.923zm6.861.873v-2.098h-.704l-1.495 2.099h-1.144l1.584-2.273c-.264-.088-.44-.175-.616-.35-.352-.35-.616-.787-.616-1.311 0-1.137.88-1.836 2.023-1.836h1.847V91h-.879v-.088zm0-4.982h-.792c-.703 0-1.143.35-1.143.961 0 .612.44.962 1.143.962h.792V85.93zm2.375-.874h.967v2.447h2.903v-2.447h.968v5.856h-.968v-2.535h-2.903v2.535h-.967v-5.856zm5.893 2.972c0-1.661 1.32-2.972 2.991-2.972.791 0 1.583.262 2.111.874l-.616.7a2.128 2.128 0 00-1.495-.613c-1.144 0-2.023.874-2.023 2.098 0 1.224.879 2.098 2.023 2.098.616 0 1.055-.262 1.495-.612l.616.7a2.924 2.924 0 01-2.111.874c-1.671-.175-2.991-1.486-2.991-3.147z" fill="#fff"/></g><defs><clipPath id="clip0_2003_80878"><path fill="#fff" d="M0 0h179v91H0z"/></clipPath></defs></svg>