<svg width="14" height="34" fill="none" xmlns="http://www.w3.org/2000/svg"><path stroke="#DCDCDC" stroke-width="2" stroke-linecap="round" stroke-dasharray="6 6" d="M7 1v24"/><g clip-path="url(#clip0_2002_70574)"><path d="M6.456 33.776L1.4 28.72a.76.76 0 01-.223-.541c0-.206.08-.398.223-.542l.46-.46a.776.776 0 011.09 0l2.955 2.95v-9.37c0-.423.331-.757.754-.757h.649c.422 0 .787.334.787.756v9.405l2.972-2.983a.755.755 0 011.076 0l.458.459a.76.76 0 01.223.542.76.76 0 01-.224.541l-5.056 5.056A.761.761 0 017 34a.761.761 0 01-.544-.224z" fill="#DCDCDC"/></g><defs><clipPath id="clip0_2002_70574"><path fill="#fff" transform="matrix(0 1 1 0 0 20)" d="M0 0h14v14H0z"/></clipPath></defs></svg>